%TF.GenerationSoftware,KiCad,Pcbnew,9.0.2*%
%TF.CreationDate,2025-09-25T15:04:07+05:00*%
%TF.ProjectId,Diplom,4469706c-6f6d-42e6-9b69-6361645f7063,rev?*%
%TF.SameCoordinates,Original*%
%TF.FileFunction,Legend,Top*%
%TF.FilePolarity,Positive*%
%FSLAX46Y46*%
G04 Gerber Fmt 4.6, Leading zero omitted, Abs format (unit mm)*
G04 Created by KiCad (PCBNEW 9.0.2) date 2025-09-25 15:04:07*
%MOMM*%
%LPD*%
G01*
G04 APERTURE LIST*
%ADD10C,0.150000*%
%ADD11C,0.200000*%
%ADD12C,0.120000*%
%ADD13C,0.100000*%
G04 APERTURE END LIST*
D10*
X116055580Y-67549657D02*
X116103200Y-67597276D01*
X116103200Y-67597276D02*
X116150819Y-67740133D01*
X116150819Y-67740133D02*
X116150819Y-67835371D01*
X116150819Y-67835371D02*
X116103200Y-67978228D01*
X116103200Y-67978228D02*
X116007961Y-68073466D01*
X116007961Y-68073466D02*
X115912723Y-68121085D01*
X115912723Y-68121085D02*
X115722247Y-68168704D01*
X115722247Y-68168704D02*
X115579390Y-68168704D01*
X115579390Y-68168704D02*
X115388914Y-68121085D01*
X115388914Y-68121085D02*
X115293676Y-68073466D01*
X115293676Y-68073466D02*
X115198438Y-67978228D01*
X115198438Y-67978228D02*
X115150819Y-67835371D01*
X115150819Y-67835371D02*
X115150819Y-67740133D01*
X115150819Y-67740133D02*
X115198438Y-67597276D01*
X115198438Y-67597276D02*
X115246057Y-67549657D01*
X115150819Y-67216323D02*
X115150819Y-66597276D01*
X115150819Y-66597276D02*
X115531771Y-66930609D01*
X115531771Y-66930609D02*
X115531771Y-66787752D01*
X115531771Y-66787752D02*
X115579390Y-66692514D01*
X115579390Y-66692514D02*
X115627009Y-66644895D01*
X115627009Y-66644895D02*
X115722247Y-66597276D01*
X115722247Y-66597276D02*
X115960342Y-66597276D01*
X115960342Y-66597276D02*
X116055580Y-66644895D01*
X116055580Y-66644895D02*
X116103200Y-66692514D01*
X116103200Y-66692514D02*
X116150819Y-66787752D01*
X116150819Y-66787752D02*
X116150819Y-67073466D01*
X116150819Y-67073466D02*
X116103200Y-67168704D01*
X116103200Y-67168704D02*
X116055580Y-67216323D01*
X115150819Y-65978228D02*
X115150819Y-65882990D01*
X115150819Y-65882990D02*
X115198438Y-65787752D01*
X115198438Y-65787752D02*
X115246057Y-65740133D01*
X115246057Y-65740133D02*
X115341295Y-65692514D01*
X115341295Y-65692514D02*
X115531771Y-65644895D01*
X115531771Y-65644895D02*
X115769866Y-65644895D01*
X115769866Y-65644895D02*
X115960342Y-65692514D01*
X115960342Y-65692514D02*
X116055580Y-65740133D01*
X116055580Y-65740133D02*
X116103200Y-65787752D01*
X116103200Y-65787752D02*
X116150819Y-65882990D01*
X116150819Y-65882990D02*
X116150819Y-65978228D01*
X116150819Y-65978228D02*
X116103200Y-66073466D01*
X116103200Y-66073466D02*
X116055580Y-66121085D01*
X116055580Y-66121085D02*
X115960342Y-66168704D01*
X115960342Y-66168704D02*
X115769866Y-66216323D01*
X115769866Y-66216323D02*
X115531771Y-66216323D01*
X115531771Y-66216323D02*
X115341295Y-66168704D01*
X115341295Y-66168704D02*
X115246057Y-66121085D01*
X115246057Y-66121085D02*
X115198438Y-66073466D01*
X115198438Y-66073466D02*
X115150819Y-65978228D01*
X129407142Y-73214818D02*
X129073809Y-72738627D01*
X128835714Y-73214818D02*
X128835714Y-72214818D01*
X128835714Y-72214818D02*
X129216666Y-72214818D01*
X129216666Y-72214818D02*
X129311904Y-72262437D01*
X129311904Y-72262437D02*
X129359523Y-72310056D01*
X129359523Y-72310056D02*
X129407142Y-72405294D01*
X129407142Y-72405294D02*
X129407142Y-72548151D01*
X129407142Y-72548151D02*
X129359523Y-72643389D01*
X129359523Y-72643389D02*
X129311904Y-72691008D01*
X129311904Y-72691008D02*
X129216666Y-72738627D01*
X129216666Y-72738627D02*
X128835714Y-72738627D01*
X129788095Y-72310056D02*
X129835714Y-72262437D01*
X129835714Y-72262437D02*
X129930952Y-72214818D01*
X129930952Y-72214818D02*
X130169047Y-72214818D01*
X130169047Y-72214818D02*
X130264285Y-72262437D01*
X130264285Y-72262437D02*
X130311904Y-72310056D01*
X130311904Y-72310056D02*
X130359523Y-72405294D01*
X130359523Y-72405294D02*
X130359523Y-72500532D01*
X130359523Y-72500532D02*
X130311904Y-72643389D01*
X130311904Y-72643389D02*
X129740476Y-73214818D01*
X129740476Y-73214818D02*
X130359523Y-73214818D01*
X131264285Y-72214818D02*
X130788095Y-72214818D01*
X130788095Y-72214818D02*
X130740476Y-72691008D01*
X130740476Y-72691008D02*
X130788095Y-72643389D01*
X130788095Y-72643389D02*
X130883333Y-72595770D01*
X130883333Y-72595770D02*
X131121428Y-72595770D01*
X131121428Y-72595770D02*
X131216666Y-72643389D01*
X131216666Y-72643389D02*
X131264285Y-72691008D01*
X131264285Y-72691008D02*
X131311904Y-72786246D01*
X131311904Y-72786246D02*
X131311904Y-73024341D01*
X131311904Y-73024341D02*
X131264285Y-73119579D01*
X131264285Y-73119579D02*
X131216666Y-73167199D01*
X131216666Y-73167199D02*
X131121428Y-73214818D01*
X131121428Y-73214818D02*
X130883333Y-73214818D01*
X130883333Y-73214818D02*
X130788095Y-73167199D01*
X130788095Y-73167199D02*
X130740476Y-73119579D01*
X88345980Y-99801656D02*
X88393600Y-99849275D01*
X88393600Y-99849275D02*
X88441219Y-99992132D01*
X88441219Y-99992132D02*
X88441219Y-100087370D01*
X88441219Y-100087370D02*
X88393600Y-100230227D01*
X88393600Y-100230227D02*
X88298361Y-100325465D01*
X88298361Y-100325465D02*
X88203123Y-100373084D01*
X88203123Y-100373084D02*
X88012647Y-100420703D01*
X88012647Y-100420703D02*
X87869790Y-100420703D01*
X87869790Y-100420703D02*
X87679314Y-100373084D01*
X87679314Y-100373084D02*
X87584076Y-100325465D01*
X87584076Y-100325465D02*
X87488838Y-100230227D01*
X87488838Y-100230227D02*
X87441219Y-100087370D01*
X87441219Y-100087370D02*
X87441219Y-99992132D01*
X87441219Y-99992132D02*
X87488838Y-99849275D01*
X87488838Y-99849275D02*
X87536457Y-99801656D01*
X88441219Y-98849275D02*
X88441219Y-99420703D01*
X88441219Y-99134989D02*
X87441219Y-99134989D01*
X87441219Y-99134989D02*
X87584076Y-99230227D01*
X87584076Y-99230227D02*
X87679314Y-99325465D01*
X87679314Y-99325465D02*
X87726933Y-99420703D01*
X87441219Y-98515941D02*
X87441219Y-97849275D01*
X87441219Y-97849275D02*
X88441219Y-98277846D01*
X93266666Y-91414818D02*
X93266666Y-92129103D01*
X93266666Y-92129103D02*
X93219047Y-92271960D01*
X93219047Y-92271960D02*
X93123809Y-92367199D01*
X93123809Y-92367199D02*
X92980952Y-92414818D01*
X92980952Y-92414818D02*
X92885714Y-92414818D01*
X93695238Y-91510056D02*
X93742857Y-91462437D01*
X93742857Y-91462437D02*
X93838095Y-91414818D01*
X93838095Y-91414818D02*
X94076190Y-91414818D01*
X94076190Y-91414818D02*
X94171428Y-91462437D01*
X94171428Y-91462437D02*
X94219047Y-91510056D01*
X94219047Y-91510056D02*
X94266666Y-91605294D01*
X94266666Y-91605294D02*
X94266666Y-91700532D01*
X94266666Y-91700532D02*
X94219047Y-91843389D01*
X94219047Y-91843389D02*
X93647619Y-92414818D01*
X93647619Y-92414818D02*
X94266666Y-92414818D01*
X96985980Y-98381657D02*
X97033600Y-98429276D01*
X97033600Y-98429276D02*
X97081219Y-98572133D01*
X97081219Y-98572133D02*
X97081219Y-98667371D01*
X97081219Y-98667371D02*
X97033600Y-98810228D01*
X97033600Y-98810228D02*
X96938361Y-98905466D01*
X96938361Y-98905466D02*
X96843123Y-98953085D01*
X96843123Y-98953085D02*
X96652647Y-99000704D01*
X96652647Y-99000704D02*
X96509790Y-99000704D01*
X96509790Y-99000704D02*
X96319314Y-98953085D01*
X96319314Y-98953085D02*
X96224076Y-98905466D01*
X96224076Y-98905466D02*
X96128838Y-98810228D01*
X96128838Y-98810228D02*
X96081219Y-98667371D01*
X96081219Y-98667371D02*
X96081219Y-98572133D01*
X96081219Y-98572133D02*
X96128838Y-98429276D01*
X96128838Y-98429276D02*
X96176457Y-98381657D01*
X97081219Y-97429276D02*
X97081219Y-98000704D01*
X97081219Y-97714990D02*
X96081219Y-97714990D01*
X96081219Y-97714990D02*
X96224076Y-97810228D01*
X96224076Y-97810228D02*
X96319314Y-97905466D01*
X96319314Y-97905466D02*
X96366933Y-98000704D01*
X96509790Y-96857847D02*
X96462171Y-96953085D01*
X96462171Y-96953085D02*
X96414552Y-97000704D01*
X96414552Y-97000704D02*
X96319314Y-97048323D01*
X96319314Y-97048323D02*
X96271695Y-97048323D01*
X96271695Y-97048323D02*
X96176457Y-97000704D01*
X96176457Y-97000704D02*
X96128838Y-96953085D01*
X96128838Y-96953085D02*
X96081219Y-96857847D01*
X96081219Y-96857847D02*
X96081219Y-96667371D01*
X96081219Y-96667371D02*
X96128838Y-96572133D01*
X96128838Y-96572133D02*
X96176457Y-96524514D01*
X96176457Y-96524514D02*
X96271695Y-96476895D01*
X96271695Y-96476895D02*
X96319314Y-96476895D01*
X96319314Y-96476895D02*
X96414552Y-96524514D01*
X96414552Y-96524514D02*
X96462171Y-96572133D01*
X96462171Y-96572133D02*
X96509790Y-96667371D01*
X96509790Y-96667371D02*
X96509790Y-96857847D01*
X96509790Y-96857847D02*
X96557409Y-96953085D01*
X96557409Y-96953085D02*
X96605028Y-97000704D01*
X96605028Y-97000704D02*
X96700266Y-97048323D01*
X96700266Y-97048323D02*
X96890742Y-97048323D01*
X96890742Y-97048323D02*
X96985980Y-97000704D01*
X96985980Y-97000704D02*
X97033600Y-96953085D01*
X97033600Y-96953085D02*
X97081219Y-96857847D01*
X97081219Y-96857847D02*
X97081219Y-96667371D01*
X97081219Y-96667371D02*
X97033600Y-96572133D01*
X97033600Y-96572133D02*
X96985980Y-96524514D01*
X96985980Y-96524514D02*
X96890742Y-96476895D01*
X96890742Y-96476895D02*
X96700266Y-96476895D01*
X96700266Y-96476895D02*
X96605028Y-96524514D01*
X96605028Y-96524514D02*
X96557409Y-96572133D01*
X96557409Y-96572133D02*
X96509790Y-96667371D01*
X113609580Y-71392857D02*
X113657200Y-71440476D01*
X113657200Y-71440476D02*
X113704819Y-71583333D01*
X113704819Y-71583333D02*
X113704819Y-71678571D01*
X113704819Y-71678571D02*
X113657200Y-71821428D01*
X113657200Y-71821428D02*
X113561961Y-71916666D01*
X113561961Y-71916666D02*
X113466723Y-71964285D01*
X113466723Y-71964285D02*
X113276247Y-72011904D01*
X113276247Y-72011904D02*
X113133390Y-72011904D01*
X113133390Y-72011904D02*
X112942914Y-71964285D01*
X112942914Y-71964285D02*
X112847676Y-71916666D01*
X112847676Y-71916666D02*
X112752438Y-71821428D01*
X112752438Y-71821428D02*
X112704819Y-71678571D01*
X112704819Y-71678571D02*
X112704819Y-71583333D01*
X112704819Y-71583333D02*
X112752438Y-71440476D01*
X112752438Y-71440476D02*
X112800057Y-71392857D01*
X112800057Y-71011904D02*
X112752438Y-70964285D01*
X112752438Y-70964285D02*
X112704819Y-70869047D01*
X112704819Y-70869047D02*
X112704819Y-70630952D01*
X112704819Y-70630952D02*
X112752438Y-70535714D01*
X112752438Y-70535714D02*
X112800057Y-70488095D01*
X112800057Y-70488095D02*
X112895295Y-70440476D01*
X112895295Y-70440476D02*
X112990533Y-70440476D01*
X112990533Y-70440476D02*
X113133390Y-70488095D01*
X113133390Y-70488095D02*
X113704819Y-71059523D01*
X113704819Y-71059523D02*
X113704819Y-70440476D01*
X113704819Y-69488095D02*
X113704819Y-70059523D01*
X113704819Y-69773809D02*
X112704819Y-69773809D01*
X112704819Y-69773809D02*
X112847676Y-69869047D01*
X112847676Y-69869047D02*
X112942914Y-69964285D01*
X112942914Y-69964285D02*
X112990533Y-70059523D01*
X123761069Y-62154107D02*
X123284878Y-62487440D01*
X123761069Y-62725535D02*
X122761069Y-62725535D01*
X122761069Y-62725535D02*
X122761069Y-62344583D01*
X122761069Y-62344583D02*
X122808688Y-62249345D01*
X122808688Y-62249345D02*
X122856307Y-62201726D01*
X122856307Y-62201726D02*
X122951545Y-62154107D01*
X122951545Y-62154107D02*
X123094402Y-62154107D01*
X123094402Y-62154107D02*
X123189640Y-62201726D01*
X123189640Y-62201726D02*
X123237259Y-62249345D01*
X123237259Y-62249345D02*
X123284878Y-62344583D01*
X123284878Y-62344583D02*
X123284878Y-62725535D01*
X123761069Y-61201726D02*
X123761069Y-61773154D01*
X123761069Y-61487440D02*
X122761069Y-61487440D01*
X122761069Y-61487440D02*
X122903926Y-61582678D01*
X122903926Y-61582678D02*
X122999164Y-61677916D01*
X122999164Y-61677916D02*
X123046783Y-61773154D01*
X123094402Y-60344583D02*
X123761069Y-60344583D01*
X122713450Y-60582678D02*
X123427735Y-60820773D01*
X123427735Y-60820773D02*
X123427735Y-60201726D01*
X75372579Y-96337257D02*
X75420199Y-96384876D01*
X75420199Y-96384876D02*
X75467818Y-96527733D01*
X75467818Y-96527733D02*
X75467818Y-96622971D01*
X75467818Y-96622971D02*
X75420199Y-96765828D01*
X75420199Y-96765828D02*
X75324960Y-96861066D01*
X75324960Y-96861066D02*
X75229722Y-96908685D01*
X75229722Y-96908685D02*
X75039246Y-96956304D01*
X75039246Y-96956304D02*
X74896389Y-96956304D01*
X74896389Y-96956304D02*
X74705913Y-96908685D01*
X74705913Y-96908685D02*
X74610675Y-96861066D01*
X74610675Y-96861066D02*
X74515437Y-96765828D01*
X74515437Y-96765828D02*
X74467818Y-96622971D01*
X74467818Y-96622971D02*
X74467818Y-96527733D01*
X74467818Y-96527733D02*
X74515437Y-96384876D01*
X74515437Y-96384876D02*
X74563056Y-96337257D01*
X74563056Y-95956304D02*
X74515437Y-95908685D01*
X74515437Y-95908685D02*
X74467818Y-95813447D01*
X74467818Y-95813447D02*
X74467818Y-95575352D01*
X74467818Y-95575352D02*
X74515437Y-95480114D01*
X74515437Y-95480114D02*
X74563056Y-95432495D01*
X74563056Y-95432495D02*
X74658294Y-95384876D01*
X74658294Y-95384876D02*
X74753532Y-95384876D01*
X74753532Y-95384876D02*
X74896389Y-95432495D01*
X74896389Y-95432495D02*
X75467818Y-96003923D01*
X75467818Y-96003923D02*
X75467818Y-95384876D01*
X74563056Y-95003923D02*
X74515437Y-94956304D01*
X74515437Y-94956304D02*
X74467818Y-94861066D01*
X74467818Y-94861066D02*
X74467818Y-94622971D01*
X74467818Y-94622971D02*
X74515437Y-94527733D01*
X74515437Y-94527733D02*
X74563056Y-94480114D01*
X74563056Y-94480114D02*
X74658294Y-94432495D01*
X74658294Y-94432495D02*
X74753532Y-94432495D01*
X74753532Y-94432495D02*
X74896389Y-94480114D01*
X74896389Y-94480114D02*
X75467818Y-95051542D01*
X75467818Y-95051542D02*
X75467818Y-94432495D01*
X123409819Y-76042857D02*
X122933628Y-76376190D01*
X123409819Y-76614285D02*
X122409819Y-76614285D01*
X122409819Y-76614285D02*
X122409819Y-76233333D01*
X122409819Y-76233333D02*
X122457438Y-76138095D01*
X122457438Y-76138095D02*
X122505057Y-76090476D01*
X122505057Y-76090476D02*
X122600295Y-76042857D01*
X122600295Y-76042857D02*
X122743152Y-76042857D01*
X122743152Y-76042857D02*
X122838390Y-76090476D01*
X122838390Y-76090476D02*
X122886009Y-76138095D01*
X122886009Y-76138095D02*
X122933628Y-76233333D01*
X122933628Y-76233333D02*
X122933628Y-76614285D01*
X123409819Y-75090476D02*
X123409819Y-75661904D01*
X123409819Y-75376190D02*
X122409819Y-75376190D01*
X122409819Y-75376190D02*
X122552676Y-75471428D01*
X122552676Y-75471428D02*
X122647914Y-75566666D01*
X122647914Y-75566666D02*
X122695533Y-75661904D01*
X122409819Y-74471428D02*
X122409819Y-74376190D01*
X122409819Y-74376190D02*
X122457438Y-74280952D01*
X122457438Y-74280952D02*
X122505057Y-74233333D01*
X122505057Y-74233333D02*
X122600295Y-74185714D01*
X122600295Y-74185714D02*
X122790771Y-74138095D01*
X122790771Y-74138095D02*
X123028866Y-74138095D01*
X123028866Y-74138095D02*
X123219342Y-74185714D01*
X123219342Y-74185714D02*
X123314580Y-74233333D01*
X123314580Y-74233333D02*
X123362200Y-74280952D01*
X123362200Y-74280952D02*
X123409819Y-74376190D01*
X123409819Y-74376190D02*
X123409819Y-74471428D01*
X123409819Y-74471428D02*
X123362200Y-74566666D01*
X123362200Y-74566666D02*
X123314580Y-74614285D01*
X123314580Y-74614285D02*
X123219342Y-74661904D01*
X123219342Y-74661904D02*
X123028866Y-74709523D01*
X123028866Y-74709523D02*
X122790771Y-74709523D01*
X122790771Y-74709523D02*
X122600295Y-74661904D01*
X122600295Y-74661904D02*
X122505057Y-74614285D01*
X122505057Y-74614285D02*
X122457438Y-74566666D01*
X122457438Y-74566666D02*
X122409819Y-74471428D01*
X102313333Y-99027080D02*
X102265714Y-99074700D01*
X102265714Y-99074700D02*
X102122857Y-99122319D01*
X102122857Y-99122319D02*
X102027619Y-99122319D01*
X102027619Y-99122319D02*
X101884762Y-99074700D01*
X101884762Y-99074700D02*
X101789524Y-98979461D01*
X101789524Y-98979461D02*
X101741905Y-98884223D01*
X101741905Y-98884223D02*
X101694286Y-98693747D01*
X101694286Y-98693747D02*
X101694286Y-98550890D01*
X101694286Y-98550890D02*
X101741905Y-98360414D01*
X101741905Y-98360414D02*
X101789524Y-98265176D01*
X101789524Y-98265176D02*
X101884762Y-98169938D01*
X101884762Y-98169938D02*
X102027619Y-98122319D01*
X102027619Y-98122319D02*
X102122857Y-98122319D01*
X102122857Y-98122319D02*
X102265714Y-98169938D01*
X102265714Y-98169938D02*
X102313333Y-98217557D01*
X103170476Y-98122319D02*
X102980000Y-98122319D01*
X102980000Y-98122319D02*
X102884762Y-98169938D01*
X102884762Y-98169938D02*
X102837143Y-98217557D01*
X102837143Y-98217557D02*
X102741905Y-98360414D01*
X102741905Y-98360414D02*
X102694286Y-98550890D01*
X102694286Y-98550890D02*
X102694286Y-98931842D01*
X102694286Y-98931842D02*
X102741905Y-99027080D01*
X102741905Y-99027080D02*
X102789524Y-99074700D01*
X102789524Y-99074700D02*
X102884762Y-99122319D01*
X102884762Y-99122319D02*
X103075238Y-99122319D01*
X103075238Y-99122319D02*
X103170476Y-99074700D01*
X103170476Y-99074700D02*
X103218095Y-99027080D01*
X103218095Y-99027080D02*
X103265714Y-98931842D01*
X103265714Y-98931842D02*
X103265714Y-98693747D01*
X103265714Y-98693747D02*
X103218095Y-98598509D01*
X103218095Y-98598509D02*
X103170476Y-98550890D01*
X103170476Y-98550890D02*
X103075238Y-98503271D01*
X103075238Y-98503271D02*
X102884762Y-98503271D01*
X102884762Y-98503271D02*
X102789524Y-98550890D01*
X102789524Y-98550890D02*
X102741905Y-98598509D01*
X102741905Y-98598509D02*
X102694286Y-98693747D01*
X101303333Y-102809579D02*
X101255714Y-102857199D01*
X101255714Y-102857199D02*
X101112857Y-102904818D01*
X101112857Y-102904818D02*
X101017619Y-102904818D01*
X101017619Y-102904818D02*
X100874762Y-102857199D01*
X100874762Y-102857199D02*
X100779524Y-102761960D01*
X100779524Y-102761960D02*
X100731905Y-102666722D01*
X100731905Y-102666722D02*
X100684286Y-102476246D01*
X100684286Y-102476246D02*
X100684286Y-102333389D01*
X100684286Y-102333389D02*
X100731905Y-102142913D01*
X100731905Y-102142913D02*
X100779524Y-102047675D01*
X100779524Y-102047675D02*
X100874762Y-101952437D01*
X100874762Y-101952437D02*
X101017619Y-101904818D01*
X101017619Y-101904818D02*
X101112857Y-101904818D01*
X101112857Y-101904818D02*
X101255714Y-101952437D01*
X101255714Y-101952437D02*
X101303333Y-102000056D01*
X102160476Y-102238151D02*
X102160476Y-102904818D01*
X101922381Y-101857199D02*
X101684286Y-102571484D01*
X101684286Y-102571484D02*
X102303333Y-102571484D01*
X127563394Y-59466068D02*
X127230061Y-58989877D01*
X126991966Y-59466068D02*
X126991966Y-58466068D01*
X126991966Y-58466068D02*
X127372918Y-58466068D01*
X127372918Y-58466068D02*
X127468156Y-58513687D01*
X127468156Y-58513687D02*
X127515775Y-58561306D01*
X127515775Y-58561306D02*
X127563394Y-58656544D01*
X127563394Y-58656544D02*
X127563394Y-58799401D01*
X127563394Y-58799401D02*
X127515775Y-58894639D01*
X127515775Y-58894639D02*
X127468156Y-58942258D01*
X127468156Y-58942258D02*
X127372918Y-58989877D01*
X127372918Y-58989877D02*
X126991966Y-58989877D01*
X128515775Y-59466068D02*
X127944347Y-59466068D01*
X128230061Y-59466068D02*
X128230061Y-58466068D01*
X128230061Y-58466068D02*
X128134823Y-58608925D01*
X128134823Y-58608925D02*
X128039585Y-58704163D01*
X128039585Y-58704163D02*
X127944347Y-58751782D01*
X129372918Y-58466068D02*
X129182442Y-58466068D01*
X129182442Y-58466068D02*
X129087204Y-58513687D01*
X129087204Y-58513687D02*
X129039585Y-58561306D01*
X129039585Y-58561306D02*
X128944347Y-58704163D01*
X128944347Y-58704163D02*
X128896728Y-58894639D01*
X128896728Y-58894639D02*
X128896728Y-59275591D01*
X128896728Y-59275591D02*
X128944347Y-59370829D01*
X128944347Y-59370829D02*
X128991966Y-59418449D01*
X128991966Y-59418449D02*
X129087204Y-59466068D01*
X129087204Y-59466068D02*
X129277680Y-59466068D01*
X129277680Y-59466068D02*
X129372918Y-59418449D01*
X129372918Y-59418449D02*
X129420537Y-59370829D01*
X129420537Y-59370829D02*
X129468156Y-59275591D01*
X129468156Y-59275591D02*
X129468156Y-59037496D01*
X129468156Y-59037496D02*
X129420537Y-58942258D01*
X129420537Y-58942258D02*
X129372918Y-58894639D01*
X129372918Y-58894639D02*
X129277680Y-58847020D01*
X129277680Y-58847020D02*
X129087204Y-58847020D01*
X129087204Y-58847020D02*
X128991966Y-58894639D01*
X128991966Y-58894639D02*
X128944347Y-58942258D01*
X128944347Y-58942258D02*
X128896728Y-59037496D01*
X129278230Y-89886857D02*
X129325850Y-89934476D01*
X129325850Y-89934476D02*
X129373469Y-90077333D01*
X129373469Y-90077333D02*
X129373469Y-90172571D01*
X129373469Y-90172571D02*
X129325850Y-90315428D01*
X129325850Y-90315428D02*
X129230611Y-90410666D01*
X129230611Y-90410666D02*
X129135373Y-90458285D01*
X129135373Y-90458285D02*
X128944897Y-90505904D01*
X128944897Y-90505904D02*
X128802040Y-90505904D01*
X128802040Y-90505904D02*
X128611564Y-90458285D01*
X128611564Y-90458285D02*
X128516326Y-90410666D01*
X128516326Y-90410666D02*
X128421088Y-90315428D01*
X128421088Y-90315428D02*
X128373469Y-90172571D01*
X128373469Y-90172571D02*
X128373469Y-90077333D01*
X128373469Y-90077333D02*
X128421088Y-89934476D01*
X128421088Y-89934476D02*
X128468707Y-89886857D01*
X129373469Y-88934476D02*
X129373469Y-89505904D01*
X129373469Y-89220190D02*
X128373469Y-89220190D01*
X128373469Y-89220190D02*
X128516326Y-89315428D01*
X128516326Y-89315428D02*
X128611564Y-89410666D01*
X128611564Y-89410666D02*
X128659183Y-89505904D01*
X128706802Y-88077333D02*
X129373469Y-88077333D01*
X128325850Y-88315428D02*
X129040135Y-88553523D01*
X129040135Y-88553523D02*
X129040135Y-87934476D01*
X144004818Y-88617915D02*
X143528627Y-88951248D01*
X144004818Y-89189343D02*
X143004818Y-89189343D01*
X143004818Y-89189343D02*
X143004818Y-88808391D01*
X143004818Y-88808391D02*
X143052437Y-88713153D01*
X143052437Y-88713153D02*
X143100056Y-88665534D01*
X143100056Y-88665534D02*
X143195294Y-88617915D01*
X143195294Y-88617915D02*
X143338151Y-88617915D01*
X143338151Y-88617915D02*
X143433389Y-88665534D01*
X143433389Y-88665534D02*
X143481008Y-88713153D01*
X143481008Y-88713153D02*
X143528627Y-88808391D01*
X143528627Y-88808391D02*
X143528627Y-89189343D01*
X143004818Y-87760772D02*
X143004818Y-87951248D01*
X143004818Y-87951248D02*
X143052437Y-88046486D01*
X143052437Y-88046486D02*
X143100056Y-88094105D01*
X143100056Y-88094105D02*
X143242913Y-88189343D01*
X143242913Y-88189343D02*
X143433389Y-88236962D01*
X143433389Y-88236962D02*
X143814341Y-88236962D01*
X143814341Y-88236962D02*
X143909579Y-88189343D01*
X143909579Y-88189343D02*
X143957199Y-88141724D01*
X143957199Y-88141724D02*
X144004818Y-88046486D01*
X144004818Y-88046486D02*
X144004818Y-87856010D01*
X144004818Y-87856010D02*
X143957199Y-87760772D01*
X143957199Y-87760772D02*
X143909579Y-87713153D01*
X143909579Y-87713153D02*
X143814341Y-87665534D01*
X143814341Y-87665534D02*
X143576246Y-87665534D01*
X143576246Y-87665534D02*
X143481008Y-87713153D01*
X143481008Y-87713153D02*
X143433389Y-87760772D01*
X143433389Y-87760772D02*
X143385770Y-87856010D01*
X143385770Y-87856010D02*
X143385770Y-88046486D01*
X143385770Y-88046486D02*
X143433389Y-88141724D01*
X143433389Y-88141724D02*
X143481008Y-88189343D01*
X143481008Y-88189343D02*
X143576246Y-88236962D01*
X126431394Y-61273668D02*
X126098061Y-60797477D01*
X125859966Y-61273668D02*
X125859966Y-60273668D01*
X125859966Y-60273668D02*
X126240918Y-60273668D01*
X126240918Y-60273668D02*
X126336156Y-60321287D01*
X126336156Y-60321287D02*
X126383775Y-60368906D01*
X126383775Y-60368906D02*
X126431394Y-60464144D01*
X126431394Y-60464144D02*
X126431394Y-60607001D01*
X126431394Y-60607001D02*
X126383775Y-60702239D01*
X126383775Y-60702239D02*
X126336156Y-60749858D01*
X126336156Y-60749858D02*
X126240918Y-60797477D01*
X126240918Y-60797477D02*
X125859966Y-60797477D01*
X127383775Y-61273668D02*
X126812347Y-61273668D01*
X127098061Y-61273668D02*
X127098061Y-60273668D01*
X127098061Y-60273668D02*
X127002823Y-60416525D01*
X127002823Y-60416525D02*
X126907585Y-60511763D01*
X126907585Y-60511763D02*
X126812347Y-60559382D01*
X128288537Y-60273668D02*
X127812347Y-60273668D01*
X127812347Y-60273668D02*
X127764728Y-60749858D01*
X127764728Y-60749858D02*
X127812347Y-60702239D01*
X127812347Y-60702239D02*
X127907585Y-60654620D01*
X127907585Y-60654620D02*
X128145680Y-60654620D01*
X128145680Y-60654620D02*
X128240918Y-60702239D01*
X128240918Y-60702239D02*
X128288537Y-60749858D01*
X128288537Y-60749858D02*
X128336156Y-60845096D01*
X128336156Y-60845096D02*
X128336156Y-61083191D01*
X128336156Y-61083191D02*
X128288537Y-61178429D01*
X128288537Y-61178429D02*
X128240918Y-61226049D01*
X128240918Y-61226049D02*
X128145680Y-61273668D01*
X128145680Y-61273668D02*
X127907585Y-61273668D01*
X127907585Y-61273668D02*
X127812347Y-61226049D01*
X127812347Y-61226049D02*
X127764728Y-61178429D01*
X119343470Y-90075904D02*
X120152993Y-90075904D01*
X120152993Y-90075904D02*
X120248231Y-90028285D01*
X120248231Y-90028285D02*
X120295851Y-89980666D01*
X120295851Y-89980666D02*
X120343470Y-89885428D01*
X120343470Y-89885428D02*
X120343470Y-89694952D01*
X120343470Y-89694952D02*
X120295851Y-89599714D01*
X120295851Y-89599714D02*
X120248231Y-89552095D01*
X120248231Y-89552095D02*
X120152993Y-89504476D01*
X120152993Y-89504476D02*
X119343470Y-89504476D01*
X119343470Y-89123523D02*
X119343470Y-88504476D01*
X119343470Y-88504476D02*
X119724422Y-88837809D01*
X119724422Y-88837809D02*
X119724422Y-88694952D01*
X119724422Y-88694952D02*
X119772041Y-88599714D01*
X119772041Y-88599714D02*
X119819660Y-88552095D01*
X119819660Y-88552095D02*
X119914898Y-88504476D01*
X119914898Y-88504476D02*
X120152993Y-88504476D01*
X120152993Y-88504476D02*
X120248231Y-88552095D01*
X120248231Y-88552095D02*
X120295851Y-88599714D01*
X120295851Y-88599714D02*
X120343470Y-88694952D01*
X120343470Y-88694952D02*
X120343470Y-88980666D01*
X120343470Y-88980666D02*
X120295851Y-89075904D01*
X120295851Y-89075904D02*
X120248231Y-89123523D01*
X124161071Y-57454107D02*
X123684880Y-57787440D01*
X124161071Y-58025535D02*
X123161071Y-58025535D01*
X123161071Y-58025535D02*
X123161071Y-57644583D01*
X123161071Y-57644583D02*
X123208690Y-57549345D01*
X123208690Y-57549345D02*
X123256309Y-57501726D01*
X123256309Y-57501726D02*
X123351547Y-57454107D01*
X123351547Y-57454107D02*
X123494404Y-57454107D01*
X123494404Y-57454107D02*
X123589642Y-57501726D01*
X123589642Y-57501726D02*
X123637261Y-57549345D01*
X123637261Y-57549345D02*
X123684880Y-57644583D01*
X123684880Y-57644583D02*
X123684880Y-58025535D01*
X124161071Y-56501726D02*
X124161071Y-57073154D01*
X124161071Y-56787440D02*
X123161071Y-56787440D01*
X123161071Y-56787440D02*
X123303928Y-56882678D01*
X123303928Y-56882678D02*
X123399166Y-56977916D01*
X123399166Y-56977916D02*
X123446785Y-57073154D01*
X123161071Y-56168392D02*
X123161071Y-55501726D01*
X123161071Y-55501726D02*
X124161071Y-55930297D01*
X114859580Y-98142857D02*
X114907200Y-98190476D01*
X114907200Y-98190476D02*
X114954819Y-98333333D01*
X114954819Y-98333333D02*
X114954819Y-98428571D01*
X114954819Y-98428571D02*
X114907200Y-98571428D01*
X114907200Y-98571428D02*
X114811961Y-98666666D01*
X114811961Y-98666666D02*
X114716723Y-98714285D01*
X114716723Y-98714285D02*
X114526247Y-98761904D01*
X114526247Y-98761904D02*
X114383390Y-98761904D01*
X114383390Y-98761904D02*
X114192914Y-98714285D01*
X114192914Y-98714285D02*
X114097676Y-98666666D01*
X114097676Y-98666666D02*
X114002438Y-98571428D01*
X114002438Y-98571428D02*
X113954819Y-98428571D01*
X113954819Y-98428571D02*
X113954819Y-98333333D01*
X113954819Y-98333333D02*
X114002438Y-98190476D01*
X114002438Y-98190476D02*
X114050057Y-98142857D01*
X114954819Y-97190476D02*
X114954819Y-97761904D01*
X114954819Y-97476190D02*
X113954819Y-97476190D01*
X113954819Y-97476190D02*
X114097676Y-97571428D01*
X114097676Y-97571428D02*
X114192914Y-97666666D01*
X114192914Y-97666666D02*
X114240533Y-97761904D01*
X113954819Y-96571428D02*
X113954819Y-96476190D01*
X113954819Y-96476190D02*
X114002438Y-96380952D01*
X114002438Y-96380952D02*
X114050057Y-96333333D01*
X114050057Y-96333333D02*
X114145295Y-96285714D01*
X114145295Y-96285714D02*
X114335771Y-96238095D01*
X114335771Y-96238095D02*
X114573866Y-96238095D01*
X114573866Y-96238095D02*
X114764342Y-96285714D01*
X114764342Y-96285714D02*
X114859580Y-96333333D01*
X114859580Y-96333333D02*
X114907200Y-96380952D01*
X114907200Y-96380952D02*
X114954819Y-96476190D01*
X114954819Y-96476190D02*
X114954819Y-96571428D01*
X114954819Y-96571428D02*
X114907200Y-96666666D01*
X114907200Y-96666666D02*
X114859580Y-96714285D01*
X114859580Y-96714285D02*
X114764342Y-96761904D01*
X114764342Y-96761904D02*
X114573866Y-96809523D01*
X114573866Y-96809523D02*
X114335771Y-96809523D01*
X114335771Y-96809523D02*
X114145295Y-96761904D01*
X114145295Y-96761904D02*
X114050057Y-96714285D01*
X114050057Y-96714285D02*
X114002438Y-96666666D01*
X114002438Y-96666666D02*
X113954819Y-96571428D01*
X121339585Y-73366069D02*
X120863395Y-73366069D01*
X120863395Y-73366069D02*
X120863395Y-72366069D01*
X121625300Y-72461307D02*
X121672919Y-72413688D01*
X121672919Y-72413688D02*
X121768157Y-72366069D01*
X121768157Y-72366069D02*
X122006252Y-72366069D01*
X122006252Y-72366069D02*
X122101490Y-72413688D01*
X122101490Y-72413688D02*
X122149109Y-72461307D01*
X122149109Y-72461307D02*
X122196728Y-72556545D01*
X122196728Y-72556545D02*
X122196728Y-72651783D01*
X122196728Y-72651783D02*
X122149109Y-72794640D01*
X122149109Y-72794640D02*
X121577681Y-73366069D01*
X121577681Y-73366069D02*
X122196728Y-73366069D01*
X90947142Y-94174819D02*
X90613809Y-93698628D01*
X90375714Y-94174819D02*
X90375714Y-93174819D01*
X90375714Y-93174819D02*
X90756666Y-93174819D01*
X90756666Y-93174819D02*
X90851904Y-93222438D01*
X90851904Y-93222438D02*
X90899523Y-93270057D01*
X90899523Y-93270057D02*
X90947142Y-93365295D01*
X90947142Y-93365295D02*
X90947142Y-93508152D01*
X90947142Y-93508152D02*
X90899523Y-93603390D01*
X90899523Y-93603390D02*
X90851904Y-93651009D01*
X90851904Y-93651009D02*
X90756666Y-93698628D01*
X90756666Y-93698628D02*
X90375714Y-93698628D01*
X91899523Y-94174819D02*
X91328095Y-94174819D01*
X91613809Y-94174819D02*
X91613809Y-93174819D01*
X91613809Y-93174819D02*
X91518571Y-93317676D01*
X91518571Y-93317676D02*
X91423333Y-93412914D01*
X91423333Y-93412914D02*
X91328095Y-93460533D01*
X92851904Y-94174819D02*
X92280476Y-94174819D01*
X92566190Y-94174819D02*
X92566190Y-93174819D01*
X92566190Y-93174819D02*
X92470952Y-93317676D01*
X92470952Y-93317676D02*
X92375714Y-93412914D01*
X92375714Y-93412914D02*
X92280476Y-93460533D01*
X138107142Y-69954819D02*
X137773809Y-69478628D01*
X137535714Y-69954819D02*
X137535714Y-68954819D01*
X137535714Y-68954819D02*
X137916666Y-68954819D01*
X137916666Y-68954819D02*
X138011904Y-69002438D01*
X138011904Y-69002438D02*
X138059523Y-69050057D01*
X138059523Y-69050057D02*
X138107142Y-69145295D01*
X138107142Y-69145295D02*
X138107142Y-69288152D01*
X138107142Y-69288152D02*
X138059523Y-69383390D01*
X138059523Y-69383390D02*
X138011904Y-69431009D01*
X138011904Y-69431009D02*
X137916666Y-69478628D01*
X137916666Y-69478628D02*
X137535714Y-69478628D01*
X139059523Y-69954819D02*
X138488095Y-69954819D01*
X138773809Y-69954819D02*
X138773809Y-68954819D01*
X138773809Y-68954819D02*
X138678571Y-69097676D01*
X138678571Y-69097676D02*
X138583333Y-69192914D01*
X138583333Y-69192914D02*
X138488095Y-69240533D01*
X139630952Y-69383390D02*
X139535714Y-69335771D01*
X139535714Y-69335771D02*
X139488095Y-69288152D01*
X139488095Y-69288152D02*
X139440476Y-69192914D01*
X139440476Y-69192914D02*
X139440476Y-69145295D01*
X139440476Y-69145295D02*
X139488095Y-69050057D01*
X139488095Y-69050057D02*
X139535714Y-69002438D01*
X139535714Y-69002438D02*
X139630952Y-68954819D01*
X139630952Y-68954819D02*
X139821428Y-68954819D01*
X139821428Y-68954819D02*
X139916666Y-69002438D01*
X139916666Y-69002438D02*
X139964285Y-69050057D01*
X139964285Y-69050057D02*
X140011904Y-69145295D01*
X140011904Y-69145295D02*
X140011904Y-69192914D01*
X140011904Y-69192914D02*
X139964285Y-69288152D01*
X139964285Y-69288152D02*
X139916666Y-69335771D01*
X139916666Y-69335771D02*
X139821428Y-69383390D01*
X139821428Y-69383390D02*
X139630952Y-69383390D01*
X139630952Y-69383390D02*
X139535714Y-69431009D01*
X139535714Y-69431009D02*
X139488095Y-69478628D01*
X139488095Y-69478628D02*
X139440476Y-69573866D01*
X139440476Y-69573866D02*
X139440476Y-69764342D01*
X139440476Y-69764342D02*
X139488095Y-69859580D01*
X139488095Y-69859580D02*
X139535714Y-69907200D01*
X139535714Y-69907200D02*
X139630952Y-69954819D01*
X139630952Y-69954819D02*
X139821428Y-69954819D01*
X139821428Y-69954819D02*
X139916666Y-69907200D01*
X139916666Y-69907200D02*
X139964285Y-69859580D01*
X139964285Y-69859580D02*
X140011904Y-69764342D01*
X140011904Y-69764342D02*
X140011904Y-69573866D01*
X140011904Y-69573866D02*
X139964285Y-69478628D01*
X139964285Y-69478628D02*
X139916666Y-69431009D01*
X139916666Y-69431009D02*
X139821428Y-69383390D01*
X105857142Y-72359580D02*
X105809523Y-72407200D01*
X105809523Y-72407200D02*
X105666666Y-72454819D01*
X105666666Y-72454819D02*
X105571428Y-72454819D01*
X105571428Y-72454819D02*
X105428571Y-72407200D01*
X105428571Y-72407200D02*
X105333333Y-72311961D01*
X105333333Y-72311961D02*
X105285714Y-72216723D01*
X105285714Y-72216723D02*
X105238095Y-72026247D01*
X105238095Y-72026247D02*
X105238095Y-71883390D01*
X105238095Y-71883390D02*
X105285714Y-71692914D01*
X105285714Y-71692914D02*
X105333333Y-71597676D01*
X105333333Y-71597676D02*
X105428571Y-71502438D01*
X105428571Y-71502438D02*
X105571428Y-71454819D01*
X105571428Y-71454819D02*
X105666666Y-71454819D01*
X105666666Y-71454819D02*
X105809523Y-71502438D01*
X105809523Y-71502438D02*
X105857142Y-71550057D01*
X106809523Y-72454819D02*
X106238095Y-72454819D01*
X106523809Y-72454819D02*
X106523809Y-71454819D01*
X106523809Y-71454819D02*
X106428571Y-71597676D01*
X106428571Y-71597676D02*
X106333333Y-71692914D01*
X106333333Y-71692914D02*
X106238095Y-71740533D01*
X107666666Y-71454819D02*
X107476190Y-71454819D01*
X107476190Y-71454819D02*
X107380952Y-71502438D01*
X107380952Y-71502438D02*
X107333333Y-71550057D01*
X107333333Y-71550057D02*
X107238095Y-71692914D01*
X107238095Y-71692914D02*
X107190476Y-71883390D01*
X107190476Y-71883390D02*
X107190476Y-72264342D01*
X107190476Y-72264342D02*
X107238095Y-72359580D01*
X107238095Y-72359580D02*
X107285714Y-72407200D01*
X107285714Y-72407200D02*
X107380952Y-72454819D01*
X107380952Y-72454819D02*
X107571428Y-72454819D01*
X107571428Y-72454819D02*
X107666666Y-72407200D01*
X107666666Y-72407200D02*
X107714285Y-72359580D01*
X107714285Y-72359580D02*
X107761904Y-72264342D01*
X107761904Y-72264342D02*
X107761904Y-72026247D01*
X107761904Y-72026247D02*
X107714285Y-71931009D01*
X107714285Y-71931009D02*
X107666666Y-71883390D01*
X107666666Y-71883390D02*
X107571428Y-71835771D01*
X107571428Y-71835771D02*
X107380952Y-71835771D01*
X107380952Y-71835771D02*
X107285714Y-71883390D01*
X107285714Y-71883390D02*
X107238095Y-71931009D01*
X107238095Y-71931009D02*
X107190476Y-72026247D01*
X76495833Y-90954819D02*
X76162500Y-90478628D01*
X75924405Y-90954819D02*
X75924405Y-89954819D01*
X75924405Y-89954819D02*
X76305357Y-89954819D01*
X76305357Y-89954819D02*
X76400595Y-90002438D01*
X76400595Y-90002438D02*
X76448214Y-90050057D01*
X76448214Y-90050057D02*
X76495833Y-90145295D01*
X76495833Y-90145295D02*
X76495833Y-90288152D01*
X76495833Y-90288152D02*
X76448214Y-90383390D01*
X76448214Y-90383390D02*
X76400595Y-90431009D01*
X76400595Y-90431009D02*
X76305357Y-90478628D01*
X76305357Y-90478628D02*
X75924405Y-90478628D01*
X77448214Y-90954819D02*
X76876786Y-90954819D01*
X77162500Y-90954819D02*
X77162500Y-89954819D01*
X77162500Y-89954819D02*
X77067262Y-90097676D01*
X77067262Y-90097676D02*
X76972024Y-90192914D01*
X76972024Y-90192914D02*
X76876786Y-90240533D01*
X118464819Y-95199166D02*
X118464819Y-95675356D01*
X118464819Y-95675356D02*
X117464819Y-95675356D01*
X117798152Y-94437261D02*
X118464819Y-94437261D01*
X117417200Y-94675356D02*
X118131485Y-94913451D01*
X118131485Y-94913451D02*
X118131485Y-94294404D01*
X139541905Y-57044819D02*
X139541905Y-56044819D01*
X139541905Y-56044819D02*
X139780000Y-56044819D01*
X139780000Y-56044819D02*
X139922857Y-56092438D01*
X139922857Y-56092438D02*
X140018095Y-56187676D01*
X140018095Y-56187676D02*
X140065714Y-56282914D01*
X140065714Y-56282914D02*
X140113333Y-56473390D01*
X140113333Y-56473390D02*
X140113333Y-56616247D01*
X140113333Y-56616247D02*
X140065714Y-56806723D01*
X140065714Y-56806723D02*
X140018095Y-56901961D01*
X140018095Y-56901961D02*
X139922857Y-56997200D01*
X139922857Y-56997200D02*
X139780000Y-57044819D01*
X139780000Y-57044819D02*
X139541905Y-57044819D01*
X140970476Y-56378152D02*
X140970476Y-57044819D01*
X140732381Y-55997200D02*
X140494286Y-56711485D01*
X140494286Y-56711485D02*
X141113333Y-56711485D01*
X94859580Y-68142857D02*
X94907200Y-68190476D01*
X94907200Y-68190476D02*
X94954819Y-68333333D01*
X94954819Y-68333333D02*
X94954819Y-68428571D01*
X94954819Y-68428571D02*
X94907200Y-68571428D01*
X94907200Y-68571428D02*
X94811961Y-68666666D01*
X94811961Y-68666666D02*
X94716723Y-68714285D01*
X94716723Y-68714285D02*
X94526247Y-68761904D01*
X94526247Y-68761904D02*
X94383390Y-68761904D01*
X94383390Y-68761904D02*
X94192914Y-68714285D01*
X94192914Y-68714285D02*
X94097676Y-68666666D01*
X94097676Y-68666666D02*
X94002438Y-68571428D01*
X94002438Y-68571428D02*
X93954819Y-68428571D01*
X93954819Y-68428571D02*
X93954819Y-68333333D01*
X93954819Y-68333333D02*
X94002438Y-68190476D01*
X94002438Y-68190476D02*
X94050057Y-68142857D01*
X93954819Y-67809523D02*
X93954819Y-67190476D01*
X93954819Y-67190476D02*
X94335771Y-67523809D01*
X94335771Y-67523809D02*
X94335771Y-67380952D01*
X94335771Y-67380952D02*
X94383390Y-67285714D01*
X94383390Y-67285714D02*
X94431009Y-67238095D01*
X94431009Y-67238095D02*
X94526247Y-67190476D01*
X94526247Y-67190476D02*
X94764342Y-67190476D01*
X94764342Y-67190476D02*
X94859580Y-67238095D01*
X94859580Y-67238095D02*
X94907200Y-67285714D01*
X94907200Y-67285714D02*
X94954819Y-67380952D01*
X94954819Y-67380952D02*
X94954819Y-67666666D01*
X94954819Y-67666666D02*
X94907200Y-67761904D01*
X94907200Y-67761904D02*
X94859580Y-67809523D01*
X93954819Y-66333333D02*
X93954819Y-66523809D01*
X93954819Y-66523809D02*
X94002438Y-66619047D01*
X94002438Y-66619047D02*
X94050057Y-66666666D01*
X94050057Y-66666666D02*
X94192914Y-66761904D01*
X94192914Y-66761904D02*
X94383390Y-66809523D01*
X94383390Y-66809523D02*
X94764342Y-66809523D01*
X94764342Y-66809523D02*
X94859580Y-66761904D01*
X94859580Y-66761904D02*
X94907200Y-66714285D01*
X94907200Y-66714285D02*
X94954819Y-66619047D01*
X94954819Y-66619047D02*
X94954819Y-66428571D01*
X94954819Y-66428571D02*
X94907200Y-66333333D01*
X94907200Y-66333333D02*
X94859580Y-66285714D01*
X94859580Y-66285714D02*
X94764342Y-66238095D01*
X94764342Y-66238095D02*
X94526247Y-66238095D01*
X94526247Y-66238095D02*
X94431009Y-66285714D01*
X94431009Y-66285714D02*
X94383390Y-66333333D01*
X94383390Y-66333333D02*
X94335771Y-66428571D01*
X94335771Y-66428571D02*
X94335771Y-66619047D01*
X94335771Y-66619047D02*
X94383390Y-66714285D01*
X94383390Y-66714285D02*
X94431009Y-66761904D01*
X94431009Y-66761904D02*
X94526247Y-66809523D01*
X136898095Y-78957200D02*
X137040952Y-79004819D01*
X137040952Y-79004819D02*
X137279047Y-79004819D01*
X137279047Y-79004819D02*
X137374285Y-78957200D01*
X137374285Y-78957200D02*
X137421904Y-78909580D01*
X137421904Y-78909580D02*
X137469523Y-78814342D01*
X137469523Y-78814342D02*
X137469523Y-78719104D01*
X137469523Y-78719104D02*
X137421904Y-78623866D01*
X137421904Y-78623866D02*
X137374285Y-78576247D01*
X137374285Y-78576247D02*
X137279047Y-78528628D01*
X137279047Y-78528628D02*
X137088571Y-78481009D01*
X137088571Y-78481009D02*
X136993333Y-78433390D01*
X136993333Y-78433390D02*
X136945714Y-78385771D01*
X136945714Y-78385771D02*
X136898095Y-78290533D01*
X136898095Y-78290533D02*
X136898095Y-78195295D01*
X136898095Y-78195295D02*
X136945714Y-78100057D01*
X136945714Y-78100057D02*
X136993333Y-78052438D01*
X136993333Y-78052438D02*
X137088571Y-78004819D01*
X137088571Y-78004819D02*
X137326666Y-78004819D01*
X137326666Y-78004819D02*
X137469523Y-78052438D01*
X138469523Y-78909580D02*
X138421904Y-78957200D01*
X138421904Y-78957200D02*
X138279047Y-79004819D01*
X138279047Y-79004819D02*
X138183809Y-79004819D01*
X138183809Y-79004819D02*
X138040952Y-78957200D01*
X138040952Y-78957200D02*
X137945714Y-78861961D01*
X137945714Y-78861961D02*
X137898095Y-78766723D01*
X137898095Y-78766723D02*
X137850476Y-78576247D01*
X137850476Y-78576247D02*
X137850476Y-78433390D01*
X137850476Y-78433390D02*
X137898095Y-78242914D01*
X137898095Y-78242914D02*
X137945714Y-78147676D01*
X137945714Y-78147676D02*
X138040952Y-78052438D01*
X138040952Y-78052438D02*
X138183809Y-78004819D01*
X138183809Y-78004819D02*
X138279047Y-78004819D01*
X138279047Y-78004819D02*
X138421904Y-78052438D01*
X138421904Y-78052438D02*
X138469523Y-78100057D01*
X139421904Y-79004819D02*
X138850476Y-79004819D01*
X139136190Y-79004819D02*
X139136190Y-78004819D01*
X139136190Y-78004819D02*
X139040952Y-78147676D01*
X139040952Y-78147676D02*
X138945714Y-78242914D01*
X138945714Y-78242914D02*
X138850476Y-78290533D01*
D11*
X65767780Y-65383810D02*
X66767780Y-65383810D01*
X65863019Y-66431428D02*
X65815400Y-66383809D01*
X65815400Y-66383809D02*
X65767780Y-66240952D01*
X65767780Y-66240952D02*
X65767780Y-66145714D01*
X65767780Y-66145714D02*
X65815400Y-66002857D01*
X65815400Y-66002857D02*
X65910638Y-65907619D01*
X65910638Y-65907619D02*
X66005876Y-65860000D01*
X66005876Y-65860000D02*
X66196352Y-65812381D01*
X66196352Y-65812381D02*
X66339209Y-65812381D01*
X66339209Y-65812381D02*
X66529685Y-65860000D01*
X66529685Y-65860000D02*
X66624923Y-65907619D01*
X66624923Y-65907619D02*
X66720161Y-66002857D01*
X66720161Y-66002857D02*
X66767780Y-66145714D01*
X66767780Y-66145714D02*
X66767780Y-66240952D01*
X66767780Y-66240952D02*
X66720161Y-66383809D01*
X66720161Y-66383809D02*
X66672542Y-66431428D01*
X65767780Y-67383809D02*
X65767780Y-66812381D01*
X65767780Y-67098095D02*
X66767780Y-67098095D01*
X66767780Y-67098095D02*
X66624923Y-67002857D01*
X66624923Y-67002857D02*
X66529685Y-66907619D01*
X66529685Y-66907619D02*
X66482066Y-66812381D01*
D10*
X101847142Y-69949581D02*
X101799523Y-69997201D01*
X101799523Y-69997201D02*
X101656666Y-70044820D01*
X101656666Y-70044820D02*
X101561428Y-70044820D01*
X101561428Y-70044820D02*
X101418571Y-69997201D01*
X101418571Y-69997201D02*
X101323333Y-69901962D01*
X101323333Y-69901962D02*
X101275714Y-69806724D01*
X101275714Y-69806724D02*
X101228095Y-69616248D01*
X101228095Y-69616248D02*
X101228095Y-69473391D01*
X101228095Y-69473391D02*
X101275714Y-69282915D01*
X101275714Y-69282915D02*
X101323333Y-69187677D01*
X101323333Y-69187677D02*
X101418571Y-69092439D01*
X101418571Y-69092439D02*
X101561428Y-69044820D01*
X101561428Y-69044820D02*
X101656666Y-69044820D01*
X101656666Y-69044820D02*
X101799523Y-69092439D01*
X101799523Y-69092439D02*
X101847142Y-69140058D01*
X102180476Y-69044820D02*
X102799523Y-69044820D01*
X102799523Y-69044820D02*
X102466190Y-69425772D01*
X102466190Y-69425772D02*
X102609047Y-69425772D01*
X102609047Y-69425772D02*
X102704285Y-69473391D01*
X102704285Y-69473391D02*
X102751904Y-69521010D01*
X102751904Y-69521010D02*
X102799523Y-69616248D01*
X102799523Y-69616248D02*
X102799523Y-69854343D01*
X102799523Y-69854343D02*
X102751904Y-69949581D01*
X102751904Y-69949581D02*
X102704285Y-69997201D01*
X102704285Y-69997201D02*
X102609047Y-70044820D01*
X102609047Y-70044820D02*
X102323333Y-70044820D01*
X102323333Y-70044820D02*
X102228095Y-69997201D01*
X102228095Y-69997201D02*
X102180476Y-69949581D01*
X103180476Y-69140058D02*
X103228095Y-69092439D01*
X103228095Y-69092439D02*
X103323333Y-69044820D01*
X103323333Y-69044820D02*
X103561428Y-69044820D01*
X103561428Y-69044820D02*
X103656666Y-69092439D01*
X103656666Y-69092439D02*
X103704285Y-69140058D01*
X103704285Y-69140058D02*
X103751904Y-69235296D01*
X103751904Y-69235296D02*
X103751904Y-69330534D01*
X103751904Y-69330534D02*
X103704285Y-69473391D01*
X103704285Y-69473391D02*
X103132857Y-70044820D01*
X103132857Y-70044820D02*
X103751904Y-70044820D01*
X91335580Y-56142857D02*
X91383200Y-56190476D01*
X91383200Y-56190476D02*
X91430819Y-56333333D01*
X91430819Y-56333333D02*
X91430819Y-56428571D01*
X91430819Y-56428571D02*
X91383200Y-56571428D01*
X91383200Y-56571428D02*
X91287961Y-56666666D01*
X91287961Y-56666666D02*
X91192723Y-56714285D01*
X91192723Y-56714285D02*
X91002247Y-56761904D01*
X91002247Y-56761904D02*
X90859390Y-56761904D01*
X90859390Y-56761904D02*
X90668914Y-56714285D01*
X90668914Y-56714285D02*
X90573676Y-56666666D01*
X90573676Y-56666666D02*
X90478438Y-56571428D01*
X90478438Y-56571428D02*
X90430819Y-56428571D01*
X90430819Y-56428571D02*
X90430819Y-56333333D01*
X90430819Y-56333333D02*
X90478438Y-56190476D01*
X90478438Y-56190476D02*
X90526057Y-56142857D01*
X90526057Y-55761904D02*
X90478438Y-55714285D01*
X90478438Y-55714285D02*
X90430819Y-55619047D01*
X90430819Y-55619047D02*
X90430819Y-55380952D01*
X90430819Y-55380952D02*
X90478438Y-55285714D01*
X90478438Y-55285714D02*
X90526057Y-55238095D01*
X90526057Y-55238095D02*
X90621295Y-55190476D01*
X90621295Y-55190476D02*
X90716533Y-55190476D01*
X90716533Y-55190476D02*
X90859390Y-55238095D01*
X90859390Y-55238095D02*
X91430819Y-55809523D01*
X91430819Y-55809523D02*
X91430819Y-55190476D01*
X90430819Y-54285714D02*
X90430819Y-54761904D01*
X90430819Y-54761904D02*
X90907009Y-54809523D01*
X90907009Y-54809523D02*
X90859390Y-54761904D01*
X90859390Y-54761904D02*
X90811771Y-54666666D01*
X90811771Y-54666666D02*
X90811771Y-54428571D01*
X90811771Y-54428571D02*
X90859390Y-54333333D01*
X90859390Y-54333333D02*
X90907009Y-54285714D01*
X90907009Y-54285714D02*
X91002247Y-54238095D01*
X91002247Y-54238095D02*
X91240342Y-54238095D01*
X91240342Y-54238095D02*
X91335580Y-54285714D01*
X91335580Y-54285714D02*
X91383200Y-54333333D01*
X91383200Y-54333333D02*
X91430819Y-54428571D01*
X91430819Y-54428571D02*
X91430819Y-54666666D01*
X91430819Y-54666666D02*
X91383200Y-54761904D01*
X91383200Y-54761904D02*
X91335580Y-54809523D01*
X96261905Y-65904819D02*
X96261905Y-64904819D01*
X96261905Y-64904819D02*
X96500000Y-64904819D01*
X96500000Y-64904819D02*
X96642857Y-64952438D01*
X96642857Y-64952438D02*
X96738095Y-65047676D01*
X96738095Y-65047676D02*
X96785714Y-65142914D01*
X96785714Y-65142914D02*
X96833333Y-65333390D01*
X96833333Y-65333390D02*
X96833333Y-65476247D01*
X96833333Y-65476247D02*
X96785714Y-65666723D01*
X96785714Y-65666723D02*
X96738095Y-65761961D01*
X96738095Y-65761961D02*
X96642857Y-65857200D01*
X96642857Y-65857200D02*
X96500000Y-65904819D01*
X96500000Y-65904819D02*
X96261905Y-65904819D01*
X97690476Y-64904819D02*
X97500000Y-64904819D01*
X97500000Y-64904819D02*
X97404762Y-64952438D01*
X97404762Y-64952438D02*
X97357143Y-65000057D01*
X97357143Y-65000057D02*
X97261905Y-65142914D01*
X97261905Y-65142914D02*
X97214286Y-65333390D01*
X97214286Y-65333390D02*
X97214286Y-65714342D01*
X97214286Y-65714342D02*
X97261905Y-65809580D01*
X97261905Y-65809580D02*
X97309524Y-65857200D01*
X97309524Y-65857200D02*
X97404762Y-65904819D01*
X97404762Y-65904819D02*
X97595238Y-65904819D01*
X97595238Y-65904819D02*
X97690476Y-65857200D01*
X97690476Y-65857200D02*
X97738095Y-65809580D01*
X97738095Y-65809580D02*
X97785714Y-65714342D01*
X97785714Y-65714342D02*
X97785714Y-65476247D01*
X97785714Y-65476247D02*
X97738095Y-65381009D01*
X97738095Y-65381009D02*
X97690476Y-65333390D01*
X97690476Y-65333390D02*
X97595238Y-65285771D01*
X97595238Y-65285771D02*
X97404762Y-65285771D01*
X97404762Y-65285771D02*
X97309524Y-65333390D01*
X97309524Y-65333390D02*
X97261905Y-65381009D01*
X97261905Y-65381009D02*
X97214286Y-65476247D01*
X119035831Y-58654107D02*
X119083451Y-58701726D01*
X119083451Y-58701726D02*
X119131070Y-58844583D01*
X119131070Y-58844583D02*
X119131070Y-58939821D01*
X119131070Y-58939821D02*
X119083451Y-59082678D01*
X119083451Y-59082678D02*
X118988212Y-59177916D01*
X118988212Y-59177916D02*
X118892974Y-59225535D01*
X118892974Y-59225535D02*
X118702498Y-59273154D01*
X118702498Y-59273154D02*
X118559641Y-59273154D01*
X118559641Y-59273154D02*
X118369165Y-59225535D01*
X118369165Y-59225535D02*
X118273927Y-59177916D01*
X118273927Y-59177916D02*
X118178689Y-59082678D01*
X118178689Y-59082678D02*
X118131070Y-58939821D01*
X118131070Y-58939821D02*
X118131070Y-58844583D01*
X118131070Y-58844583D02*
X118178689Y-58701726D01*
X118178689Y-58701726D02*
X118226308Y-58654107D01*
X119131070Y-57701726D02*
X119131070Y-58273154D01*
X119131070Y-57987440D02*
X118131070Y-57987440D01*
X118131070Y-57987440D02*
X118273927Y-58082678D01*
X118273927Y-58082678D02*
X118369165Y-58177916D01*
X118369165Y-58177916D02*
X118416784Y-58273154D01*
X119131070Y-57225535D02*
X119131070Y-57035059D01*
X119131070Y-57035059D02*
X119083451Y-56939821D01*
X119083451Y-56939821D02*
X119035831Y-56892202D01*
X119035831Y-56892202D02*
X118892974Y-56796964D01*
X118892974Y-56796964D02*
X118702498Y-56749345D01*
X118702498Y-56749345D02*
X118321546Y-56749345D01*
X118321546Y-56749345D02*
X118226308Y-56796964D01*
X118226308Y-56796964D02*
X118178689Y-56844583D01*
X118178689Y-56844583D02*
X118131070Y-56939821D01*
X118131070Y-56939821D02*
X118131070Y-57130297D01*
X118131070Y-57130297D02*
X118178689Y-57225535D01*
X118178689Y-57225535D02*
X118226308Y-57273154D01*
X118226308Y-57273154D02*
X118321546Y-57320773D01*
X118321546Y-57320773D02*
X118559641Y-57320773D01*
X118559641Y-57320773D02*
X118654879Y-57273154D01*
X118654879Y-57273154D02*
X118702498Y-57225535D01*
X118702498Y-57225535D02*
X118750117Y-57130297D01*
X118750117Y-57130297D02*
X118750117Y-56939821D01*
X118750117Y-56939821D02*
X118702498Y-56844583D01*
X118702498Y-56844583D02*
X118654879Y-56796964D01*
X118654879Y-56796964D02*
X118559641Y-56749345D01*
X99214285Y-39431009D02*
X99357142Y-39478628D01*
X99357142Y-39478628D02*
X99404761Y-39526247D01*
X99404761Y-39526247D02*
X99452380Y-39621485D01*
X99452380Y-39621485D02*
X99452380Y-39764342D01*
X99452380Y-39764342D02*
X99404761Y-39859580D01*
X99404761Y-39859580D02*
X99357142Y-39907200D01*
X99357142Y-39907200D02*
X99261904Y-39954819D01*
X99261904Y-39954819D02*
X98880952Y-39954819D01*
X98880952Y-39954819D02*
X98880952Y-38954819D01*
X98880952Y-38954819D02*
X99214285Y-38954819D01*
X99214285Y-38954819D02*
X99309523Y-39002438D01*
X99309523Y-39002438D02*
X99357142Y-39050057D01*
X99357142Y-39050057D02*
X99404761Y-39145295D01*
X99404761Y-39145295D02*
X99404761Y-39240533D01*
X99404761Y-39240533D02*
X99357142Y-39335771D01*
X99357142Y-39335771D02*
X99309523Y-39383390D01*
X99309523Y-39383390D02*
X99214285Y-39431009D01*
X99214285Y-39431009D02*
X98880952Y-39431009D01*
X99738095Y-38954819D02*
X100309523Y-38954819D01*
X100023809Y-39954819D02*
X100023809Y-38954819D01*
X101166666Y-39954819D02*
X100595238Y-39954819D01*
X100880952Y-39954819D02*
X100880952Y-38954819D01*
X100880952Y-38954819D02*
X100785714Y-39097676D01*
X100785714Y-39097676D02*
X100690476Y-39192914D01*
X100690476Y-39192914D02*
X100595238Y-39240533D01*
X102447142Y-60344819D02*
X102113809Y-59868628D01*
X101875714Y-60344819D02*
X101875714Y-59344819D01*
X101875714Y-59344819D02*
X102256666Y-59344819D01*
X102256666Y-59344819D02*
X102351904Y-59392438D01*
X102351904Y-59392438D02*
X102399523Y-59440057D01*
X102399523Y-59440057D02*
X102447142Y-59535295D01*
X102447142Y-59535295D02*
X102447142Y-59678152D01*
X102447142Y-59678152D02*
X102399523Y-59773390D01*
X102399523Y-59773390D02*
X102351904Y-59821009D01*
X102351904Y-59821009D02*
X102256666Y-59868628D01*
X102256666Y-59868628D02*
X101875714Y-59868628D01*
X102828095Y-59440057D02*
X102875714Y-59392438D01*
X102875714Y-59392438D02*
X102970952Y-59344819D01*
X102970952Y-59344819D02*
X103209047Y-59344819D01*
X103209047Y-59344819D02*
X103304285Y-59392438D01*
X103304285Y-59392438D02*
X103351904Y-59440057D01*
X103351904Y-59440057D02*
X103399523Y-59535295D01*
X103399523Y-59535295D02*
X103399523Y-59630533D01*
X103399523Y-59630533D02*
X103351904Y-59773390D01*
X103351904Y-59773390D02*
X102780476Y-60344819D01*
X102780476Y-60344819D02*
X103399523Y-60344819D01*
X103732857Y-59344819D02*
X104351904Y-59344819D01*
X104351904Y-59344819D02*
X104018571Y-59725771D01*
X104018571Y-59725771D02*
X104161428Y-59725771D01*
X104161428Y-59725771D02*
X104256666Y-59773390D01*
X104256666Y-59773390D02*
X104304285Y-59821009D01*
X104304285Y-59821009D02*
X104351904Y-59916247D01*
X104351904Y-59916247D02*
X104351904Y-60154342D01*
X104351904Y-60154342D02*
X104304285Y-60249580D01*
X104304285Y-60249580D02*
X104256666Y-60297200D01*
X104256666Y-60297200D02*
X104161428Y-60344819D01*
X104161428Y-60344819D02*
X103875714Y-60344819D01*
X103875714Y-60344819D02*
X103780476Y-60297200D01*
X103780476Y-60297200D02*
X103732857Y-60249580D01*
X115463394Y-73670830D02*
X115415775Y-73718450D01*
X115415775Y-73718450D02*
X115272918Y-73766069D01*
X115272918Y-73766069D02*
X115177680Y-73766069D01*
X115177680Y-73766069D02*
X115034823Y-73718450D01*
X115034823Y-73718450D02*
X114939585Y-73623211D01*
X114939585Y-73623211D02*
X114891966Y-73527973D01*
X114891966Y-73527973D02*
X114844347Y-73337497D01*
X114844347Y-73337497D02*
X114844347Y-73194640D01*
X114844347Y-73194640D02*
X114891966Y-73004164D01*
X114891966Y-73004164D02*
X114939585Y-72908926D01*
X114939585Y-72908926D02*
X115034823Y-72813688D01*
X115034823Y-72813688D02*
X115177680Y-72766069D01*
X115177680Y-72766069D02*
X115272918Y-72766069D01*
X115272918Y-72766069D02*
X115415775Y-72813688D01*
X115415775Y-72813688D02*
X115463394Y-72861307D01*
X115844347Y-72861307D02*
X115891966Y-72813688D01*
X115891966Y-72813688D02*
X115987204Y-72766069D01*
X115987204Y-72766069D02*
X116225299Y-72766069D01*
X116225299Y-72766069D02*
X116320537Y-72813688D01*
X116320537Y-72813688D02*
X116368156Y-72861307D01*
X116368156Y-72861307D02*
X116415775Y-72956545D01*
X116415775Y-72956545D02*
X116415775Y-73051783D01*
X116415775Y-73051783D02*
X116368156Y-73194640D01*
X116368156Y-73194640D02*
X115796728Y-73766069D01*
X115796728Y-73766069D02*
X116415775Y-73766069D01*
X117034823Y-72766069D02*
X117130061Y-72766069D01*
X117130061Y-72766069D02*
X117225299Y-72813688D01*
X117225299Y-72813688D02*
X117272918Y-72861307D01*
X117272918Y-72861307D02*
X117320537Y-72956545D01*
X117320537Y-72956545D02*
X117368156Y-73147021D01*
X117368156Y-73147021D02*
X117368156Y-73385116D01*
X117368156Y-73385116D02*
X117320537Y-73575592D01*
X117320537Y-73575592D02*
X117272918Y-73670830D01*
X117272918Y-73670830D02*
X117225299Y-73718450D01*
X117225299Y-73718450D02*
X117130061Y-73766069D01*
X117130061Y-73766069D02*
X117034823Y-73766069D01*
X117034823Y-73766069D02*
X116939585Y-73718450D01*
X116939585Y-73718450D02*
X116891966Y-73670830D01*
X116891966Y-73670830D02*
X116844347Y-73575592D01*
X116844347Y-73575592D02*
X116796728Y-73385116D01*
X116796728Y-73385116D02*
X116796728Y-73147021D01*
X116796728Y-73147021D02*
X116844347Y-72956545D01*
X116844347Y-72956545D02*
X116891966Y-72861307D01*
X116891966Y-72861307D02*
X116939585Y-72813688D01*
X116939585Y-72813688D02*
X117034823Y-72766069D01*
X110857142Y-58204819D02*
X110523809Y-57728628D01*
X110285714Y-58204819D02*
X110285714Y-57204819D01*
X110285714Y-57204819D02*
X110666666Y-57204819D01*
X110666666Y-57204819D02*
X110761904Y-57252438D01*
X110761904Y-57252438D02*
X110809523Y-57300057D01*
X110809523Y-57300057D02*
X110857142Y-57395295D01*
X110857142Y-57395295D02*
X110857142Y-57538152D01*
X110857142Y-57538152D02*
X110809523Y-57633390D01*
X110809523Y-57633390D02*
X110761904Y-57681009D01*
X110761904Y-57681009D02*
X110666666Y-57728628D01*
X110666666Y-57728628D02*
X110285714Y-57728628D01*
X111238095Y-57300057D02*
X111285714Y-57252438D01*
X111285714Y-57252438D02*
X111380952Y-57204819D01*
X111380952Y-57204819D02*
X111619047Y-57204819D01*
X111619047Y-57204819D02*
X111714285Y-57252438D01*
X111714285Y-57252438D02*
X111761904Y-57300057D01*
X111761904Y-57300057D02*
X111809523Y-57395295D01*
X111809523Y-57395295D02*
X111809523Y-57490533D01*
X111809523Y-57490533D02*
X111761904Y-57633390D01*
X111761904Y-57633390D02*
X111190476Y-58204819D01*
X111190476Y-58204819D02*
X111809523Y-58204819D01*
X112761904Y-58204819D02*
X112190476Y-58204819D01*
X112476190Y-58204819D02*
X112476190Y-57204819D01*
X112476190Y-57204819D02*
X112380952Y-57347676D01*
X112380952Y-57347676D02*
X112285714Y-57442914D01*
X112285714Y-57442914D02*
X112190476Y-57490533D01*
X119867142Y-80229580D02*
X119819523Y-80277200D01*
X119819523Y-80277200D02*
X119676666Y-80324819D01*
X119676666Y-80324819D02*
X119581428Y-80324819D01*
X119581428Y-80324819D02*
X119438571Y-80277200D01*
X119438571Y-80277200D02*
X119343333Y-80181961D01*
X119343333Y-80181961D02*
X119295714Y-80086723D01*
X119295714Y-80086723D02*
X119248095Y-79896247D01*
X119248095Y-79896247D02*
X119248095Y-79753390D01*
X119248095Y-79753390D02*
X119295714Y-79562914D01*
X119295714Y-79562914D02*
X119343333Y-79467676D01*
X119343333Y-79467676D02*
X119438571Y-79372438D01*
X119438571Y-79372438D02*
X119581428Y-79324819D01*
X119581428Y-79324819D02*
X119676666Y-79324819D01*
X119676666Y-79324819D02*
X119819523Y-79372438D01*
X119819523Y-79372438D02*
X119867142Y-79420057D01*
X120819523Y-80324819D02*
X120248095Y-80324819D01*
X120533809Y-80324819D02*
X120533809Y-79324819D01*
X120533809Y-79324819D02*
X120438571Y-79467676D01*
X120438571Y-79467676D02*
X120343333Y-79562914D01*
X120343333Y-79562914D02*
X120248095Y-79610533D01*
X121200476Y-79420057D02*
X121248095Y-79372438D01*
X121248095Y-79372438D02*
X121343333Y-79324819D01*
X121343333Y-79324819D02*
X121581428Y-79324819D01*
X121581428Y-79324819D02*
X121676666Y-79372438D01*
X121676666Y-79372438D02*
X121724285Y-79420057D01*
X121724285Y-79420057D02*
X121771904Y-79515295D01*
X121771904Y-79515295D02*
X121771904Y-79610533D01*
X121771904Y-79610533D02*
X121724285Y-79753390D01*
X121724285Y-79753390D02*
X121152857Y-80324819D01*
X121152857Y-80324819D02*
X121771904Y-80324819D01*
X121244983Y-83600019D02*
X120911650Y-83123828D01*
X120673555Y-83600019D02*
X120673555Y-82600019D01*
X120673555Y-82600019D02*
X121054507Y-82600019D01*
X121054507Y-82600019D02*
X121149745Y-82647638D01*
X121149745Y-82647638D02*
X121197364Y-82695257D01*
X121197364Y-82695257D02*
X121244983Y-82790495D01*
X121244983Y-82790495D02*
X121244983Y-82933352D01*
X121244983Y-82933352D02*
X121197364Y-83028590D01*
X121197364Y-83028590D02*
X121149745Y-83076209D01*
X121149745Y-83076209D02*
X121054507Y-83123828D01*
X121054507Y-83123828D02*
X120673555Y-83123828D01*
X121578317Y-82600019D02*
X122197364Y-82600019D01*
X122197364Y-82600019D02*
X121864031Y-82980971D01*
X121864031Y-82980971D02*
X122006888Y-82980971D01*
X122006888Y-82980971D02*
X122102126Y-83028590D01*
X122102126Y-83028590D02*
X122149745Y-83076209D01*
X122149745Y-83076209D02*
X122197364Y-83171447D01*
X122197364Y-83171447D02*
X122197364Y-83409542D01*
X122197364Y-83409542D02*
X122149745Y-83504780D01*
X122149745Y-83504780D02*
X122102126Y-83552400D01*
X122102126Y-83552400D02*
X122006888Y-83600019D01*
X122006888Y-83600019D02*
X121721174Y-83600019D01*
X121721174Y-83600019D02*
X121625936Y-83552400D01*
X121625936Y-83552400D02*
X121578317Y-83504780D01*
X91534495Y-99133619D02*
X91534495Y-99943142D01*
X91534495Y-99943142D02*
X91582114Y-100038380D01*
X91582114Y-100038380D02*
X91629733Y-100086000D01*
X91629733Y-100086000D02*
X91724971Y-100133619D01*
X91724971Y-100133619D02*
X91915447Y-100133619D01*
X91915447Y-100133619D02*
X92010685Y-100086000D01*
X92010685Y-100086000D02*
X92058304Y-100038380D01*
X92058304Y-100038380D02*
X92105923Y-99943142D01*
X92105923Y-99943142D02*
X92105923Y-99133619D01*
X92534495Y-99228857D02*
X92582114Y-99181238D01*
X92582114Y-99181238D02*
X92677352Y-99133619D01*
X92677352Y-99133619D02*
X92915447Y-99133619D01*
X92915447Y-99133619D02*
X93010685Y-99181238D01*
X93010685Y-99181238D02*
X93058304Y-99228857D01*
X93058304Y-99228857D02*
X93105923Y-99324095D01*
X93105923Y-99324095D02*
X93105923Y-99419333D01*
X93105923Y-99419333D02*
X93058304Y-99562190D01*
X93058304Y-99562190D02*
X92486876Y-100133619D01*
X92486876Y-100133619D02*
X93105923Y-100133619D01*
X135619579Y-89064106D02*
X135667199Y-89111725D01*
X135667199Y-89111725D02*
X135714818Y-89254582D01*
X135714818Y-89254582D02*
X135714818Y-89349820D01*
X135714818Y-89349820D02*
X135667199Y-89492677D01*
X135667199Y-89492677D02*
X135571960Y-89587915D01*
X135571960Y-89587915D02*
X135476722Y-89635534D01*
X135476722Y-89635534D02*
X135286246Y-89683153D01*
X135286246Y-89683153D02*
X135143389Y-89683153D01*
X135143389Y-89683153D02*
X134952913Y-89635534D01*
X134952913Y-89635534D02*
X134857675Y-89587915D01*
X134857675Y-89587915D02*
X134762437Y-89492677D01*
X134762437Y-89492677D02*
X134714818Y-89349820D01*
X134714818Y-89349820D02*
X134714818Y-89254582D01*
X134714818Y-89254582D02*
X134762437Y-89111725D01*
X134762437Y-89111725D02*
X134810056Y-89064106D01*
X134714818Y-88730772D02*
X134714818Y-88111725D01*
X134714818Y-88111725D02*
X135095770Y-88445058D01*
X135095770Y-88445058D02*
X135095770Y-88302201D01*
X135095770Y-88302201D02*
X135143389Y-88206963D01*
X135143389Y-88206963D02*
X135191008Y-88159344D01*
X135191008Y-88159344D02*
X135286246Y-88111725D01*
X135286246Y-88111725D02*
X135524341Y-88111725D01*
X135524341Y-88111725D02*
X135619579Y-88159344D01*
X135619579Y-88159344D02*
X135667199Y-88206963D01*
X135667199Y-88206963D02*
X135714818Y-88302201D01*
X135714818Y-88302201D02*
X135714818Y-88587915D01*
X135714818Y-88587915D02*
X135667199Y-88683153D01*
X135667199Y-88683153D02*
X135619579Y-88730772D01*
X134714818Y-87206963D02*
X134714818Y-87683153D01*
X134714818Y-87683153D02*
X135191008Y-87730772D01*
X135191008Y-87730772D02*
X135143389Y-87683153D01*
X135143389Y-87683153D02*
X135095770Y-87587915D01*
X135095770Y-87587915D02*
X135095770Y-87349820D01*
X135095770Y-87349820D02*
X135143389Y-87254582D01*
X135143389Y-87254582D02*
X135191008Y-87206963D01*
X135191008Y-87206963D02*
X135286246Y-87159344D01*
X135286246Y-87159344D02*
X135524341Y-87159344D01*
X135524341Y-87159344D02*
X135619579Y-87206963D01*
X135619579Y-87206963D02*
X135667199Y-87254582D01*
X135667199Y-87254582D02*
X135714818Y-87349820D01*
X135714818Y-87349820D02*
X135714818Y-87587915D01*
X135714818Y-87587915D02*
X135667199Y-87683153D01*
X135667199Y-87683153D02*
X135619579Y-87730772D01*
X78158332Y-101994819D02*
X77824999Y-101518628D01*
X77586904Y-101994819D02*
X77586904Y-100994819D01*
X77586904Y-100994819D02*
X77967856Y-100994819D01*
X77967856Y-100994819D02*
X78063094Y-101042438D01*
X78063094Y-101042438D02*
X78110713Y-101090057D01*
X78110713Y-101090057D02*
X78158332Y-101185295D01*
X78158332Y-101185295D02*
X78158332Y-101328152D01*
X78158332Y-101328152D02*
X78110713Y-101423390D01*
X78110713Y-101423390D02*
X78063094Y-101471009D01*
X78063094Y-101471009D02*
X77967856Y-101518628D01*
X77967856Y-101518628D02*
X77586904Y-101518628D01*
X78729761Y-101423390D02*
X78634523Y-101375771D01*
X78634523Y-101375771D02*
X78586904Y-101328152D01*
X78586904Y-101328152D02*
X78539285Y-101232914D01*
X78539285Y-101232914D02*
X78539285Y-101185295D01*
X78539285Y-101185295D02*
X78586904Y-101090057D01*
X78586904Y-101090057D02*
X78634523Y-101042438D01*
X78634523Y-101042438D02*
X78729761Y-100994819D01*
X78729761Y-100994819D02*
X78920237Y-100994819D01*
X78920237Y-100994819D02*
X79015475Y-101042438D01*
X79015475Y-101042438D02*
X79063094Y-101090057D01*
X79063094Y-101090057D02*
X79110713Y-101185295D01*
X79110713Y-101185295D02*
X79110713Y-101232914D01*
X79110713Y-101232914D02*
X79063094Y-101328152D01*
X79063094Y-101328152D02*
X79015475Y-101375771D01*
X79015475Y-101375771D02*
X78920237Y-101423390D01*
X78920237Y-101423390D02*
X78729761Y-101423390D01*
X78729761Y-101423390D02*
X78634523Y-101471009D01*
X78634523Y-101471009D02*
X78586904Y-101518628D01*
X78586904Y-101518628D02*
X78539285Y-101613866D01*
X78539285Y-101613866D02*
X78539285Y-101804342D01*
X78539285Y-101804342D02*
X78586904Y-101899580D01*
X78586904Y-101899580D02*
X78634523Y-101947200D01*
X78634523Y-101947200D02*
X78729761Y-101994819D01*
X78729761Y-101994819D02*
X78920237Y-101994819D01*
X78920237Y-101994819D02*
X79015475Y-101947200D01*
X79015475Y-101947200D02*
X79063094Y-101899580D01*
X79063094Y-101899580D02*
X79110713Y-101804342D01*
X79110713Y-101804342D02*
X79110713Y-101613866D01*
X79110713Y-101613866D02*
X79063094Y-101518628D01*
X79063094Y-101518628D02*
X79015475Y-101471009D01*
X79015475Y-101471009D02*
X78920237Y-101423390D01*
X92859580Y-56142857D02*
X92907200Y-56190476D01*
X92907200Y-56190476D02*
X92954819Y-56333333D01*
X92954819Y-56333333D02*
X92954819Y-56428571D01*
X92954819Y-56428571D02*
X92907200Y-56571428D01*
X92907200Y-56571428D02*
X92811961Y-56666666D01*
X92811961Y-56666666D02*
X92716723Y-56714285D01*
X92716723Y-56714285D02*
X92526247Y-56761904D01*
X92526247Y-56761904D02*
X92383390Y-56761904D01*
X92383390Y-56761904D02*
X92192914Y-56714285D01*
X92192914Y-56714285D02*
X92097676Y-56666666D01*
X92097676Y-56666666D02*
X92002438Y-56571428D01*
X92002438Y-56571428D02*
X91954819Y-56428571D01*
X91954819Y-56428571D02*
X91954819Y-56333333D01*
X91954819Y-56333333D02*
X92002438Y-56190476D01*
X92002438Y-56190476D02*
X92050057Y-56142857D01*
X92050057Y-55761904D02*
X92002438Y-55714285D01*
X92002438Y-55714285D02*
X91954819Y-55619047D01*
X91954819Y-55619047D02*
X91954819Y-55380952D01*
X91954819Y-55380952D02*
X92002438Y-55285714D01*
X92002438Y-55285714D02*
X92050057Y-55238095D01*
X92050057Y-55238095D02*
X92145295Y-55190476D01*
X92145295Y-55190476D02*
X92240533Y-55190476D01*
X92240533Y-55190476D02*
X92383390Y-55238095D01*
X92383390Y-55238095D02*
X92954819Y-55809523D01*
X92954819Y-55809523D02*
X92954819Y-55190476D01*
X92288152Y-54333333D02*
X92954819Y-54333333D01*
X91907200Y-54571428D02*
X92621485Y-54809523D01*
X92621485Y-54809523D02*
X92621485Y-54190476D01*
X101703333Y-91839580D02*
X101655714Y-91887200D01*
X101655714Y-91887200D02*
X101512857Y-91934819D01*
X101512857Y-91934819D02*
X101417619Y-91934819D01*
X101417619Y-91934819D02*
X101274762Y-91887200D01*
X101274762Y-91887200D02*
X101179524Y-91791961D01*
X101179524Y-91791961D02*
X101131905Y-91696723D01*
X101131905Y-91696723D02*
X101084286Y-91506247D01*
X101084286Y-91506247D02*
X101084286Y-91363390D01*
X101084286Y-91363390D02*
X101131905Y-91172914D01*
X101131905Y-91172914D02*
X101179524Y-91077676D01*
X101179524Y-91077676D02*
X101274762Y-90982438D01*
X101274762Y-90982438D02*
X101417619Y-90934819D01*
X101417619Y-90934819D02*
X101512857Y-90934819D01*
X101512857Y-90934819D02*
X101655714Y-90982438D01*
X101655714Y-90982438D02*
X101703333Y-91030057D01*
X102608095Y-90934819D02*
X102131905Y-90934819D01*
X102131905Y-90934819D02*
X102084286Y-91411009D01*
X102084286Y-91411009D02*
X102131905Y-91363390D01*
X102131905Y-91363390D02*
X102227143Y-91315771D01*
X102227143Y-91315771D02*
X102465238Y-91315771D01*
X102465238Y-91315771D02*
X102560476Y-91363390D01*
X102560476Y-91363390D02*
X102608095Y-91411009D01*
X102608095Y-91411009D02*
X102655714Y-91506247D01*
X102655714Y-91506247D02*
X102655714Y-91744342D01*
X102655714Y-91744342D02*
X102608095Y-91839580D01*
X102608095Y-91839580D02*
X102560476Y-91887200D01*
X102560476Y-91887200D02*
X102465238Y-91934819D01*
X102465238Y-91934819D02*
X102227143Y-91934819D01*
X102227143Y-91934819D02*
X102131905Y-91887200D01*
X102131905Y-91887200D02*
X102084286Y-91839580D01*
X100283879Y-95545769D02*
X100760070Y-95545769D01*
X99760070Y-95879102D02*
X100283879Y-95545769D01*
X100283879Y-95545769D02*
X99760070Y-95212436D01*
X100093403Y-94450531D02*
X100760070Y-94450531D01*
X99712451Y-94688626D02*
X100426736Y-94926721D01*
X100426736Y-94926721D02*
X100426736Y-94307674D01*
X104824819Y-85061904D02*
X105634342Y-85061904D01*
X105634342Y-85061904D02*
X105729580Y-85014285D01*
X105729580Y-85014285D02*
X105777200Y-84966666D01*
X105777200Y-84966666D02*
X105824819Y-84871428D01*
X105824819Y-84871428D02*
X105824819Y-84680952D01*
X105824819Y-84680952D02*
X105777200Y-84585714D01*
X105777200Y-84585714D02*
X105729580Y-84538095D01*
X105729580Y-84538095D02*
X105634342Y-84490476D01*
X105634342Y-84490476D02*
X104824819Y-84490476D01*
X104824819Y-83585714D02*
X104824819Y-83776190D01*
X104824819Y-83776190D02*
X104872438Y-83871428D01*
X104872438Y-83871428D02*
X104920057Y-83919047D01*
X104920057Y-83919047D02*
X105062914Y-84014285D01*
X105062914Y-84014285D02*
X105253390Y-84061904D01*
X105253390Y-84061904D02*
X105634342Y-84061904D01*
X105634342Y-84061904D02*
X105729580Y-84014285D01*
X105729580Y-84014285D02*
X105777200Y-83966666D01*
X105777200Y-83966666D02*
X105824819Y-83871428D01*
X105824819Y-83871428D02*
X105824819Y-83680952D01*
X105824819Y-83680952D02*
X105777200Y-83585714D01*
X105777200Y-83585714D02*
X105729580Y-83538095D01*
X105729580Y-83538095D02*
X105634342Y-83490476D01*
X105634342Y-83490476D02*
X105396247Y-83490476D01*
X105396247Y-83490476D02*
X105301009Y-83538095D01*
X105301009Y-83538095D02*
X105253390Y-83585714D01*
X105253390Y-83585714D02*
X105205771Y-83680952D01*
X105205771Y-83680952D02*
X105205771Y-83871428D01*
X105205771Y-83871428D02*
X105253390Y-83966666D01*
X105253390Y-83966666D02*
X105301009Y-84014285D01*
X105301009Y-84014285D02*
X105396247Y-84061904D01*
X144143809Y-81938628D02*
X144143809Y-82414819D01*
X143810476Y-81414819D02*
X144143809Y-81938628D01*
X144143809Y-81938628D02*
X144477142Y-81414819D01*
X145286666Y-81414819D02*
X144810476Y-81414819D01*
X144810476Y-81414819D02*
X144762857Y-81891009D01*
X144762857Y-81891009D02*
X144810476Y-81843390D01*
X144810476Y-81843390D02*
X144905714Y-81795771D01*
X144905714Y-81795771D02*
X145143809Y-81795771D01*
X145143809Y-81795771D02*
X145239047Y-81843390D01*
X145239047Y-81843390D02*
X145286666Y-81891009D01*
X145286666Y-81891009D02*
X145334285Y-81986247D01*
X145334285Y-81986247D02*
X145334285Y-82224342D01*
X145334285Y-82224342D02*
X145286666Y-82319580D01*
X145286666Y-82319580D02*
X145239047Y-82367200D01*
X145239047Y-82367200D02*
X145143809Y-82414819D01*
X145143809Y-82414819D02*
X144905714Y-82414819D01*
X144905714Y-82414819D02*
X144810476Y-82367200D01*
X144810476Y-82367200D02*
X144762857Y-82319580D01*
X124063393Y-68770828D02*
X124015774Y-68818448D01*
X124015774Y-68818448D02*
X123872917Y-68866067D01*
X123872917Y-68866067D02*
X123777679Y-68866067D01*
X123777679Y-68866067D02*
X123634822Y-68818448D01*
X123634822Y-68818448D02*
X123539584Y-68723209D01*
X123539584Y-68723209D02*
X123491965Y-68627971D01*
X123491965Y-68627971D02*
X123444346Y-68437495D01*
X123444346Y-68437495D02*
X123444346Y-68294638D01*
X123444346Y-68294638D02*
X123491965Y-68104162D01*
X123491965Y-68104162D02*
X123539584Y-68008924D01*
X123539584Y-68008924D02*
X123634822Y-67913686D01*
X123634822Y-67913686D02*
X123777679Y-67866067D01*
X123777679Y-67866067D02*
X123872917Y-67866067D01*
X123872917Y-67866067D02*
X124015774Y-67913686D01*
X124015774Y-67913686D02*
X124063393Y-67961305D01*
X124444346Y-67961305D02*
X124491965Y-67913686D01*
X124491965Y-67913686D02*
X124587203Y-67866067D01*
X124587203Y-67866067D02*
X124825298Y-67866067D01*
X124825298Y-67866067D02*
X124920536Y-67913686D01*
X124920536Y-67913686D02*
X124968155Y-67961305D01*
X124968155Y-67961305D02*
X125015774Y-68056543D01*
X125015774Y-68056543D02*
X125015774Y-68151781D01*
X125015774Y-68151781D02*
X124968155Y-68294638D01*
X124968155Y-68294638D02*
X124396727Y-68866067D01*
X124396727Y-68866067D02*
X125015774Y-68866067D01*
X125349108Y-67866067D02*
X126015774Y-67866067D01*
X126015774Y-67866067D02*
X125587203Y-68866067D01*
X89133333Y-81354819D02*
X88800000Y-80878628D01*
X88561905Y-81354819D02*
X88561905Y-80354819D01*
X88561905Y-80354819D02*
X88942857Y-80354819D01*
X88942857Y-80354819D02*
X89038095Y-80402438D01*
X89038095Y-80402438D02*
X89085714Y-80450057D01*
X89085714Y-80450057D02*
X89133333Y-80545295D01*
X89133333Y-80545295D02*
X89133333Y-80688152D01*
X89133333Y-80688152D02*
X89085714Y-80783390D01*
X89085714Y-80783390D02*
X89038095Y-80831009D01*
X89038095Y-80831009D02*
X88942857Y-80878628D01*
X88942857Y-80878628D02*
X88561905Y-80878628D01*
X89514286Y-80450057D02*
X89561905Y-80402438D01*
X89561905Y-80402438D02*
X89657143Y-80354819D01*
X89657143Y-80354819D02*
X89895238Y-80354819D01*
X89895238Y-80354819D02*
X89990476Y-80402438D01*
X89990476Y-80402438D02*
X90038095Y-80450057D01*
X90038095Y-80450057D02*
X90085714Y-80545295D01*
X90085714Y-80545295D02*
X90085714Y-80640533D01*
X90085714Y-80640533D02*
X90038095Y-80783390D01*
X90038095Y-80783390D02*
X89466667Y-81354819D01*
X89466667Y-81354819D02*
X90085714Y-81354819D01*
X116204819Y-61892857D02*
X115728628Y-62226190D01*
X116204819Y-62464285D02*
X115204819Y-62464285D01*
X115204819Y-62464285D02*
X115204819Y-62083333D01*
X115204819Y-62083333D02*
X115252438Y-61988095D01*
X115252438Y-61988095D02*
X115300057Y-61940476D01*
X115300057Y-61940476D02*
X115395295Y-61892857D01*
X115395295Y-61892857D02*
X115538152Y-61892857D01*
X115538152Y-61892857D02*
X115633390Y-61940476D01*
X115633390Y-61940476D02*
X115681009Y-61988095D01*
X115681009Y-61988095D02*
X115728628Y-62083333D01*
X115728628Y-62083333D02*
X115728628Y-62464285D01*
X115300057Y-61511904D02*
X115252438Y-61464285D01*
X115252438Y-61464285D02*
X115204819Y-61369047D01*
X115204819Y-61369047D02*
X115204819Y-61130952D01*
X115204819Y-61130952D02*
X115252438Y-61035714D01*
X115252438Y-61035714D02*
X115300057Y-60988095D01*
X115300057Y-60988095D02*
X115395295Y-60940476D01*
X115395295Y-60940476D02*
X115490533Y-60940476D01*
X115490533Y-60940476D02*
X115633390Y-60988095D01*
X115633390Y-60988095D02*
X116204819Y-61559523D01*
X116204819Y-61559523D02*
X116204819Y-60940476D01*
X115204819Y-60321428D02*
X115204819Y-60226190D01*
X115204819Y-60226190D02*
X115252438Y-60130952D01*
X115252438Y-60130952D02*
X115300057Y-60083333D01*
X115300057Y-60083333D02*
X115395295Y-60035714D01*
X115395295Y-60035714D02*
X115585771Y-59988095D01*
X115585771Y-59988095D02*
X115823866Y-59988095D01*
X115823866Y-59988095D02*
X116014342Y-60035714D01*
X116014342Y-60035714D02*
X116109580Y-60083333D01*
X116109580Y-60083333D02*
X116157200Y-60130952D01*
X116157200Y-60130952D02*
X116204819Y-60226190D01*
X116204819Y-60226190D02*
X116204819Y-60321428D01*
X116204819Y-60321428D02*
X116157200Y-60416666D01*
X116157200Y-60416666D02*
X116109580Y-60464285D01*
X116109580Y-60464285D02*
X116014342Y-60511904D01*
X116014342Y-60511904D02*
X115823866Y-60559523D01*
X115823866Y-60559523D02*
X115585771Y-60559523D01*
X115585771Y-60559523D02*
X115395295Y-60511904D01*
X115395295Y-60511904D02*
X115300057Y-60464285D01*
X115300057Y-60464285D02*
X115252438Y-60416666D01*
X115252438Y-60416666D02*
X115204819Y-60321428D01*
X89257142Y-79559580D02*
X89209523Y-79607200D01*
X89209523Y-79607200D02*
X89066666Y-79654819D01*
X89066666Y-79654819D02*
X88971428Y-79654819D01*
X88971428Y-79654819D02*
X88828571Y-79607200D01*
X88828571Y-79607200D02*
X88733333Y-79511961D01*
X88733333Y-79511961D02*
X88685714Y-79416723D01*
X88685714Y-79416723D02*
X88638095Y-79226247D01*
X88638095Y-79226247D02*
X88638095Y-79083390D01*
X88638095Y-79083390D02*
X88685714Y-78892914D01*
X88685714Y-78892914D02*
X88733333Y-78797676D01*
X88733333Y-78797676D02*
X88828571Y-78702438D01*
X88828571Y-78702438D02*
X88971428Y-78654819D01*
X88971428Y-78654819D02*
X89066666Y-78654819D01*
X89066666Y-78654819D02*
X89209523Y-78702438D01*
X89209523Y-78702438D02*
X89257142Y-78750057D01*
X89590476Y-78654819D02*
X90209523Y-78654819D01*
X90209523Y-78654819D02*
X89876190Y-79035771D01*
X89876190Y-79035771D02*
X90019047Y-79035771D01*
X90019047Y-79035771D02*
X90114285Y-79083390D01*
X90114285Y-79083390D02*
X90161904Y-79131009D01*
X90161904Y-79131009D02*
X90209523Y-79226247D01*
X90209523Y-79226247D02*
X90209523Y-79464342D01*
X90209523Y-79464342D02*
X90161904Y-79559580D01*
X90161904Y-79559580D02*
X90114285Y-79607200D01*
X90114285Y-79607200D02*
X90019047Y-79654819D01*
X90019047Y-79654819D02*
X89733333Y-79654819D01*
X89733333Y-79654819D02*
X89638095Y-79607200D01*
X89638095Y-79607200D02*
X89590476Y-79559580D01*
X91066666Y-78988152D02*
X91066666Y-79654819D01*
X90828571Y-78607200D02*
X90590476Y-79321485D01*
X90590476Y-79321485D02*
X91209523Y-79321485D01*
X100107142Y-73609580D02*
X100059523Y-73657200D01*
X100059523Y-73657200D02*
X99916666Y-73704819D01*
X99916666Y-73704819D02*
X99821428Y-73704819D01*
X99821428Y-73704819D02*
X99678571Y-73657200D01*
X99678571Y-73657200D02*
X99583333Y-73561961D01*
X99583333Y-73561961D02*
X99535714Y-73466723D01*
X99535714Y-73466723D02*
X99488095Y-73276247D01*
X99488095Y-73276247D02*
X99488095Y-73133390D01*
X99488095Y-73133390D02*
X99535714Y-72942914D01*
X99535714Y-72942914D02*
X99583333Y-72847676D01*
X99583333Y-72847676D02*
X99678571Y-72752438D01*
X99678571Y-72752438D02*
X99821428Y-72704819D01*
X99821428Y-72704819D02*
X99916666Y-72704819D01*
X99916666Y-72704819D02*
X100059523Y-72752438D01*
X100059523Y-72752438D02*
X100107142Y-72800057D01*
X101059523Y-73704819D02*
X100488095Y-73704819D01*
X100773809Y-73704819D02*
X100773809Y-72704819D01*
X100773809Y-72704819D02*
X100678571Y-72847676D01*
X100678571Y-72847676D02*
X100583333Y-72942914D01*
X100583333Y-72942914D02*
X100488095Y-72990533D01*
X101964285Y-72704819D02*
X101488095Y-72704819D01*
X101488095Y-72704819D02*
X101440476Y-73181009D01*
X101440476Y-73181009D02*
X101488095Y-73133390D01*
X101488095Y-73133390D02*
X101583333Y-73085771D01*
X101583333Y-73085771D02*
X101821428Y-73085771D01*
X101821428Y-73085771D02*
X101916666Y-73133390D01*
X101916666Y-73133390D02*
X101964285Y-73181009D01*
X101964285Y-73181009D02*
X102011904Y-73276247D01*
X102011904Y-73276247D02*
X102011904Y-73514342D01*
X102011904Y-73514342D02*
X101964285Y-73609580D01*
X101964285Y-73609580D02*
X101916666Y-73657200D01*
X101916666Y-73657200D02*
X101821428Y-73704819D01*
X101821428Y-73704819D02*
X101583333Y-73704819D01*
X101583333Y-73704819D02*
X101488095Y-73657200D01*
X101488095Y-73657200D02*
X101440476Y-73609580D01*
X111249580Y-94286666D02*
X111297200Y-94334285D01*
X111297200Y-94334285D02*
X111344819Y-94477142D01*
X111344819Y-94477142D02*
X111344819Y-94572380D01*
X111344819Y-94572380D02*
X111297200Y-94715237D01*
X111297200Y-94715237D02*
X111201961Y-94810475D01*
X111201961Y-94810475D02*
X111106723Y-94858094D01*
X111106723Y-94858094D02*
X110916247Y-94905713D01*
X110916247Y-94905713D02*
X110773390Y-94905713D01*
X110773390Y-94905713D02*
X110582914Y-94858094D01*
X110582914Y-94858094D02*
X110487676Y-94810475D01*
X110487676Y-94810475D02*
X110392438Y-94715237D01*
X110392438Y-94715237D02*
X110344819Y-94572380D01*
X110344819Y-94572380D02*
X110344819Y-94477142D01*
X110344819Y-94477142D02*
X110392438Y-94334285D01*
X110392438Y-94334285D02*
X110440057Y-94286666D01*
X110440057Y-93905713D02*
X110392438Y-93858094D01*
X110392438Y-93858094D02*
X110344819Y-93762856D01*
X110344819Y-93762856D02*
X110344819Y-93524761D01*
X110344819Y-93524761D02*
X110392438Y-93429523D01*
X110392438Y-93429523D02*
X110440057Y-93381904D01*
X110440057Y-93381904D02*
X110535295Y-93334285D01*
X110535295Y-93334285D02*
X110630533Y-93334285D01*
X110630533Y-93334285D02*
X110773390Y-93381904D01*
X110773390Y-93381904D02*
X111344819Y-93953332D01*
X111344819Y-93953332D02*
X111344819Y-93334285D01*
X126076666Y-74309819D02*
X126076666Y-75024104D01*
X126076666Y-75024104D02*
X126029047Y-75166961D01*
X126029047Y-75166961D02*
X125933809Y-75262200D01*
X125933809Y-75262200D02*
X125790952Y-75309819D01*
X125790952Y-75309819D02*
X125695714Y-75309819D01*
X126457619Y-74309819D02*
X127076666Y-74309819D01*
X127076666Y-74309819D02*
X126743333Y-74690771D01*
X126743333Y-74690771D02*
X126886190Y-74690771D01*
X126886190Y-74690771D02*
X126981428Y-74738390D01*
X126981428Y-74738390D02*
X127029047Y-74786009D01*
X127029047Y-74786009D02*
X127076666Y-74881247D01*
X127076666Y-74881247D02*
X127076666Y-75119342D01*
X127076666Y-75119342D02*
X127029047Y-75214580D01*
X127029047Y-75214580D02*
X126981428Y-75262200D01*
X126981428Y-75262200D02*
X126886190Y-75309819D01*
X126886190Y-75309819D02*
X126600476Y-75309819D01*
X126600476Y-75309819D02*
X126505238Y-75262200D01*
X126505238Y-75262200D02*
X126457619Y-75214580D01*
X131031905Y-61454819D02*
X131031905Y-60454819D01*
X131031905Y-60454819D02*
X131270000Y-60454819D01*
X131270000Y-60454819D02*
X131412857Y-60502438D01*
X131412857Y-60502438D02*
X131508095Y-60597676D01*
X131508095Y-60597676D02*
X131555714Y-60692914D01*
X131555714Y-60692914D02*
X131603333Y-60883390D01*
X131603333Y-60883390D02*
X131603333Y-61026247D01*
X131603333Y-61026247D02*
X131555714Y-61216723D01*
X131555714Y-61216723D02*
X131508095Y-61311961D01*
X131508095Y-61311961D02*
X131412857Y-61407200D01*
X131412857Y-61407200D02*
X131270000Y-61454819D01*
X131270000Y-61454819D02*
X131031905Y-61454819D01*
X131936667Y-60454819D02*
X132555714Y-60454819D01*
X132555714Y-60454819D02*
X132222381Y-60835771D01*
X132222381Y-60835771D02*
X132365238Y-60835771D01*
X132365238Y-60835771D02*
X132460476Y-60883390D01*
X132460476Y-60883390D02*
X132508095Y-60931009D01*
X132508095Y-60931009D02*
X132555714Y-61026247D01*
X132555714Y-61026247D02*
X132555714Y-61264342D01*
X132555714Y-61264342D02*
X132508095Y-61359580D01*
X132508095Y-61359580D02*
X132460476Y-61407200D01*
X132460476Y-61407200D02*
X132365238Y-61454819D01*
X132365238Y-61454819D02*
X132079524Y-61454819D01*
X132079524Y-61454819D02*
X131984286Y-61407200D01*
X131984286Y-61407200D02*
X131936667Y-61359580D01*
X100622533Y-82005619D02*
X100289200Y-81529428D01*
X100051105Y-82005619D02*
X100051105Y-81005619D01*
X100051105Y-81005619D02*
X100432057Y-81005619D01*
X100432057Y-81005619D02*
X100527295Y-81053238D01*
X100527295Y-81053238D02*
X100574914Y-81100857D01*
X100574914Y-81100857D02*
X100622533Y-81196095D01*
X100622533Y-81196095D02*
X100622533Y-81338952D01*
X100622533Y-81338952D02*
X100574914Y-81434190D01*
X100574914Y-81434190D02*
X100527295Y-81481809D01*
X100527295Y-81481809D02*
X100432057Y-81529428D01*
X100432057Y-81529428D02*
X100051105Y-81529428D01*
X101479676Y-81338952D02*
X101479676Y-82005619D01*
X101241581Y-80958000D02*
X101003486Y-81672285D01*
X101003486Y-81672285D02*
X101622533Y-81672285D01*
X107845835Y-94811280D02*
X107798216Y-94858900D01*
X107798216Y-94858900D02*
X107655359Y-94906519D01*
X107655359Y-94906519D02*
X107560121Y-94906519D01*
X107560121Y-94906519D02*
X107417264Y-94858900D01*
X107417264Y-94858900D02*
X107322026Y-94763661D01*
X107322026Y-94763661D02*
X107274407Y-94668423D01*
X107274407Y-94668423D02*
X107226788Y-94477947D01*
X107226788Y-94477947D02*
X107226788Y-94335090D01*
X107226788Y-94335090D02*
X107274407Y-94144614D01*
X107274407Y-94144614D02*
X107322026Y-94049376D01*
X107322026Y-94049376D02*
X107417264Y-93954138D01*
X107417264Y-93954138D02*
X107560121Y-93906519D01*
X107560121Y-93906519D02*
X107655359Y-93906519D01*
X107655359Y-93906519D02*
X107798216Y-93954138D01*
X107798216Y-93954138D02*
X107845835Y-94001757D01*
X108179169Y-93906519D02*
X108798216Y-93906519D01*
X108798216Y-93906519D02*
X108464883Y-94287471D01*
X108464883Y-94287471D02*
X108607740Y-94287471D01*
X108607740Y-94287471D02*
X108702978Y-94335090D01*
X108702978Y-94335090D02*
X108750597Y-94382709D01*
X108750597Y-94382709D02*
X108798216Y-94477947D01*
X108798216Y-94477947D02*
X108798216Y-94716042D01*
X108798216Y-94716042D02*
X108750597Y-94811280D01*
X108750597Y-94811280D02*
X108702978Y-94858900D01*
X108702978Y-94858900D02*
X108607740Y-94906519D01*
X108607740Y-94906519D02*
X108322026Y-94906519D01*
X108322026Y-94906519D02*
X108226788Y-94858900D01*
X108226788Y-94858900D02*
X108179169Y-94811280D01*
X115983333Y-78892080D02*
X115935714Y-78939700D01*
X115935714Y-78939700D02*
X115792857Y-78987319D01*
X115792857Y-78987319D02*
X115697619Y-78987319D01*
X115697619Y-78987319D02*
X115554762Y-78939700D01*
X115554762Y-78939700D02*
X115459524Y-78844461D01*
X115459524Y-78844461D02*
X115411905Y-78749223D01*
X115411905Y-78749223D02*
X115364286Y-78558747D01*
X115364286Y-78558747D02*
X115364286Y-78415890D01*
X115364286Y-78415890D02*
X115411905Y-78225414D01*
X115411905Y-78225414D02*
X115459524Y-78130176D01*
X115459524Y-78130176D02*
X115554762Y-78034938D01*
X115554762Y-78034938D02*
X115697619Y-77987319D01*
X115697619Y-77987319D02*
X115792857Y-77987319D01*
X115792857Y-77987319D02*
X115935714Y-78034938D01*
X115935714Y-78034938D02*
X115983333Y-78082557D01*
X116316667Y-77987319D02*
X116983333Y-77987319D01*
X116983333Y-77987319D02*
X116554762Y-78987319D01*
X105347905Y-64281619D02*
X105347905Y-63281619D01*
X105347905Y-63281619D02*
X105586000Y-63281619D01*
X105586000Y-63281619D02*
X105728857Y-63329238D01*
X105728857Y-63329238D02*
X105824095Y-63424476D01*
X105824095Y-63424476D02*
X105871714Y-63519714D01*
X105871714Y-63519714D02*
X105919333Y-63710190D01*
X105919333Y-63710190D02*
X105919333Y-63853047D01*
X105919333Y-63853047D02*
X105871714Y-64043523D01*
X105871714Y-64043523D02*
X105824095Y-64138761D01*
X105824095Y-64138761D02*
X105728857Y-64234000D01*
X105728857Y-64234000D02*
X105586000Y-64281619D01*
X105586000Y-64281619D02*
X105347905Y-64281619D01*
X106824095Y-63281619D02*
X106347905Y-63281619D01*
X106347905Y-63281619D02*
X106300286Y-63757809D01*
X106300286Y-63757809D02*
X106347905Y-63710190D01*
X106347905Y-63710190D02*
X106443143Y-63662571D01*
X106443143Y-63662571D02*
X106681238Y-63662571D01*
X106681238Y-63662571D02*
X106776476Y-63710190D01*
X106776476Y-63710190D02*
X106824095Y-63757809D01*
X106824095Y-63757809D02*
X106871714Y-63853047D01*
X106871714Y-63853047D02*
X106871714Y-64091142D01*
X106871714Y-64091142D02*
X106824095Y-64186380D01*
X106824095Y-64186380D02*
X106776476Y-64234000D01*
X106776476Y-64234000D02*
X106681238Y-64281619D01*
X106681238Y-64281619D02*
X106443143Y-64281619D01*
X106443143Y-64281619D02*
X106347905Y-64234000D01*
X106347905Y-64234000D02*
X106300286Y-64186380D01*
X78258332Y-100394819D02*
X77924999Y-99918628D01*
X77686904Y-100394819D02*
X77686904Y-99394819D01*
X77686904Y-99394819D02*
X78067856Y-99394819D01*
X78067856Y-99394819D02*
X78163094Y-99442438D01*
X78163094Y-99442438D02*
X78210713Y-99490057D01*
X78210713Y-99490057D02*
X78258332Y-99585295D01*
X78258332Y-99585295D02*
X78258332Y-99728152D01*
X78258332Y-99728152D02*
X78210713Y-99823390D01*
X78210713Y-99823390D02*
X78163094Y-99871009D01*
X78163094Y-99871009D02*
X78067856Y-99918628D01*
X78067856Y-99918628D02*
X77686904Y-99918628D01*
X78734523Y-100394819D02*
X78924999Y-100394819D01*
X78924999Y-100394819D02*
X79020237Y-100347200D01*
X79020237Y-100347200D02*
X79067856Y-100299580D01*
X79067856Y-100299580D02*
X79163094Y-100156723D01*
X79163094Y-100156723D02*
X79210713Y-99966247D01*
X79210713Y-99966247D02*
X79210713Y-99585295D01*
X79210713Y-99585295D02*
X79163094Y-99490057D01*
X79163094Y-99490057D02*
X79115475Y-99442438D01*
X79115475Y-99442438D02*
X79020237Y-99394819D01*
X79020237Y-99394819D02*
X78829761Y-99394819D01*
X78829761Y-99394819D02*
X78734523Y-99442438D01*
X78734523Y-99442438D02*
X78686904Y-99490057D01*
X78686904Y-99490057D02*
X78639285Y-99585295D01*
X78639285Y-99585295D02*
X78639285Y-99823390D01*
X78639285Y-99823390D02*
X78686904Y-99918628D01*
X78686904Y-99918628D02*
X78734523Y-99966247D01*
X78734523Y-99966247D02*
X78829761Y-100013866D01*
X78829761Y-100013866D02*
X79020237Y-100013866D01*
X79020237Y-100013866D02*
X79115475Y-99966247D01*
X79115475Y-99966247D02*
X79163094Y-99918628D01*
X79163094Y-99918628D02*
X79210713Y-99823390D01*
X141227142Y-68059581D02*
X141179523Y-68107201D01*
X141179523Y-68107201D02*
X141036666Y-68154820D01*
X141036666Y-68154820D02*
X140941428Y-68154820D01*
X140941428Y-68154820D02*
X140798571Y-68107201D01*
X140798571Y-68107201D02*
X140703333Y-68011962D01*
X140703333Y-68011962D02*
X140655714Y-67916724D01*
X140655714Y-67916724D02*
X140608095Y-67726248D01*
X140608095Y-67726248D02*
X140608095Y-67583391D01*
X140608095Y-67583391D02*
X140655714Y-67392915D01*
X140655714Y-67392915D02*
X140703333Y-67297677D01*
X140703333Y-67297677D02*
X140798571Y-67202439D01*
X140798571Y-67202439D02*
X140941428Y-67154820D01*
X140941428Y-67154820D02*
X141036666Y-67154820D01*
X141036666Y-67154820D02*
X141179523Y-67202439D01*
X141179523Y-67202439D02*
X141227142Y-67250058D01*
X141608095Y-67250058D02*
X141655714Y-67202439D01*
X141655714Y-67202439D02*
X141750952Y-67154820D01*
X141750952Y-67154820D02*
X141989047Y-67154820D01*
X141989047Y-67154820D02*
X142084285Y-67202439D01*
X142084285Y-67202439D02*
X142131904Y-67250058D01*
X142131904Y-67250058D02*
X142179523Y-67345296D01*
X142179523Y-67345296D02*
X142179523Y-67440534D01*
X142179523Y-67440534D02*
X142131904Y-67583391D01*
X142131904Y-67583391D02*
X141560476Y-68154820D01*
X141560476Y-68154820D02*
X142179523Y-68154820D01*
X142750952Y-67583391D02*
X142655714Y-67535772D01*
X142655714Y-67535772D02*
X142608095Y-67488153D01*
X142608095Y-67488153D02*
X142560476Y-67392915D01*
X142560476Y-67392915D02*
X142560476Y-67345296D01*
X142560476Y-67345296D02*
X142608095Y-67250058D01*
X142608095Y-67250058D02*
X142655714Y-67202439D01*
X142655714Y-67202439D02*
X142750952Y-67154820D01*
X142750952Y-67154820D02*
X142941428Y-67154820D01*
X142941428Y-67154820D02*
X143036666Y-67202439D01*
X143036666Y-67202439D02*
X143084285Y-67250058D01*
X143084285Y-67250058D02*
X143131904Y-67345296D01*
X143131904Y-67345296D02*
X143131904Y-67392915D01*
X143131904Y-67392915D02*
X143084285Y-67488153D01*
X143084285Y-67488153D02*
X143036666Y-67535772D01*
X143036666Y-67535772D02*
X142941428Y-67583391D01*
X142941428Y-67583391D02*
X142750952Y-67583391D01*
X142750952Y-67583391D02*
X142655714Y-67631010D01*
X142655714Y-67631010D02*
X142608095Y-67678629D01*
X142608095Y-67678629D02*
X142560476Y-67773867D01*
X142560476Y-67773867D02*
X142560476Y-67964343D01*
X142560476Y-67964343D02*
X142608095Y-68059581D01*
X142608095Y-68059581D02*
X142655714Y-68107201D01*
X142655714Y-68107201D02*
X142750952Y-68154820D01*
X142750952Y-68154820D02*
X142941428Y-68154820D01*
X142941428Y-68154820D02*
X143036666Y-68107201D01*
X143036666Y-68107201D02*
X143084285Y-68059581D01*
X143084285Y-68059581D02*
X143131904Y-67964343D01*
X143131904Y-67964343D02*
X143131904Y-67773867D01*
X143131904Y-67773867D02*
X143084285Y-67678629D01*
X143084285Y-67678629D02*
X143036666Y-67631010D01*
X143036666Y-67631010D02*
X142941428Y-67583391D01*
X112857142Y-91109580D02*
X112809523Y-91157200D01*
X112809523Y-91157200D02*
X112666666Y-91204819D01*
X112666666Y-91204819D02*
X112571428Y-91204819D01*
X112571428Y-91204819D02*
X112428571Y-91157200D01*
X112428571Y-91157200D02*
X112333333Y-91061961D01*
X112333333Y-91061961D02*
X112285714Y-90966723D01*
X112285714Y-90966723D02*
X112238095Y-90776247D01*
X112238095Y-90776247D02*
X112238095Y-90633390D01*
X112238095Y-90633390D02*
X112285714Y-90442914D01*
X112285714Y-90442914D02*
X112333333Y-90347676D01*
X112333333Y-90347676D02*
X112428571Y-90252438D01*
X112428571Y-90252438D02*
X112571428Y-90204819D01*
X112571428Y-90204819D02*
X112666666Y-90204819D01*
X112666666Y-90204819D02*
X112809523Y-90252438D01*
X112809523Y-90252438D02*
X112857142Y-90300057D01*
X113809523Y-91204819D02*
X113238095Y-91204819D01*
X113523809Y-91204819D02*
X113523809Y-90204819D01*
X113523809Y-90204819D02*
X113428571Y-90347676D01*
X113428571Y-90347676D02*
X113333333Y-90442914D01*
X113333333Y-90442914D02*
X113238095Y-90490533D01*
X114761904Y-91204819D02*
X114190476Y-91204819D01*
X114476190Y-91204819D02*
X114476190Y-90204819D01*
X114476190Y-90204819D02*
X114380952Y-90347676D01*
X114380952Y-90347676D02*
X114285714Y-90442914D01*
X114285714Y-90442914D02*
X114190476Y-90490533D01*
X135537142Y-61044819D02*
X135203809Y-60568628D01*
X134965714Y-61044819D02*
X134965714Y-60044819D01*
X134965714Y-60044819D02*
X135346666Y-60044819D01*
X135346666Y-60044819D02*
X135441904Y-60092438D01*
X135441904Y-60092438D02*
X135489523Y-60140057D01*
X135489523Y-60140057D02*
X135537142Y-60235295D01*
X135537142Y-60235295D02*
X135537142Y-60378152D01*
X135537142Y-60378152D02*
X135489523Y-60473390D01*
X135489523Y-60473390D02*
X135441904Y-60521009D01*
X135441904Y-60521009D02*
X135346666Y-60568628D01*
X135346666Y-60568628D02*
X134965714Y-60568628D01*
X136489523Y-61044819D02*
X135918095Y-61044819D01*
X136203809Y-61044819D02*
X136203809Y-60044819D01*
X136203809Y-60044819D02*
X136108571Y-60187676D01*
X136108571Y-60187676D02*
X136013333Y-60282914D01*
X136013333Y-60282914D02*
X135918095Y-60330533D01*
X136965714Y-61044819D02*
X137156190Y-61044819D01*
X137156190Y-61044819D02*
X137251428Y-60997200D01*
X137251428Y-60997200D02*
X137299047Y-60949580D01*
X137299047Y-60949580D02*
X137394285Y-60806723D01*
X137394285Y-60806723D02*
X137441904Y-60616247D01*
X137441904Y-60616247D02*
X137441904Y-60235295D01*
X137441904Y-60235295D02*
X137394285Y-60140057D01*
X137394285Y-60140057D02*
X137346666Y-60092438D01*
X137346666Y-60092438D02*
X137251428Y-60044819D01*
X137251428Y-60044819D02*
X137060952Y-60044819D01*
X137060952Y-60044819D02*
X136965714Y-60092438D01*
X136965714Y-60092438D02*
X136918095Y-60140057D01*
X136918095Y-60140057D02*
X136870476Y-60235295D01*
X136870476Y-60235295D02*
X136870476Y-60473390D01*
X136870476Y-60473390D02*
X136918095Y-60568628D01*
X136918095Y-60568628D02*
X136965714Y-60616247D01*
X136965714Y-60616247D02*
X137060952Y-60663866D01*
X137060952Y-60663866D02*
X137251428Y-60663866D01*
X137251428Y-60663866D02*
X137346666Y-60616247D01*
X137346666Y-60616247D02*
X137394285Y-60568628D01*
X137394285Y-60568628D02*
X137441904Y-60473390D01*
X107733142Y-58056380D02*
X107685523Y-58104000D01*
X107685523Y-58104000D02*
X107542666Y-58151619D01*
X107542666Y-58151619D02*
X107447428Y-58151619D01*
X107447428Y-58151619D02*
X107304571Y-58104000D01*
X107304571Y-58104000D02*
X107209333Y-58008761D01*
X107209333Y-58008761D02*
X107161714Y-57913523D01*
X107161714Y-57913523D02*
X107114095Y-57723047D01*
X107114095Y-57723047D02*
X107114095Y-57580190D01*
X107114095Y-57580190D02*
X107161714Y-57389714D01*
X107161714Y-57389714D02*
X107209333Y-57294476D01*
X107209333Y-57294476D02*
X107304571Y-57199238D01*
X107304571Y-57199238D02*
X107447428Y-57151619D01*
X107447428Y-57151619D02*
X107542666Y-57151619D01*
X107542666Y-57151619D02*
X107685523Y-57199238D01*
X107685523Y-57199238D02*
X107733142Y-57246857D01*
X108114095Y-57246857D02*
X108161714Y-57199238D01*
X108161714Y-57199238D02*
X108256952Y-57151619D01*
X108256952Y-57151619D02*
X108495047Y-57151619D01*
X108495047Y-57151619D02*
X108590285Y-57199238D01*
X108590285Y-57199238D02*
X108637904Y-57246857D01*
X108637904Y-57246857D02*
X108685523Y-57342095D01*
X108685523Y-57342095D02*
X108685523Y-57437333D01*
X108685523Y-57437333D02*
X108637904Y-57580190D01*
X108637904Y-57580190D02*
X108066476Y-58151619D01*
X108066476Y-58151619D02*
X108685523Y-58151619D01*
X109161714Y-58151619D02*
X109352190Y-58151619D01*
X109352190Y-58151619D02*
X109447428Y-58104000D01*
X109447428Y-58104000D02*
X109495047Y-58056380D01*
X109495047Y-58056380D02*
X109590285Y-57913523D01*
X109590285Y-57913523D02*
X109637904Y-57723047D01*
X109637904Y-57723047D02*
X109637904Y-57342095D01*
X109637904Y-57342095D02*
X109590285Y-57246857D01*
X109590285Y-57246857D02*
X109542666Y-57199238D01*
X109542666Y-57199238D02*
X109447428Y-57151619D01*
X109447428Y-57151619D02*
X109256952Y-57151619D01*
X109256952Y-57151619D02*
X109161714Y-57199238D01*
X109161714Y-57199238D02*
X109114095Y-57246857D01*
X109114095Y-57246857D02*
X109066476Y-57342095D01*
X109066476Y-57342095D02*
X109066476Y-57580190D01*
X109066476Y-57580190D02*
X109114095Y-57675428D01*
X109114095Y-57675428D02*
X109161714Y-57723047D01*
X109161714Y-57723047D02*
X109256952Y-57770666D01*
X109256952Y-57770666D02*
X109447428Y-57770666D01*
X109447428Y-57770666D02*
X109542666Y-57723047D01*
X109542666Y-57723047D02*
X109590285Y-57675428D01*
X109590285Y-57675428D02*
X109637904Y-57580190D01*
X98107142Y-59859580D02*
X98059523Y-59907200D01*
X98059523Y-59907200D02*
X97916666Y-59954819D01*
X97916666Y-59954819D02*
X97821428Y-59954819D01*
X97821428Y-59954819D02*
X97678571Y-59907200D01*
X97678571Y-59907200D02*
X97583333Y-59811961D01*
X97583333Y-59811961D02*
X97535714Y-59716723D01*
X97535714Y-59716723D02*
X97488095Y-59526247D01*
X97488095Y-59526247D02*
X97488095Y-59383390D01*
X97488095Y-59383390D02*
X97535714Y-59192914D01*
X97535714Y-59192914D02*
X97583333Y-59097676D01*
X97583333Y-59097676D02*
X97678571Y-59002438D01*
X97678571Y-59002438D02*
X97821428Y-58954819D01*
X97821428Y-58954819D02*
X97916666Y-58954819D01*
X97916666Y-58954819D02*
X98059523Y-59002438D01*
X98059523Y-59002438D02*
X98107142Y-59050057D01*
X98440476Y-58954819D02*
X99059523Y-58954819D01*
X99059523Y-58954819D02*
X98726190Y-59335771D01*
X98726190Y-59335771D02*
X98869047Y-59335771D01*
X98869047Y-59335771D02*
X98964285Y-59383390D01*
X98964285Y-59383390D02*
X99011904Y-59431009D01*
X99011904Y-59431009D02*
X99059523Y-59526247D01*
X99059523Y-59526247D02*
X99059523Y-59764342D01*
X99059523Y-59764342D02*
X99011904Y-59859580D01*
X99011904Y-59859580D02*
X98964285Y-59907200D01*
X98964285Y-59907200D02*
X98869047Y-59954819D01*
X98869047Y-59954819D02*
X98583333Y-59954819D01*
X98583333Y-59954819D02*
X98488095Y-59907200D01*
X98488095Y-59907200D02*
X98440476Y-59859580D01*
X99392857Y-58954819D02*
X100059523Y-58954819D01*
X100059523Y-58954819D02*
X99630952Y-59954819D01*
X103033333Y-77954819D02*
X102700000Y-77478628D01*
X102461905Y-77954819D02*
X102461905Y-76954819D01*
X102461905Y-76954819D02*
X102842857Y-76954819D01*
X102842857Y-76954819D02*
X102938095Y-77002438D01*
X102938095Y-77002438D02*
X102985714Y-77050057D01*
X102985714Y-77050057D02*
X103033333Y-77145295D01*
X103033333Y-77145295D02*
X103033333Y-77288152D01*
X103033333Y-77288152D02*
X102985714Y-77383390D01*
X102985714Y-77383390D02*
X102938095Y-77431009D01*
X102938095Y-77431009D02*
X102842857Y-77478628D01*
X102842857Y-77478628D02*
X102461905Y-77478628D01*
X103938095Y-76954819D02*
X103461905Y-76954819D01*
X103461905Y-76954819D02*
X103414286Y-77431009D01*
X103414286Y-77431009D02*
X103461905Y-77383390D01*
X103461905Y-77383390D02*
X103557143Y-77335771D01*
X103557143Y-77335771D02*
X103795238Y-77335771D01*
X103795238Y-77335771D02*
X103890476Y-77383390D01*
X103890476Y-77383390D02*
X103938095Y-77431009D01*
X103938095Y-77431009D02*
X103985714Y-77526247D01*
X103985714Y-77526247D02*
X103985714Y-77764342D01*
X103985714Y-77764342D02*
X103938095Y-77859580D01*
X103938095Y-77859580D02*
X103890476Y-77907200D01*
X103890476Y-77907200D02*
X103795238Y-77954819D01*
X103795238Y-77954819D02*
X103557143Y-77954819D01*
X103557143Y-77954819D02*
X103461905Y-77907200D01*
X103461905Y-77907200D02*
X103414286Y-77859580D01*
X94359580Y-56142857D02*
X94407200Y-56190476D01*
X94407200Y-56190476D02*
X94454819Y-56333333D01*
X94454819Y-56333333D02*
X94454819Y-56428571D01*
X94454819Y-56428571D02*
X94407200Y-56571428D01*
X94407200Y-56571428D02*
X94311961Y-56666666D01*
X94311961Y-56666666D02*
X94216723Y-56714285D01*
X94216723Y-56714285D02*
X94026247Y-56761904D01*
X94026247Y-56761904D02*
X93883390Y-56761904D01*
X93883390Y-56761904D02*
X93692914Y-56714285D01*
X93692914Y-56714285D02*
X93597676Y-56666666D01*
X93597676Y-56666666D02*
X93502438Y-56571428D01*
X93502438Y-56571428D02*
X93454819Y-56428571D01*
X93454819Y-56428571D02*
X93454819Y-56333333D01*
X93454819Y-56333333D02*
X93502438Y-56190476D01*
X93502438Y-56190476D02*
X93550057Y-56142857D01*
X93550057Y-55761904D02*
X93502438Y-55714285D01*
X93502438Y-55714285D02*
X93454819Y-55619047D01*
X93454819Y-55619047D02*
X93454819Y-55380952D01*
X93454819Y-55380952D02*
X93502438Y-55285714D01*
X93502438Y-55285714D02*
X93550057Y-55238095D01*
X93550057Y-55238095D02*
X93645295Y-55190476D01*
X93645295Y-55190476D02*
X93740533Y-55190476D01*
X93740533Y-55190476D02*
X93883390Y-55238095D01*
X93883390Y-55238095D02*
X94454819Y-55809523D01*
X94454819Y-55809523D02*
X94454819Y-55190476D01*
X93454819Y-54857142D02*
X93454819Y-54238095D01*
X93454819Y-54238095D02*
X93835771Y-54571428D01*
X93835771Y-54571428D02*
X93835771Y-54428571D01*
X93835771Y-54428571D02*
X93883390Y-54333333D01*
X93883390Y-54333333D02*
X93931009Y-54285714D01*
X93931009Y-54285714D02*
X94026247Y-54238095D01*
X94026247Y-54238095D02*
X94264342Y-54238095D01*
X94264342Y-54238095D02*
X94359580Y-54285714D01*
X94359580Y-54285714D02*
X94407200Y-54333333D01*
X94407200Y-54333333D02*
X94454819Y-54428571D01*
X94454819Y-54428571D02*
X94454819Y-54714285D01*
X94454819Y-54714285D02*
X94407200Y-54809523D01*
X94407200Y-54809523D02*
X94359580Y-54857142D01*
X95027142Y-94004819D02*
X94693809Y-93528628D01*
X94455714Y-94004819D02*
X94455714Y-93004819D01*
X94455714Y-93004819D02*
X94836666Y-93004819D01*
X94836666Y-93004819D02*
X94931904Y-93052438D01*
X94931904Y-93052438D02*
X94979523Y-93100057D01*
X94979523Y-93100057D02*
X95027142Y-93195295D01*
X95027142Y-93195295D02*
X95027142Y-93338152D01*
X95027142Y-93338152D02*
X94979523Y-93433390D01*
X94979523Y-93433390D02*
X94931904Y-93481009D01*
X94931904Y-93481009D02*
X94836666Y-93528628D01*
X94836666Y-93528628D02*
X94455714Y-93528628D01*
X95979523Y-94004819D02*
X95408095Y-94004819D01*
X95693809Y-94004819D02*
X95693809Y-93004819D01*
X95693809Y-93004819D02*
X95598571Y-93147676D01*
X95598571Y-93147676D02*
X95503333Y-93242914D01*
X95503333Y-93242914D02*
X95408095Y-93290533D01*
X96360476Y-93100057D02*
X96408095Y-93052438D01*
X96408095Y-93052438D02*
X96503333Y-93004819D01*
X96503333Y-93004819D02*
X96741428Y-93004819D01*
X96741428Y-93004819D02*
X96836666Y-93052438D01*
X96836666Y-93052438D02*
X96884285Y-93100057D01*
X96884285Y-93100057D02*
X96931904Y-93195295D01*
X96931904Y-93195295D02*
X96931904Y-93290533D01*
X96931904Y-93290533D02*
X96884285Y-93433390D01*
X96884285Y-93433390D02*
X96312857Y-94004819D01*
X96312857Y-94004819D02*
X96931904Y-94004819D01*
X112684819Y-76338094D02*
X111684819Y-76338094D01*
X111684819Y-76338094D02*
X111684819Y-76099999D01*
X111684819Y-76099999D02*
X111732438Y-75957142D01*
X111732438Y-75957142D02*
X111827676Y-75861904D01*
X111827676Y-75861904D02*
X111922914Y-75814285D01*
X111922914Y-75814285D02*
X112113390Y-75766666D01*
X112113390Y-75766666D02*
X112256247Y-75766666D01*
X112256247Y-75766666D02*
X112446723Y-75814285D01*
X112446723Y-75814285D02*
X112541961Y-75861904D01*
X112541961Y-75861904D02*
X112637200Y-75957142D01*
X112637200Y-75957142D02*
X112684819Y-76099999D01*
X112684819Y-76099999D02*
X112684819Y-76338094D01*
X112684819Y-74814285D02*
X112684819Y-75385713D01*
X112684819Y-75099999D02*
X111684819Y-75099999D01*
X111684819Y-75099999D02*
X111827676Y-75195237D01*
X111827676Y-75195237D02*
X111922914Y-75290475D01*
X111922914Y-75290475D02*
X111970533Y-75385713D01*
X79599405Y-92624819D02*
X79599405Y-91624819D01*
X79599405Y-91624819D02*
X79837500Y-91624819D01*
X79837500Y-91624819D02*
X79980357Y-91672438D01*
X79980357Y-91672438D02*
X80075595Y-91767676D01*
X80075595Y-91767676D02*
X80123214Y-91862914D01*
X80123214Y-91862914D02*
X80170833Y-92053390D01*
X80170833Y-92053390D02*
X80170833Y-92196247D01*
X80170833Y-92196247D02*
X80123214Y-92386723D01*
X80123214Y-92386723D02*
X80075595Y-92481961D01*
X80075595Y-92481961D02*
X79980357Y-92577200D01*
X79980357Y-92577200D02*
X79837500Y-92624819D01*
X79837500Y-92624819D02*
X79599405Y-92624819D01*
X80551786Y-91720057D02*
X80599405Y-91672438D01*
X80599405Y-91672438D02*
X80694643Y-91624819D01*
X80694643Y-91624819D02*
X80932738Y-91624819D01*
X80932738Y-91624819D02*
X81027976Y-91672438D01*
X81027976Y-91672438D02*
X81075595Y-91720057D01*
X81075595Y-91720057D02*
X81123214Y-91815295D01*
X81123214Y-91815295D02*
X81123214Y-91910533D01*
X81123214Y-91910533D02*
X81075595Y-92053390D01*
X81075595Y-92053390D02*
X80504167Y-92624819D01*
X80504167Y-92624819D02*
X81123214Y-92624819D01*
X102233333Y-79359580D02*
X102185714Y-79407200D01*
X102185714Y-79407200D02*
X102042857Y-79454819D01*
X102042857Y-79454819D02*
X101947619Y-79454819D01*
X101947619Y-79454819D02*
X101804762Y-79407200D01*
X101804762Y-79407200D02*
X101709524Y-79311961D01*
X101709524Y-79311961D02*
X101661905Y-79216723D01*
X101661905Y-79216723D02*
X101614286Y-79026247D01*
X101614286Y-79026247D02*
X101614286Y-78883390D01*
X101614286Y-78883390D02*
X101661905Y-78692914D01*
X101661905Y-78692914D02*
X101709524Y-78597676D01*
X101709524Y-78597676D02*
X101804762Y-78502438D01*
X101804762Y-78502438D02*
X101947619Y-78454819D01*
X101947619Y-78454819D02*
X102042857Y-78454819D01*
X102042857Y-78454819D02*
X102185714Y-78502438D01*
X102185714Y-78502438D02*
X102233333Y-78550057D01*
X102804762Y-78883390D02*
X102709524Y-78835771D01*
X102709524Y-78835771D02*
X102661905Y-78788152D01*
X102661905Y-78788152D02*
X102614286Y-78692914D01*
X102614286Y-78692914D02*
X102614286Y-78645295D01*
X102614286Y-78645295D02*
X102661905Y-78550057D01*
X102661905Y-78550057D02*
X102709524Y-78502438D01*
X102709524Y-78502438D02*
X102804762Y-78454819D01*
X102804762Y-78454819D02*
X102995238Y-78454819D01*
X102995238Y-78454819D02*
X103090476Y-78502438D01*
X103090476Y-78502438D02*
X103138095Y-78550057D01*
X103138095Y-78550057D02*
X103185714Y-78645295D01*
X103185714Y-78645295D02*
X103185714Y-78692914D01*
X103185714Y-78692914D02*
X103138095Y-78788152D01*
X103138095Y-78788152D02*
X103090476Y-78835771D01*
X103090476Y-78835771D02*
X102995238Y-78883390D01*
X102995238Y-78883390D02*
X102804762Y-78883390D01*
X102804762Y-78883390D02*
X102709524Y-78931009D01*
X102709524Y-78931009D02*
X102661905Y-78978628D01*
X102661905Y-78978628D02*
X102614286Y-79073866D01*
X102614286Y-79073866D02*
X102614286Y-79264342D01*
X102614286Y-79264342D02*
X102661905Y-79359580D01*
X102661905Y-79359580D02*
X102709524Y-79407200D01*
X102709524Y-79407200D02*
X102804762Y-79454819D01*
X102804762Y-79454819D02*
X102995238Y-79454819D01*
X102995238Y-79454819D02*
X103090476Y-79407200D01*
X103090476Y-79407200D02*
X103138095Y-79359580D01*
X103138095Y-79359580D02*
X103185714Y-79264342D01*
X103185714Y-79264342D02*
X103185714Y-79073866D01*
X103185714Y-79073866D02*
X103138095Y-78978628D01*
X103138095Y-78978628D02*
X103090476Y-78931009D01*
X103090476Y-78931009D02*
X102995238Y-78883390D01*
X145054819Y-64591904D02*
X145864342Y-64591904D01*
X145864342Y-64591904D02*
X145959580Y-64544285D01*
X145959580Y-64544285D02*
X146007200Y-64496666D01*
X146007200Y-64496666D02*
X146054819Y-64401428D01*
X146054819Y-64401428D02*
X146054819Y-64210952D01*
X146054819Y-64210952D02*
X146007200Y-64115714D01*
X146007200Y-64115714D02*
X145959580Y-64068095D01*
X145959580Y-64068095D02*
X145864342Y-64020476D01*
X145864342Y-64020476D02*
X145054819Y-64020476D01*
X145054819Y-63068095D02*
X145054819Y-63544285D01*
X145054819Y-63544285D02*
X145531009Y-63591904D01*
X145531009Y-63591904D02*
X145483390Y-63544285D01*
X145483390Y-63544285D02*
X145435771Y-63449047D01*
X145435771Y-63449047D02*
X145435771Y-63210952D01*
X145435771Y-63210952D02*
X145483390Y-63115714D01*
X145483390Y-63115714D02*
X145531009Y-63068095D01*
X145531009Y-63068095D02*
X145626247Y-63020476D01*
X145626247Y-63020476D02*
X145864342Y-63020476D01*
X145864342Y-63020476D02*
X145959580Y-63068095D01*
X145959580Y-63068095D02*
X146007200Y-63115714D01*
X146007200Y-63115714D02*
X146054819Y-63210952D01*
X146054819Y-63210952D02*
X146054819Y-63449047D01*
X146054819Y-63449047D02*
X146007200Y-63544285D01*
X146007200Y-63544285D02*
X145959580Y-63591904D01*
X137942881Y-89786591D02*
X137466691Y-89786591D01*
X137466691Y-89786591D02*
X137466691Y-88786591D01*
X138704786Y-88786591D02*
X138514310Y-88786591D01*
X138514310Y-88786591D02*
X138419072Y-88834210D01*
X138419072Y-88834210D02*
X138371453Y-88881829D01*
X138371453Y-88881829D02*
X138276215Y-89024686D01*
X138276215Y-89024686D02*
X138228596Y-89215162D01*
X138228596Y-89215162D02*
X138228596Y-89596114D01*
X138228596Y-89596114D02*
X138276215Y-89691352D01*
X138276215Y-89691352D02*
X138323834Y-89738972D01*
X138323834Y-89738972D02*
X138419072Y-89786591D01*
X138419072Y-89786591D02*
X138609548Y-89786591D01*
X138609548Y-89786591D02*
X138704786Y-89738972D01*
X138704786Y-89738972D02*
X138752405Y-89691352D01*
X138752405Y-89691352D02*
X138800024Y-89596114D01*
X138800024Y-89596114D02*
X138800024Y-89358019D01*
X138800024Y-89358019D02*
X138752405Y-89262781D01*
X138752405Y-89262781D02*
X138704786Y-89215162D01*
X138704786Y-89215162D02*
X138609548Y-89167543D01*
X138609548Y-89167543D02*
X138419072Y-89167543D01*
X138419072Y-89167543D02*
X138323834Y-89215162D01*
X138323834Y-89215162D02*
X138276215Y-89262781D01*
X138276215Y-89262781D02*
X138228596Y-89358019D01*
X118833333Y-73954819D02*
X118500000Y-73478628D01*
X118261905Y-73954819D02*
X118261905Y-72954819D01*
X118261905Y-72954819D02*
X118642857Y-72954819D01*
X118642857Y-72954819D02*
X118738095Y-73002438D01*
X118738095Y-73002438D02*
X118785714Y-73050057D01*
X118785714Y-73050057D02*
X118833333Y-73145295D01*
X118833333Y-73145295D02*
X118833333Y-73288152D01*
X118833333Y-73288152D02*
X118785714Y-73383390D01*
X118785714Y-73383390D02*
X118738095Y-73431009D01*
X118738095Y-73431009D02*
X118642857Y-73478628D01*
X118642857Y-73478628D02*
X118261905Y-73478628D01*
X119166667Y-72954819D02*
X119833333Y-72954819D01*
X119833333Y-72954819D02*
X119404762Y-73954819D01*
X103014819Y-63232857D02*
X102538628Y-63566190D01*
X103014819Y-63804285D02*
X102014819Y-63804285D01*
X102014819Y-63804285D02*
X102014819Y-63423333D01*
X102014819Y-63423333D02*
X102062438Y-63328095D01*
X102062438Y-63328095D02*
X102110057Y-63280476D01*
X102110057Y-63280476D02*
X102205295Y-63232857D01*
X102205295Y-63232857D02*
X102348152Y-63232857D01*
X102348152Y-63232857D02*
X102443390Y-63280476D01*
X102443390Y-63280476D02*
X102491009Y-63328095D01*
X102491009Y-63328095D02*
X102538628Y-63423333D01*
X102538628Y-63423333D02*
X102538628Y-63804285D01*
X102110057Y-62851904D02*
X102062438Y-62804285D01*
X102062438Y-62804285D02*
X102014819Y-62709047D01*
X102014819Y-62709047D02*
X102014819Y-62470952D01*
X102014819Y-62470952D02*
X102062438Y-62375714D01*
X102062438Y-62375714D02*
X102110057Y-62328095D01*
X102110057Y-62328095D02*
X102205295Y-62280476D01*
X102205295Y-62280476D02*
X102300533Y-62280476D01*
X102300533Y-62280476D02*
X102443390Y-62328095D01*
X102443390Y-62328095D02*
X103014819Y-62899523D01*
X103014819Y-62899523D02*
X103014819Y-62280476D01*
X102110057Y-61899523D02*
X102062438Y-61851904D01*
X102062438Y-61851904D02*
X102014819Y-61756666D01*
X102014819Y-61756666D02*
X102014819Y-61518571D01*
X102014819Y-61518571D02*
X102062438Y-61423333D01*
X102062438Y-61423333D02*
X102110057Y-61375714D01*
X102110057Y-61375714D02*
X102205295Y-61328095D01*
X102205295Y-61328095D02*
X102300533Y-61328095D01*
X102300533Y-61328095D02*
X102443390Y-61375714D01*
X102443390Y-61375714D02*
X103014819Y-61947142D01*
X103014819Y-61947142D02*
X103014819Y-61328095D01*
X108949333Y-70891619D02*
X108473143Y-70891619D01*
X108473143Y-70891619D02*
X108473143Y-69891619D01*
X109187429Y-69891619D02*
X109806476Y-69891619D01*
X109806476Y-69891619D02*
X109473143Y-70272571D01*
X109473143Y-70272571D02*
X109616000Y-70272571D01*
X109616000Y-70272571D02*
X109711238Y-70320190D01*
X109711238Y-70320190D02*
X109758857Y-70367809D01*
X109758857Y-70367809D02*
X109806476Y-70463047D01*
X109806476Y-70463047D02*
X109806476Y-70701142D01*
X109806476Y-70701142D02*
X109758857Y-70796380D01*
X109758857Y-70796380D02*
X109711238Y-70844000D01*
X109711238Y-70844000D02*
X109616000Y-70891619D01*
X109616000Y-70891619D02*
X109330286Y-70891619D01*
X109330286Y-70891619D02*
X109235048Y-70844000D01*
X109235048Y-70844000D02*
X109187429Y-70796380D01*
X116634820Y-99533333D02*
X117349105Y-99533333D01*
X117349105Y-99533333D02*
X117491962Y-99580952D01*
X117491962Y-99580952D02*
X117587201Y-99676190D01*
X117587201Y-99676190D02*
X117634820Y-99819047D01*
X117634820Y-99819047D02*
X117634820Y-99914285D01*
X117634820Y-98533333D02*
X117634820Y-99104761D01*
X117634820Y-98819047D02*
X116634820Y-98819047D01*
X116634820Y-98819047D02*
X116777677Y-98914285D01*
X116777677Y-98914285D02*
X116872915Y-99009523D01*
X116872915Y-99009523D02*
X116920534Y-99104761D01*
X101227142Y-90499580D02*
X101179523Y-90547200D01*
X101179523Y-90547200D02*
X101036666Y-90594819D01*
X101036666Y-90594819D02*
X100941428Y-90594819D01*
X100941428Y-90594819D02*
X100798571Y-90547200D01*
X100798571Y-90547200D02*
X100703333Y-90451961D01*
X100703333Y-90451961D02*
X100655714Y-90356723D01*
X100655714Y-90356723D02*
X100608095Y-90166247D01*
X100608095Y-90166247D02*
X100608095Y-90023390D01*
X100608095Y-90023390D02*
X100655714Y-89832914D01*
X100655714Y-89832914D02*
X100703333Y-89737676D01*
X100703333Y-89737676D02*
X100798571Y-89642438D01*
X100798571Y-89642438D02*
X100941428Y-89594819D01*
X100941428Y-89594819D02*
X101036666Y-89594819D01*
X101036666Y-89594819D02*
X101179523Y-89642438D01*
X101179523Y-89642438D02*
X101227142Y-89690057D01*
X102179523Y-90594819D02*
X101608095Y-90594819D01*
X101893809Y-90594819D02*
X101893809Y-89594819D01*
X101893809Y-89594819D02*
X101798571Y-89737676D01*
X101798571Y-89737676D02*
X101703333Y-89832914D01*
X101703333Y-89832914D02*
X101608095Y-89880533D01*
X102512857Y-89594819D02*
X103131904Y-89594819D01*
X103131904Y-89594819D02*
X102798571Y-89975771D01*
X102798571Y-89975771D02*
X102941428Y-89975771D01*
X102941428Y-89975771D02*
X103036666Y-90023390D01*
X103036666Y-90023390D02*
X103084285Y-90071009D01*
X103084285Y-90071009D02*
X103131904Y-90166247D01*
X103131904Y-90166247D02*
X103131904Y-90404342D01*
X103131904Y-90404342D02*
X103084285Y-90499580D01*
X103084285Y-90499580D02*
X103036666Y-90547200D01*
X103036666Y-90547200D02*
X102941428Y-90594819D01*
X102941428Y-90594819D02*
X102655714Y-90594819D01*
X102655714Y-90594819D02*
X102560476Y-90547200D01*
X102560476Y-90547200D02*
X102512857Y-90499580D01*
X73099580Y-88546666D02*
X73147200Y-88594285D01*
X73147200Y-88594285D02*
X73194819Y-88737142D01*
X73194819Y-88737142D02*
X73194819Y-88832380D01*
X73194819Y-88832380D02*
X73147200Y-88975237D01*
X73147200Y-88975237D02*
X73051961Y-89070475D01*
X73051961Y-89070475D02*
X72956723Y-89118094D01*
X72956723Y-89118094D02*
X72766247Y-89165713D01*
X72766247Y-89165713D02*
X72623390Y-89165713D01*
X72623390Y-89165713D02*
X72432914Y-89118094D01*
X72432914Y-89118094D02*
X72337676Y-89070475D01*
X72337676Y-89070475D02*
X72242438Y-88975237D01*
X72242438Y-88975237D02*
X72194819Y-88832380D01*
X72194819Y-88832380D02*
X72194819Y-88737142D01*
X72194819Y-88737142D02*
X72242438Y-88594285D01*
X72242438Y-88594285D02*
X72290057Y-88546666D01*
X73194819Y-87594285D02*
X73194819Y-88165713D01*
X73194819Y-87879999D02*
X72194819Y-87879999D01*
X72194819Y-87879999D02*
X72337676Y-87975237D01*
X72337676Y-87975237D02*
X72432914Y-88070475D01*
X72432914Y-88070475D02*
X72480533Y-88165713D01*
X104947142Y-69849580D02*
X104899523Y-69897200D01*
X104899523Y-69897200D02*
X104756666Y-69944819D01*
X104756666Y-69944819D02*
X104661428Y-69944819D01*
X104661428Y-69944819D02*
X104518571Y-69897200D01*
X104518571Y-69897200D02*
X104423333Y-69801961D01*
X104423333Y-69801961D02*
X104375714Y-69706723D01*
X104375714Y-69706723D02*
X104328095Y-69516247D01*
X104328095Y-69516247D02*
X104328095Y-69373390D01*
X104328095Y-69373390D02*
X104375714Y-69182914D01*
X104375714Y-69182914D02*
X104423333Y-69087676D01*
X104423333Y-69087676D02*
X104518571Y-68992438D01*
X104518571Y-68992438D02*
X104661428Y-68944819D01*
X104661428Y-68944819D02*
X104756666Y-68944819D01*
X104756666Y-68944819D02*
X104899523Y-68992438D01*
X104899523Y-68992438D02*
X104947142Y-69040057D01*
X105280476Y-68944819D02*
X105899523Y-68944819D01*
X105899523Y-68944819D02*
X105566190Y-69325771D01*
X105566190Y-69325771D02*
X105709047Y-69325771D01*
X105709047Y-69325771D02*
X105804285Y-69373390D01*
X105804285Y-69373390D02*
X105851904Y-69421009D01*
X105851904Y-69421009D02*
X105899523Y-69516247D01*
X105899523Y-69516247D02*
X105899523Y-69754342D01*
X105899523Y-69754342D02*
X105851904Y-69849580D01*
X105851904Y-69849580D02*
X105804285Y-69897200D01*
X105804285Y-69897200D02*
X105709047Y-69944819D01*
X105709047Y-69944819D02*
X105423333Y-69944819D01*
X105423333Y-69944819D02*
X105328095Y-69897200D01*
X105328095Y-69897200D02*
X105280476Y-69849580D01*
X106232857Y-68944819D02*
X106851904Y-68944819D01*
X106851904Y-68944819D02*
X106518571Y-69325771D01*
X106518571Y-69325771D02*
X106661428Y-69325771D01*
X106661428Y-69325771D02*
X106756666Y-69373390D01*
X106756666Y-69373390D02*
X106804285Y-69421009D01*
X106804285Y-69421009D02*
X106851904Y-69516247D01*
X106851904Y-69516247D02*
X106851904Y-69754342D01*
X106851904Y-69754342D02*
X106804285Y-69849580D01*
X106804285Y-69849580D02*
X106756666Y-69897200D01*
X106756666Y-69897200D02*
X106661428Y-69944819D01*
X106661428Y-69944819D02*
X106375714Y-69944819D01*
X106375714Y-69944819D02*
X106280476Y-69897200D01*
X106280476Y-69897200D02*
X106232857Y-69849580D01*
X119961071Y-65254106D02*
X119484880Y-65587439D01*
X119961071Y-65825534D02*
X118961071Y-65825534D01*
X118961071Y-65825534D02*
X118961071Y-65444582D01*
X118961071Y-65444582D02*
X119008690Y-65349344D01*
X119008690Y-65349344D02*
X119056309Y-65301725D01*
X119056309Y-65301725D02*
X119151547Y-65254106D01*
X119151547Y-65254106D02*
X119294404Y-65254106D01*
X119294404Y-65254106D02*
X119389642Y-65301725D01*
X119389642Y-65301725D02*
X119437261Y-65349344D01*
X119437261Y-65349344D02*
X119484880Y-65444582D01*
X119484880Y-65444582D02*
X119484880Y-65825534D01*
X119961071Y-64301725D02*
X119961071Y-64873153D01*
X119961071Y-64587439D02*
X118961071Y-64587439D01*
X118961071Y-64587439D02*
X119103928Y-64682677D01*
X119103928Y-64682677D02*
X119199166Y-64777915D01*
X119199166Y-64777915D02*
X119246785Y-64873153D01*
X118961071Y-63968391D02*
X118961071Y-63349344D01*
X118961071Y-63349344D02*
X119342023Y-63682677D01*
X119342023Y-63682677D02*
X119342023Y-63539820D01*
X119342023Y-63539820D02*
X119389642Y-63444582D01*
X119389642Y-63444582D02*
X119437261Y-63396963D01*
X119437261Y-63396963D02*
X119532499Y-63349344D01*
X119532499Y-63349344D02*
X119770594Y-63349344D01*
X119770594Y-63349344D02*
X119865832Y-63396963D01*
X119865832Y-63396963D02*
X119913452Y-63444582D01*
X119913452Y-63444582D02*
X119961071Y-63539820D01*
X119961071Y-63539820D02*
X119961071Y-63825534D01*
X119961071Y-63825534D02*
X119913452Y-63920772D01*
X119913452Y-63920772D02*
X119865832Y-63968391D01*
X103009580Y-87004166D02*
X103057200Y-87051785D01*
X103057200Y-87051785D02*
X103104819Y-87194642D01*
X103104819Y-87194642D02*
X103104819Y-87289880D01*
X103104819Y-87289880D02*
X103057200Y-87432737D01*
X103057200Y-87432737D02*
X102961961Y-87527975D01*
X102961961Y-87527975D02*
X102866723Y-87575594D01*
X102866723Y-87575594D02*
X102676247Y-87623213D01*
X102676247Y-87623213D02*
X102533390Y-87623213D01*
X102533390Y-87623213D02*
X102342914Y-87575594D01*
X102342914Y-87575594D02*
X102247676Y-87527975D01*
X102247676Y-87527975D02*
X102152438Y-87432737D01*
X102152438Y-87432737D02*
X102104819Y-87289880D01*
X102104819Y-87289880D02*
X102104819Y-87194642D01*
X102104819Y-87194642D02*
X102152438Y-87051785D01*
X102152438Y-87051785D02*
X102200057Y-87004166D01*
X103104819Y-86527975D02*
X103104819Y-86337499D01*
X103104819Y-86337499D02*
X103057200Y-86242261D01*
X103057200Y-86242261D02*
X103009580Y-86194642D01*
X103009580Y-86194642D02*
X102866723Y-86099404D01*
X102866723Y-86099404D02*
X102676247Y-86051785D01*
X102676247Y-86051785D02*
X102295295Y-86051785D01*
X102295295Y-86051785D02*
X102200057Y-86099404D01*
X102200057Y-86099404D02*
X102152438Y-86147023D01*
X102152438Y-86147023D02*
X102104819Y-86242261D01*
X102104819Y-86242261D02*
X102104819Y-86432737D01*
X102104819Y-86432737D02*
X102152438Y-86527975D01*
X102152438Y-86527975D02*
X102200057Y-86575594D01*
X102200057Y-86575594D02*
X102295295Y-86623213D01*
X102295295Y-86623213D02*
X102533390Y-86623213D01*
X102533390Y-86623213D02*
X102628628Y-86575594D01*
X102628628Y-86575594D02*
X102676247Y-86527975D01*
X102676247Y-86527975D02*
X102723866Y-86432737D01*
X102723866Y-86432737D02*
X102723866Y-86242261D01*
X102723866Y-86242261D02*
X102676247Y-86147023D01*
X102676247Y-86147023D02*
X102628628Y-86099404D01*
X102628628Y-86099404D02*
X102533390Y-86051785D01*
X115736070Y-64710654D02*
X116545593Y-64710654D01*
X116545593Y-64710654D02*
X116640831Y-64663035D01*
X116640831Y-64663035D02*
X116688451Y-64615416D01*
X116688451Y-64615416D02*
X116736070Y-64520178D01*
X116736070Y-64520178D02*
X116736070Y-64329702D01*
X116736070Y-64329702D02*
X116688451Y-64234464D01*
X116688451Y-64234464D02*
X116640831Y-64186845D01*
X116640831Y-64186845D02*
X116545593Y-64139226D01*
X116545593Y-64139226D02*
X115736070Y-64139226D01*
X116069403Y-63234464D02*
X116736070Y-63234464D01*
X115688451Y-63472559D02*
X116402736Y-63710654D01*
X116402736Y-63710654D02*
X116402736Y-63091607D01*
X97357142Y-85454819D02*
X97023809Y-84978628D01*
X96785714Y-85454819D02*
X96785714Y-84454819D01*
X96785714Y-84454819D02*
X97166666Y-84454819D01*
X97166666Y-84454819D02*
X97261904Y-84502438D01*
X97261904Y-84502438D02*
X97309523Y-84550057D01*
X97309523Y-84550057D02*
X97357142Y-84645295D01*
X97357142Y-84645295D02*
X97357142Y-84788152D01*
X97357142Y-84788152D02*
X97309523Y-84883390D01*
X97309523Y-84883390D02*
X97261904Y-84931009D01*
X97261904Y-84931009D02*
X97166666Y-84978628D01*
X97166666Y-84978628D02*
X96785714Y-84978628D01*
X97738095Y-84550057D02*
X97785714Y-84502438D01*
X97785714Y-84502438D02*
X97880952Y-84454819D01*
X97880952Y-84454819D02*
X98119047Y-84454819D01*
X98119047Y-84454819D02*
X98214285Y-84502438D01*
X98214285Y-84502438D02*
X98261904Y-84550057D01*
X98261904Y-84550057D02*
X98309523Y-84645295D01*
X98309523Y-84645295D02*
X98309523Y-84740533D01*
X98309523Y-84740533D02*
X98261904Y-84883390D01*
X98261904Y-84883390D02*
X97690476Y-85454819D01*
X97690476Y-85454819D02*
X98309523Y-85454819D01*
X99166666Y-84788152D02*
X99166666Y-85454819D01*
X98928571Y-84407200D02*
X98690476Y-85121485D01*
X98690476Y-85121485D02*
X99309523Y-85121485D01*
X95234819Y-75246666D02*
X95234819Y-75722856D01*
X95234819Y-75722856D02*
X94234819Y-75722856D01*
X95234819Y-74389523D02*
X95234819Y-74960951D01*
X95234819Y-74675237D02*
X94234819Y-74675237D01*
X94234819Y-74675237D02*
X94377676Y-74770475D01*
X94377676Y-74770475D02*
X94472914Y-74865713D01*
X94472914Y-74865713D02*
X94520533Y-74960951D01*
X126963392Y-67370830D02*
X126915773Y-67418450D01*
X126915773Y-67418450D02*
X126772916Y-67466069D01*
X126772916Y-67466069D02*
X126677678Y-67466069D01*
X126677678Y-67466069D02*
X126534821Y-67418450D01*
X126534821Y-67418450D02*
X126439583Y-67323211D01*
X126439583Y-67323211D02*
X126391964Y-67227973D01*
X126391964Y-67227973D02*
X126344345Y-67037497D01*
X126344345Y-67037497D02*
X126344345Y-66894640D01*
X126344345Y-66894640D02*
X126391964Y-66704164D01*
X126391964Y-66704164D02*
X126439583Y-66608926D01*
X126439583Y-66608926D02*
X126534821Y-66513688D01*
X126534821Y-66513688D02*
X126677678Y-66466069D01*
X126677678Y-66466069D02*
X126772916Y-66466069D01*
X126772916Y-66466069D02*
X126915773Y-66513688D01*
X126915773Y-66513688D02*
X126963392Y-66561307D01*
X127344345Y-66561307D02*
X127391964Y-66513688D01*
X127391964Y-66513688D02*
X127487202Y-66466069D01*
X127487202Y-66466069D02*
X127725297Y-66466069D01*
X127725297Y-66466069D02*
X127820535Y-66513688D01*
X127820535Y-66513688D02*
X127868154Y-66561307D01*
X127868154Y-66561307D02*
X127915773Y-66656545D01*
X127915773Y-66656545D02*
X127915773Y-66751783D01*
X127915773Y-66751783D02*
X127868154Y-66894640D01*
X127868154Y-66894640D02*
X127296726Y-67466069D01*
X127296726Y-67466069D02*
X127915773Y-67466069D01*
X128772916Y-66466069D02*
X128582440Y-66466069D01*
X128582440Y-66466069D02*
X128487202Y-66513688D01*
X128487202Y-66513688D02*
X128439583Y-66561307D01*
X128439583Y-66561307D02*
X128344345Y-66704164D01*
X128344345Y-66704164D02*
X128296726Y-66894640D01*
X128296726Y-66894640D02*
X128296726Y-67275592D01*
X128296726Y-67275592D02*
X128344345Y-67370830D01*
X128344345Y-67370830D02*
X128391964Y-67418450D01*
X128391964Y-67418450D02*
X128487202Y-67466069D01*
X128487202Y-67466069D02*
X128677678Y-67466069D01*
X128677678Y-67466069D02*
X128772916Y-67418450D01*
X128772916Y-67418450D02*
X128820535Y-67370830D01*
X128820535Y-67370830D02*
X128868154Y-67275592D01*
X128868154Y-67275592D02*
X128868154Y-67037497D01*
X128868154Y-67037497D02*
X128820535Y-66942259D01*
X128820535Y-66942259D02*
X128772916Y-66894640D01*
X128772916Y-66894640D02*
X128677678Y-66847021D01*
X128677678Y-66847021D02*
X128487202Y-66847021D01*
X128487202Y-66847021D02*
X128391964Y-66894640D01*
X128391964Y-66894640D02*
X128344345Y-66942259D01*
X128344345Y-66942259D02*
X128296726Y-67037497D01*
X108473292Y-102065160D02*
X108235197Y-102477553D01*
X108446522Y-101444861D02*
X108473292Y-102065160D01*
X108473292Y-102065160D02*
X109023872Y-101778194D01*
X109230069Y-101897242D02*
X109766180Y-102206766D01*
X109766180Y-102206766D02*
X109287028Y-102370014D01*
X109287028Y-102370014D02*
X109410746Y-102441442D01*
X109410746Y-102441442D02*
X109469415Y-102530301D01*
X109469415Y-102530301D02*
X109486845Y-102595349D01*
X109486845Y-102595349D02*
X109480465Y-102701637D01*
X109480465Y-102701637D02*
X109361418Y-102907834D01*
X109361418Y-102907834D02*
X109272559Y-102966503D01*
X109272559Y-102966503D02*
X109207511Y-102983933D01*
X109207511Y-102983933D02*
X109101222Y-102977553D01*
X109101222Y-102977553D02*
X108853787Y-102834696D01*
X108853787Y-102834696D02*
X108795117Y-102745838D01*
X108795117Y-102745838D02*
X108777688Y-102680789D01*
X101149580Y-65242857D02*
X101197200Y-65290476D01*
X101197200Y-65290476D02*
X101244819Y-65433333D01*
X101244819Y-65433333D02*
X101244819Y-65528571D01*
X101244819Y-65528571D02*
X101197200Y-65671428D01*
X101197200Y-65671428D02*
X101101961Y-65766666D01*
X101101961Y-65766666D02*
X101006723Y-65814285D01*
X101006723Y-65814285D02*
X100816247Y-65861904D01*
X100816247Y-65861904D02*
X100673390Y-65861904D01*
X100673390Y-65861904D02*
X100482914Y-65814285D01*
X100482914Y-65814285D02*
X100387676Y-65766666D01*
X100387676Y-65766666D02*
X100292438Y-65671428D01*
X100292438Y-65671428D02*
X100244819Y-65528571D01*
X100244819Y-65528571D02*
X100244819Y-65433333D01*
X100244819Y-65433333D02*
X100292438Y-65290476D01*
X100292438Y-65290476D02*
X100340057Y-65242857D01*
X100244819Y-64909523D02*
X100244819Y-64290476D01*
X100244819Y-64290476D02*
X100625771Y-64623809D01*
X100625771Y-64623809D02*
X100625771Y-64480952D01*
X100625771Y-64480952D02*
X100673390Y-64385714D01*
X100673390Y-64385714D02*
X100721009Y-64338095D01*
X100721009Y-64338095D02*
X100816247Y-64290476D01*
X100816247Y-64290476D02*
X101054342Y-64290476D01*
X101054342Y-64290476D02*
X101149580Y-64338095D01*
X101149580Y-64338095D02*
X101197200Y-64385714D01*
X101197200Y-64385714D02*
X101244819Y-64480952D01*
X101244819Y-64480952D02*
X101244819Y-64766666D01*
X101244819Y-64766666D02*
X101197200Y-64861904D01*
X101197200Y-64861904D02*
X101149580Y-64909523D01*
X101244819Y-63338095D02*
X101244819Y-63909523D01*
X101244819Y-63623809D02*
X100244819Y-63623809D01*
X100244819Y-63623809D02*
X100387676Y-63719047D01*
X100387676Y-63719047D02*
X100482914Y-63814285D01*
X100482914Y-63814285D02*
X100530533Y-63909523D01*
X135050057Y-63345238D02*
X135002438Y-63440476D01*
X135002438Y-63440476D02*
X134907200Y-63535714D01*
X134907200Y-63535714D02*
X134764342Y-63678571D01*
X134764342Y-63678571D02*
X134716723Y-63773809D01*
X134716723Y-63773809D02*
X134716723Y-63869047D01*
X134954819Y-63821428D02*
X134907200Y-63916666D01*
X134907200Y-63916666D02*
X134811961Y-64011904D01*
X134811961Y-64011904D02*
X134621485Y-64059523D01*
X134621485Y-64059523D02*
X134288152Y-64059523D01*
X134288152Y-64059523D02*
X134097676Y-64011904D01*
X134097676Y-64011904D02*
X134002438Y-63916666D01*
X134002438Y-63916666D02*
X133954819Y-63821428D01*
X133954819Y-63821428D02*
X133954819Y-63630952D01*
X133954819Y-63630952D02*
X134002438Y-63535714D01*
X134002438Y-63535714D02*
X134097676Y-63440476D01*
X134097676Y-63440476D02*
X134288152Y-63392857D01*
X134288152Y-63392857D02*
X134621485Y-63392857D01*
X134621485Y-63392857D02*
X134811961Y-63440476D01*
X134811961Y-63440476D02*
X134907200Y-63535714D01*
X134907200Y-63535714D02*
X134954819Y-63630952D01*
X134954819Y-63630952D02*
X134954819Y-63821428D01*
X134954819Y-62440476D02*
X134954819Y-63011904D01*
X134954819Y-62726190D02*
X133954819Y-62726190D01*
X133954819Y-62726190D02*
X134097676Y-62821428D01*
X134097676Y-62821428D02*
X134192914Y-62916666D01*
X134192914Y-62916666D02*
X134240533Y-63011904D01*
D12*
%TO.C,C30*%
X113680000Y-66743733D02*
X113680000Y-67036267D01*
X114700000Y-66743733D02*
X114700000Y-67036267D01*
%TO.C,R25*%
X130777064Y-70020000D02*
X129322936Y-70020000D01*
X130777064Y-71840000D02*
X129322936Y-71840000D01*
%TO.C,C17*%
X88906400Y-99305066D02*
X88906400Y-99012532D01*
X89926400Y-99305066D02*
X89926400Y-99012532D01*
%TO.C,J2*%
X92220000Y-88309999D02*
X92220000Y-78039999D01*
X94979999Y-89579999D02*
X94980000Y-90959999D01*
X94980000Y-78039999D02*
X92220000Y-78039999D01*
X94980000Y-88309999D02*
X92220000Y-88309999D01*
X94980000Y-88309999D02*
X94980000Y-78039999D01*
X94980000Y-90959999D02*
X93600000Y-90959998D01*
%TO.C,C18*%
X94616400Y-97885067D02*
X94616400Y-97592533D01*
X95636400Y-97885067D02*
X95636400Y-97592533D01*
%TO.C,C21*%
X116152518Y-69601250D02*
X115859984Y-69601250D01*
X116152518Y-70621250D02*
X115859984Y-70621250D01*
%TO.C,R14*%
X121183750Y-62365974D02*
X121183750Y-61856526D01*
X122228750Y-62365974D02*
X122228750Y-61856526D01*
%TO.C,C22*%
X76054000Y-95548133D02*
X76054000Y-95840667D01*
X77074000Y-95548133D02*
X77074000Y-95840667D01*
%TO.C,R10*%
X120932500Y-75654724D02*
X120932500Y-75145276D01*
X121977500Y-75654724D02*
X121977500Y-75145276D01*
%TO.C,C6*%
X103875250Y-96703312D02*
X103875250Y-96995846D01*
X104895250Y-96703312D02*
X104895250Y-96995846D01*
%TO.C,C4*%
X101323733Y-100540000D02*
X101616267Y-100540000D01*
X101323733Y-101560000D02*
X101616267Y-101560000D01*
%TO.C,R16*%
X124751528Y-58488749D02*
X125260976Y-58488749D01*
X124751528Y-59533749D02*
X125260976Y-59533749D01*
%TO.C,C14*%
X126978650Y-89097733D02*
X126978650Y-89390267D01*
X127998650Y-89097733D02*
X127998650Y-89390267D01*
%TO.C,R6*%
X141597499Y-88196525D02*
X141597499Y-88705973D01*
X142642499Y-88196525D02*
X142642499Y-88705973D01*
%TO.C,R15*%
X126396250Y-64638314D02*
X126396250Y-63184186D01*
X128216250Y-64638314D02*
X128216250Y-63184186D01*
%TO.C,U3*%
X120728650Y-86554000D02*
X120998650Y-86554000D01*
X120728650Y-89314000D02*
X120728650Y-86554000D01*
X120728650Y-89314000D02*
X120728650Y-92074000D01*
X120728650Y-92074000D02*
X120998650Y-92074000D01*
X126248650Y-86554000D02*
X125978650Y-86554000D01*
X126248650Y-89314000D02*
X126248650Y-86554000D01*
X126248650Y-89314000D02*
X126248650Y-92074000D01*
X126248650Y-92074000D02*
X125978650Y-92074000D01*
X120998651Y-92839000D02*
X120668650Y-93079000D01*
X120668650Y-92599000D01*
X120998651Y-92839000D01*
G36*
X120998651Y-92839000D02*
G01*
X120668650Y-93079000D01*
X120668650Y-92599000D01*
X120998651Y-92839000D01*
G37*
%TO.C,R17*%
X121583752Y-57756526D02*
X121583752Y-58265974D01*
X122628752Y-57756526D02*
X122628752Y-58265974D01*
%TO.C,SW2*%
X80200000Y-82390000D02*
X86200000Y-82390000D01*
X80200000Y-89390000D02*
X80200000Y-82390000D01*
X86200000Y-82390000D02*
X86200000Y-89390000D01*
X86200000Y-89390000D02*
X80200000Y-89390000D01*
D13*
X84416553Y-85890000D02*
G75*
G02*
X81983447Y-85890000I-1216553J0D01*
G01*
X81983447Y-85890000D02*
G75*
G02*
X84416553Y-85890000I1216553J0D01*
G01*
D12*
%TO.C,C10*%
X113830000Y-93913733D02*
X113830000Y-94206267D01*
X114850000Y-93913733D02*
X114850000Y-94206267D01*
%TO.C,L2*%
X119806252Y-68911250D02*
X119806252Y-71911250D01*
X123206252Y-68911250D02*
X123206252Y-71911250D01*
%TO.C,R11*%
X91335276Y-94627500D02*
X91844724Y-94627500D01*
X91335276Y-95672500D02*
X91844724Y-95672500D01*
%TO.C,R18*%
X138974723Y-67097501D02*
X138465275Y-67097501D01*
X138974723Y-68142501D02*
X138465275Y-68142501D01*
%TO.C,C16*%
X103720000Y-72581232D02*
X103720000Y-72873766D01*
X104740000Y-72581232D02*
X104740000Y-72873766D01*
%TO.C,R1*%
X73917224Y-89977500D02*
X73407776Y-89977500D01*
X73917224Y-91022500D02*
X73407776Y-91022500D01*
%TO.C,L4*%
X115420000Y-93818748D02*
X115420000Y-94341252D01*
X116840000Y-93818748D02*
X116840000Y-94341252D01*
%TO.C,D4*%
X139380000Y-61100000D02*
X141180000Y-61100000D01*
X140380000Y-57880000D02*
X139580000Y-57880000D01*
X140380000Y-57880000D02*
X141180000Y-57880000D01*
X139079999Y-57930000D02*
X138840000Y-57600000D01*
X139320000Y-57600000D01*
X139079999Y-57930000D01*
G36*
X139079999Y-57930000D02*
G01*
X138840000Y-57600000D01*
X139320000Y-57600000D01*
X139079999Y-57930000D01*
G37*
%TO.C,C36*%
X93990000Y-63396267D02*
X93990000Y-63103733D01*
X95010000Y-63396267D02*
X95010000Y-63103733D01*
D13*
%TO.C,IC1*%
X51920000Y-65460000D02*
X39420000Y-65460000D01*
X39420001Y-58460000D01*
X51919999Y-58460000D01*
X51920000Y-65460000D01*
X87920000Y-77560000D02*
X51920000Y-77560000D01*
X51920000Y-56560000D01*
X87920000Y-56560000D01*
X87920000Y-77560000D01*
D12*
%TO.C,C32*%
X103180000Y-67173768D02*
X103180000Y-66881234D01*
X104200000Y-67173768D02*
X104200000Y-66881234D01*
%TO.C,C25*%
X90466000Y-59008768D02*
X90466000Y-58716234D01*
X91486000Y-59008768D02*
X91486000Y-58716234D01*
%TO.C,D6*%
X95390000Y-61890000D02*
X95390000Y-62065000D01*
X95390000Y-64610000D02*
X95390000Y-64435000D01*
X96065000Y-61890000D02*
X95390000Y-61890000D01*
X96065000Y-64610000D02*
X95390000Y-64610000D01*
X97935000Y-61890000D02*
X98610000Y-61890000D01*
X97935000Y-64610000D02*
X98310000Y-64610000D01*
X98610000Y-61890000D02*
X98610000Y-62065000D01*
X98750000Y-64800000D02*
X98470000Y-64800000D01*
X98610000Y-64610000D01*
X98750000Y-64800000D01*
G36*
X98750000Y-64800000D02*
G01*
X98470000Y-64800000D01*
X98610000Y-64610000D01*
X98750000Y-64800000D01*
G37*
%TO.C,C19*%
X119596251Y-58157517D02*
X119596251Y-57864983D01*
X120616251Y-58157517D02*
X120616251Y-57864983D01*
%TO.C,BT1*%
X61000000Y-30450000D02*
X139000000Y-30450000D01*
X61000000Y-50550000D02*
X61000000Y-30450000D01*
X139000000Y-30450000D02*
X139000000Y-50550000D01*
X139000000Y-50550000D02*
X61000000Y-50550000D01*
%TO.C,R23*%
X104967500Y-60535276D02*
X104967500Y-61044724D01*
X106012500Y-60535276D02*
X106012500Y-61044724D01*
%TO.C,C20*%
X116152519Y-71401250D02*
X115859985Y-71401250D01*
X116152519Y-72421250D02*
X115859985Y-72421250D01*
%TO.C,SW1*%
X62160000Y-82960000D02*
X68160000Y-82960000D01*
X62160000Y-89960000D02*
X62160000Y-82960000D01*
X68160000Y-82960000D02*
X68160000Y-89960000D01*
X68160000Y-89960000D02*
X62160000Y-89960000D01*
D13*
X66376553Y-86460000D02*
G75*
G02*
X63943447Y-86460000I-1216553J0D01*
G01*
X63943447Y-86460000D02*
G75*
G02*
X66376553Y-86460000I1216553J0D01*
G01*
D12*
%TO.C,R21*%
X111744724Y-58667500D02*
X111235276Y-58667500D01*
X111744724Y-59712500D02*
X111235276Y-59712500D01*
%TO.C,C12*%
X117625583Y-80982600D02*
X117918117Y-80982600D01*
X117625583Y-82002600D02*
X117918117Y-82002600D01*
%TO.C,R3*%
X118456926Y-82722700D02*
X118966374Y-82722700D01*
X118456926Y-83767700D02*
X118966374Y-83767700D01*
D13*
%TO.C,U2*%
X90830000Y-96320000D02*
X90980000Y-96320000D01*
X90830000Y-96470000D02*
X90830000Y-96320000D01*
X93530000Y-96320000D02*
X93380000Y-96320000D01*
X93530000Y-96320000D02*
X93530000Y-96470000D01*
X93530000Y-99020000D02*
X93380000Y-99020000D01*
X93540000Y-99020000D02*
X93540000Y-98870000D01*
D12*
X90830000Y-99380000D02*
X90470000Y-99020000D01*
X90830000Y-99020000D01*
X90830000Y-99380000D01*
G36*
X90830000Y-99380000D02*
G01*
X90470000Y-99020000D01*
X90830000Y-99020000D01*
X90830000Y-99380000D01*
G37*
%TO.C,C35*%
X133319999Y-88274982D02*
X133319999Y-88567516D01*
X134339999Y-88274982D02*
X134339999Y-88567516D01*
%TO.C,R8*%
X80770275Y-100917500D02*
X81279723Y-100917500D01*
X80770275Y-101962500D02*
X81279723Y-101962500D01*
%TO.C,C24*%
X91990000Y-59008768D02*
X91990000Y-58716234D01*
X93010000Y-59008768D02*
X93010000Y-58716234D01*
%TO.C,C5*%
X103755251Y-93615846D02*
X103755251Y-93323312D01*
X104775251Y-93615846D02*
X104775251Y-93323312D01*
%TO.C,Y4*%
X101255251Y-94579579D02*
X101255251Y-95559579D01*
X103165251Y-92309579D02*
X101365251Y-92309579D01*
X103275251Y-94579579D02*
X103275251Y-95559579D01*
%TO.C,U6*%
X106590000Y-80690000D02*
X107065000Y-80690000D01*
X106590000Y-81165000D02*
X106590000Y-80690000D01*
X106590000Y-87435000D02*
X106590000Y-87610000D01*
X107065000Y-87910000D02*
X106830000Y-87910000D01*
X113810000Y-80690000D02*
X113335000Y-80690000D01*
X113810000Y-81165000D02*
X113810000Y-80690000D01*
X113810000Y-87435000D02*
X113810000Y-87910000D01*
X113810000Y-87910000D02*
X113335000Y-87910000D01*
X106590000Y-87910000D02*
X106260000Y-88150000D01*
X106260000Y-87670000D01*
X106590000Y-87910000D01*
G36*
X106590000Y-87910000D02*
G01*
X106260000Y-88150000D01*
X106260000Y-87670000D01*
X106590000Y-87910000D01*
G37*
%TO.C,C27*%
X122896251Y-65364981D02*
X122896251Y-65657515D01*
X123916251Y-65364981D02*
X123916251Y-65657515D01*
%TO.C,R2*%
X86954724Y-80177500D02*
X86445276Y-80177500D01*
X86954724Y-81222500D02*
X86445276Y-81222500D01*
%TO.C,R20*%
X113667500Y-63144724D02*
X113667500Y-62635276D01*
X114712500Y-63144724D02*
X114712500Y-62635276D01*
%TO.C,C34*%
X86553733Y-78690000D02*
X86846267Y-78690000D01*
X86553733Y-79710000D02*
X86846267Y-79710000D01*
%TO.C,C15*%
X100933766Y-70420000D02*
X100641232Y-70420000D01*
X100933766Y-71440000D02*
X100641232Y-71440000D01*
%TO.C,C2*%
X111206234Y-95277500D02*
X111498768Y-95277500D01*
X111206234Y-96297500D02*
X111498768Y-96297500D01*
%TO.C,J3*%
X125030000Y-75855000D02*
X126410000Y-75855000D01*
X125030000Y-77235000D02*
X125030000Y-75855000D01*
X125030000Y-78505000D02*
X125030000Y-81155000D01*
X125030000Y-78505000D02*
X127790000Y-78505000D01*
X125030000Y-81155000D02*
X127790000Y-81155000D01*
X127790000Y-78505000D02*
X127790000Y-81155000D01*
%TO.C,D3*%
X129620000Y-61839999D02*
X129620000Y-67649999D01*
X133920000Y-61839999D02*
X129620000Y-61839999D01*
X133920000Y-61839999D02*
X133920000Y-67649999D01*
%TO.C,R4*%
X98554724Y-80977500D02*
X98045276Y-80977500D01*
X98554724Y-82022500D02*
X98045276Y-82022500D01*
%TO.C,C3*%
X108158769Y-95257500D02*
X107866235Y-95257500D01*
X108158769Y-96277500D02*
X107866235Y-96277500D01*
%TO.C,C7*%
X116003733Y-79452500D02*
X116296267Y-79452500D01*
X116003733Y-80472500D02*
X116296267Y-80472500D01*
%TO.C,D5*%
X107440000Y-61890000D02*
X107840000Y-61890000D01*
X107440000Y-62040000D02*
X107440000Y-61890000D01*
X107440000Y-64540000D02*
X107440000Y-64690000D01*
X107440000Y-64690000D02*
X107840000Y-64690000D01*
X110740000Y-62040000D02*
X110740000Y-61740000D01*
X110740000Y-64540000D02*
X110740000Y-64690000D01*
X110740000Y-64690000D02*
X110340000Y-64690000D01*
%TO.C,R9*%
X80770276Y-99417500D02*
X81279724Y-99417500D01*
X80770276Y-100462500D02*
X81279724Y-100462500D01*
%TO.C,C28*%
X138670000Y-64743734D02*
X138670000Y-65036268D01*
X139690000Y-64743734D02*
X139690000Y-65036268D01*
%TO.C,C11*%
X112190000Y-93163733D02*
X112190000Y-93456267D01*
X113210000Y-93163733D02*
X113210000Y-93456267D01*
%TO.C,R19*%
X136625276Y-61767500D02*
X137134724Y-61767500D01*
X136625276Y-62812500D02*
X137134724Y-62812500D01*
%TO.C,C29*%
X107943733Y-58680000D02*
X108236267Y-58680000D01*
X107943733Y-59700000D02*
X108236267Y-59700000D01*
%TO.C,C37*%
X98896267Y-60490000D02*
X98603733Y-60490000D01*
X98896267Y-61510000D02*
X98603733Y-61510000D01*
%TO.C,R5*%
X106154724Y-76977500D02*
X105645276Y-76977500D01*
X106154724Y-78022500D02*
X105645276Y-78022500D01*
%TO.C,C23*%
X93514000Y-59008768D02*
X93514000Y-58716234D01*
X94534000Y-59008768D02*
X94534000Y-58716234D01*
%TO.C,R12*%
X95184724Y-94627500D02*
X94675276Y-94627500D01*
X95184724Y-95672500D02*
X94675276Y-95672500D01*
%TO.C,D1*%
X113230000Y-74150000D02*
X119880000Y-74150000D01*
X113230000Y-77050000D02*
X113230000Y-74150000D01*
X118880000Y-77050000D02*
X113230000Y-77050000D01*
X119880000Y-74150000D02*
X119880000Y-76050000D01*
X119880000Y-76050000D02*
X118880000Y-77050000D01*
%TO.C,D2*%
X78170000Y-93390000D02*
X78170000Y-93500000D01*
X78170000Y-98690000D02*
X78170000Y-98580000D01*
X82470000Y-93390000D02*
X78170000Y-93390000D01*
X82470000Y-93500000D02*
X82470000Y-93390000D01*
X82970000Y-98690000D02*
X78170000Y-98690000D01*
%TO.C,C8*%
X106046267Y-78490000D02*
X105753733Y-78490000D01*
X106046267Y-79510000D02*
X105753733Y-79510000D01*
%TO.C,U5*%
X142480000Y-62329999D02*
X141680000Y-62330000D01*
X142480000Y-62329999D02*
X143280000Y-62330000D01*
X142480000Y-65450001D02*
X141680000Y-65450000D01*
X142480000Y-65450001D02*
X143280000Y-65450000D01*
X144020000Y-65730000D02*
X143540000Y-65730000D01*
X143780000Y-65400000D01*
X144020000Y-65730000D01*
G36*
X144020000Y-65730000D02*
G01*
X143540000Y-65730000D01*
X143780000Y-65400000D01*
X144020000Y-65730000D01*
G37*
%TO.C,L6*%
X138370800Y-86971772D02*
X137848296Y-86971772D01*
X138370800Y-88391772D02*
X137848296Y-88391772D01*
%TO.C,R7*%
X117983751Y-71265973D02*
X117983751Y-70756525D01*
X119028751Y-71265973D02*
X119028751Y-70756525D01*
%TO.C,R22*%
X103467500Y-62844724D02*
X103467500Y-62335276D01*
X104512500Y-62844724D02*
X104512500Y-62335276D01*
%TO.C,L3*%
X108990000Y-69350000D02*
X107490000Y-69350000D01*
X110490000Y-66030000D02*
X107490000Y-66030000D01*
%TO.C,J1*%
X118180001Y-100580000D02*
X118180002Y-99200000D01*
X119560001Y-100579999D02*
X118180001Y-100580000D01*
X120830001Y-97820000D02*
X126020001Y-97820000D01*
X120830001Y-100580000D02*
X120830001Y-97820000D01*
X120830001Y-100580000D02*
X126020001Y-100580000D01*
X126020001Y-100580000D02*
X126020001Y-97820000D01*
%TO.C,C13*%
X106596267Y-89827500D02*
X106303733Y-89827500D01*
X106596267Y-90847500D02*
X106303733Y-90847500D01*
%TO.C,C1*%
X72330000Y-85626267D02*
X72330000Y-85333733D01*
X73350000Y-85626267D02*
X73350000Y-85333733D01*
%TO.C,C33*%
X104690000Y-67173767D02*
X104690000Y-66881233D01*
X105710000Y-67173767D02*
X105710000Y-66881233D01*
%TO.C,R13*%
X121083752Y-65256525D02*
X121083752Y-65765973D01*
X122128752Y-65256525D02*
X122128752Y-65765973D01*
%TO.C,C9*%
X103530000Y-87108767D02*
X103530000Y-86816233D01*
X104550000Y-87108767D02*
X104550000Y-86816233D01*
%TO.C,U4*%
X117121252Y-63948750D02*
X117121252Y-61748750D01*
X117121252Y-63948750D02*
X117121252Y-66148750D01*
X120341252Y-63948750D02*
X120341252Y-61748750D01*
X120341252Y-63948750D02*
X120341252Y-66148750D01*
X117296252Y-66848750D02*
X116966252Y-67088750D01*
X116966252Y-66608751D01*
X117296252Y-66848750D01*
G36*
X117296252Y-66848750D02*
G01*
X116966252Y-67088750D01*
X116966252Y-66608751D01*
X117296252Y-66848750D01*
G37*
%TO.C,R24*%
X98254724Y-85977500D02*
X97745276Y-85977500D01*
X98254724Y-87022500D02*
X97745276Y-87022500D01*
%TO.C,L1*%
X98880001Y-73480000D02*
X95880001Y-73480000D01*
X98880001Y-76880000D02*
X95880001Y-76880000D01*
%TO.C,C26*%
X124596250Y-65364983D02*
X124596250Y-65657517D01*
X125616250Y-65364983D02*
X125616250Y-65657517D01*
%TO.C,Y3*%
X111029011Y-102710903D02*
X112739011Y-99749096D01*
X112739011Y-99749096D02*
X109170989Y-97689097D01*
%TO.C,C31*%
X101679999Y-67173767D02*
X101679999Y-66881233D01*
X102699999Y-67173767D02*
X102699999Y-66881233D01*
%TO.C,Q1*%
X136280000Y-63430000D02*
X135630000Y-63430001D01*
X136280000Y-63430000D02*
X136930000Y-63430001D01*
X136280000Y-66550002D02*
X135630000Y-66550001D01*
X136280000Y-66550002D02*
X136930000Y-66550001D01*
X137682500Y-66830001D02*
X137202500Y-66830000D01*
X137442500Y-66500001D01*
X137682500Y-66830001D01*
G36*
X137682500Y-66830001D02*
G01*
X137202500Y-66830000D01*
X137442500Y-66500001D01*
X137682500Y-66830001D01*
G37*
%TD*%
M02*
