%TF.GenerationSoftware,KiCad,Pcbnew,9.0.2*%
%TF.CreationDate,2025-09-24T23:37:42+05:00*%
%TF.ProjectId,Diplom,4469706c-6f6d-42e6-9b69-6361645f7063,rev?*%
%TF.SameCoordinates,Original*%
%TF.FileFunction,Copper,L2,Bot*%
%TF.FilePolarity,Positive*%
%FSLAX46Y46*%
G04 Gerber Fmt 4.6, Leading zero omitted, Abs format (unit mm)*
G04 Created by KiCad (PCBNEW 9.0.2) date 2025-09-24 23:37:42*
%MOMM*%
%LPD*%
G01*
G04 APERTURE LIST*
G04 Aperture macros list*
%AMRoundRect*
0 Rectangle with rounded corners*
0 $1 Rounding radius*
0 $2 $3 $4 $5 $6 $7 $8 $9 X,Y pos of 4 corners*
0 Add a 4 corners polygon primitive as box body*
4,1,4,$2,$3,$4,$5,$6,$7,$8,$9,$2,$3,0*
0 Add four circle primitives for the rounded corners*
1,1,$1+$1,$2,$3*
1,1,$1+$1,$4,$5*
1,1,$1+$1,$6,$7*
1,1,$1+$1,$8,$9*
0 Add four rect primitives between the rounded corners*
20,1,$1+$1,$2,$3,$4,$5,0*
20,1,$1+$1,$4,$5,$6,$7,0*
20,1,$1+$1,$6,$7,$8,$9,0*
20,1,$1+$1,$8,$9,$2,$3,0*%
G04 Aperture macros list end*
%TA.AperFunction,ComponentPad*%
%ADD10C,3.500000*%
%TD*%
%TA.AperFunction,ComponentPad*%
%ADD11R,3.500000X3.500000*%
%TD*%
%TA.AperFunction,ComponentPad*%
%ADD12R,1.700000X1.700000*%
%TD*%
%TA.AperFunction,ComponentPad*%
%ADD13C,1.700000*%
%TD*%
%TA.AperFunction,ComponentPad*%
%ADD14RoundRect,0.250000X-1.050000X-1.050000X1.050000X-1.050000X1.050000X1.050000X-1.050000X1.050000X0*%
%TD*%
%TA.AperFunction,ComponentPad*%
%ADD15C,2.600000*%
%TD*%
%TA.AperFunction,ComponentPad*%
%ADD16O,2.540000X1.500000*%
%TD*%
%TA.AperFunction,ComponentPad*%
%ADD17RoundRect,0.250000X1.020000X0.500000X-1.020000X0.500000X-1.020000X-0.500000X1.020000X-0.500000X0*%
%TD*%
%TA.AperFunction,ViaPad*%
%ADD18C,0.600000*%
%TD*%
%TA.AperFunction,ViaPad*%
%ADD19C,0.700000*%
%TD*%
%TA.AperFunction,Conductor*%
%ADD20C,0.200000*%
%TD*%
%TA.AperFunction,Conductor*%
%ADD21C,0.508000*%
%TD*%
%TA.AperFunction,Conductor*%
%ADD22C,0.400000*%
%TD*%
%TA.AperFunction,Conductor*%
%ADD23C,0.254000*%
%TD*%
%TA.AperFunction,Profile*%
%ADD24C,0.050000*%
%TD*%
G04 APERTURE END LIST*
D10*
%TO.P,BT1,2,-*%
%TO.N,Net-(BT1--)*%
X64000000Y-40500000D03*
D11*
%TO.P,BT1,1,+*%
%TO.N,Net-(BT1-+)*%
X136000000Y-40500000D03*
%TD*%
D12*
%TO.P,J1,1,Pin_1*%
%TO.N,GND*%
X119560001Y-99200000D03*
D13*
%TO.P,J1,2,Pin_2*%
%TO.N,/MCU/USART2_TX*%
X122100001Y-99200000D03*
%TO.P,J1,3,Pin_3*%
%TO.N,/MCU/USART2_RX*%
X124640000Y-99200000D03*
%TD*%
D12*
%TO.P,J3,1,Pin_1*%
%TO.N,VDD_MCU*%
X126410000Y-77235000D03*
D13*
%TO.P,J3,2,Pin_2*%
%TO.N,/MCU/TEMT6000*%
X126410000Y-79775000D03*
%TD*%
D14*
%TO.P,Y5,1,1*%
%TO.N,GND*%
X135690000Y-81790000D03*
D15*
%TO.P,Y5,2,2*%
%TO.N,Net-(L6-Pad1)*%
X140490001Y-81790000D03*
%TD*%
D16*
%TO.P,IC1,1,M0*%
%TO.N,/MCU/M1_LORA*%
X86419999Y-74680000D03*
%TO.P,IC1,2,M1*%
%TO.N,/MCU/M0_LORA*%
X86420000Y-72120000D03*
%TO.P,IC1,3,RXD*%
%TO.N,/MCU/USART1_TX_LORA*%
X86420000Y-69580000D03*
%TO.P,IC1,4,TXD*%
%TO.N,/MCU/USART1_RX_LORA*%
X86419999Y-67020000D03*
%TO.P,IC1,5,AUX*%
%TO.N,/MCU/AUX_LORA*%
X86420000Y-64520000D03*
%TO.P,IC1,6,VCC*%
%TO.N,+3V3*%
X86420000Y-61960000D03*
%TO.P,IC1,7,GND*%
%TO.N,GND*%
X86420000Y-59380000D03*
%TO.P,IC1,8,NC*%
%TO.N,unconnected-(IC1-NC-Pad8)*%
X54920000Y-68920000D03*
%TO.P,IC1,9,NC*%
%TO.N,unconnected-(IC1-NC-Pad9)*%
X54920000Y-71480000D03*
D17*
%TO.P,IC1,10,NC*%
%TO.N,unconnected-(IC1-NC-Pad10)*%
X54920000Y-74060000D03*
%TD*%
D12*
%TO.P,J2,1,Pin_1*%
%TO.N,Net-(J2-Pin_1)*%
X93600000Y-89579999D03*
D13*
%TO.P,J2,2,Pin_2*%
%TO.N,Net-(J2-Pin_2)*%
X93600000Y-87039999D03*
%TO.P,J2,3,Pin_3*%
%TO.N,Net-(J2-Pin_3)*%
X93600000Y-84500000D03*
%TO.P,J2,4,Pin_4*%
%TO.N,GND*%
X93600000Y-81959999D03*
%TO.P,J2,5,Pin_5*%
%TO.N,+3V3*%
X93600000Y-79419999D03*
%TD*%
D14*
%TO.P,SC1,1,+*%
%TO.N,Net-(SC1-+)*%
X135760000Y-75650000D03*
D15*
%TO.P,SC1,2,-*%
%TO.N,GND*%
X140560001Y-75650000D03*
%TD*%
D18*
%TO.N,/MCU/AXEL_SCK*%
X107500000Y-71250000D03*
X110250000Y-70500000D03*
%TO.N,/MCU/AXEL_SDO*%
X112750000Y-78750000D03*
%TO.N,/MCU/AXEL_SCK*%
X114000000Y-78500000D03*
%TO.N,/MCU/AXEL_SDA*%
X113000000Y-75750000D03*
%TO.N,/MCU/AXEL_CS*%
X100750000Y-82500000D03*
%TO.N,/MCU/AXEL_INT*%
X117000000Y-75750000D03*
%TO.N,/MCU/AXEL_CS*%
X96500000Y-68750000D03*
%TO.N,/MCU/AXEL_SCK*%
X97500000Y-67750000D03*
%TO.N,/MCU/AXEL_SDA*%
X98000000Y-66500000D03*
%TO.N,/MCU/AXEL_SDO*%
X99000000Y-66250000D03*
%TO.N,/MCU/AXEL_INT*%
X100000000Y-63750000D03*
%TO.N,GND*%
X94500000Y-65500000D03*
X100250000Y-59750000D03*
D19*
X137330000Y-60600000D03*
%TO.N,Net-(BT1--)*%
X140079999Y-61590001D03*
%TO.N,GND*%
X137279999Y-65090001D03*
X137330000Y-59170000D03*
%TO.N,Net-(BT1--)*%
X140670000Y-66050001D03*
%TO.N,GND*%
X137585000Y-58555001D03*
X136646600Y-67636601D03*
X137330000Y-59850001D03*
D18*
%TO.N,/MCU/I2C1_SCL*%
X92180000Y-96610000D03*
%TO.N,/MCU/SCK*%
X119354185Y-86438065D03*
%TO.N,/MCU/N_HOLD*%
X123245343Y-87475507D03*
%TO.N,/MCU/F_CS*%
X121404050Y-90941400D03*
%TO.N,/MCU/PIEZO*%
X112325171Y-89283069D03*
%TO.N,/MCU/USART1_TX_LORA*%
X110840000Y-77120000D03*
%TO.N,/MCU/M1_LORA*%
X108739236Y-78040764D03*
%TO.N,/MCU/TEMT6000*%
X116100000Y-87100000D03*
D19*
%TO.N,/MCU/PIEZO*%
X131639999Y-87541249D03*
D18*
%TO.N,/MCU/N_WP*%
X115155650Y-84244500D03*
%TO.N,/MCU/AUX_LORA*%
X111300000Y-76080000D03*
%TO.N,/MCU/NRST*%
X110800000Y-91397499D03*
%TO.N,/MCU/SCK*%
X124258650Y-87434000D03*
%TO.N,/MCU/BOOT0*%
X90000000Y-83600000D03*
D19*
%TO.N,/MCU/TEMT6000*%
X118530000Y-77500000D03*
D18*
%TO.N,/MCU/I2C1_SCL*%
X89650000Y-92790000D03*
%TO.N,/MCU/PV_CURRENT*%
X113119149Y-89185074D03*
%TO.N,/MCU/M0_LORA*%
X108720000Y-77050000D03*
%TO.N,/MCU/N_HOLD*%
X115943050Y-82838800D03*
%TO.N,GND*%
X120100000Y-81400000D03*
X112280000Y-82560000D03*
X125438650Y-90764001D03*
X115724030Y-81277056D03*
X108280000Y-84260000D03*
X108370000Y-86270000D03*
X110200000Y-86280000D03*
X110300000Y-103200000D03*
X110220000Y-82530000D03*
X121400000Y-83200000D03*
X89416400Y-101496300D03*
D19*
X103780000Y-101060000D03*
D18*
X108230000Y-82510000D03*
X112220000Y-86350000D03*
D19*
X106800000Y-97300000D03*
X90924000Y-58480000D03*
D18*
X104265251Y-91200000D03*
X70930000Y-82390000D03*
D19*
X110200000Y-84300000D03*
D18*
X72870000Y-82420000D03*
X123580000Y-74480000D03*
X126088650Y-90114000D03*
X95116400Y-100396300D03*
X84100001Y-80000000D03*
X76512500Y-97826250D03*
X108000000Y-79000000D03*
X111760000Y-91287500D03*
X78612500Y-101426250D03*
D19*
X115090000Y-96800000D03*
X96310000Y-93910000D03*
X114070000Y-96900000D03*
D18*
%TO.N,/MCU/NRST*%
X79000000Y-91801000D03*
%TO.N,GND*%
X103600000Y-79000000D03*
X104265251Y-90434749D03*
D19*
X104420000Y-99070000D03*
D18*
X118700000Y-79800000D03*
X109700000Y-97200000D03*
X103000000Y-86100000D03*
X112270000Y-84240000D03*
%TO.N,/MCU/USART1_RX_LORA*%
X106410000Y-73750000D03*
%TO.N,/MCU/F_CS*%
X115917650Y-84645499D03*
D19*
%TO.N,GND*%
X116300000Y-96760000D03*
%TO.N,/MCU/PV_CURRENT*%
X124040000Y-71660000D03*
D18*
%TO.N,/MCU/N_WP*%
X124121850Y-90585800D03*
%TO.N,/MCU/BOOT0*%
X105732106Y-85867894D03*
%TO.N,GND*%
X119506251Y-65111249D03*
X116952250Y-68545249D03*
X119306252Y-64411249D03*
D19*
X124484252Y-56078849D03*
D18*
X125106251Y-63211249D03*
X116139450Y-68545249D03*
X115199650Y-68519849D03*
X118506252Y-64411250D03*
D19*
X124434252Y-57238849D03*
D18*
X118606252Y-63711249D03*
D19*
X123464252Y-56718849D03*
D18*
X118706252Y-65111249D03*
%TO.N,+3V3*%
X102590000Y-64790000D03*
%TO.N,GND*%
X102133800Y-69679799D03*
X109068000Y-68206599D03*
%TO.N,+3V3*%
X103390000Y-64790000D03*
X113590000Y-59190000D03*
%TO.N,GND*%
X109068000Y-67139799D03*
X109042600Y-69451199D03*
X114046400Y-69628999D03*
%TO.N,+3V3*%
X104290000Y-64790000D03*
%TO.N,GND*%
X107090000Y-60290000D03*
X103734000Y-69628999D03*
X107090000Y-61090000D03*
X112090600Y-68003399D03*
X112090600Y-69730599D03*
%TO.N,+3V3*%
X105190000Y-64790000D03*
%TO.N,GND*%
X105334200Y-69628999D03*
X107990000Y-61090000D03*
X111790000Y-61390000D03*
X107990000Y-60290000D03*
%TD*%
D20*
%TO.N,/MCU/AXEL_SCK*%
X101000000Y-71250000D02*
X97500000Y-67750000D01*
X107500000Y-71250000D02*
X101000000Y-71250000D01*
X114250000Y-74250000D02*
X110500000Y-70500000D01*
X114250000Y-78250000D02*
X114250000Y-74250000D01*
X114000000Y-78500000D02*
X114250000Y-78250000D01*
X110500000Y-70500000D02*
X110250000Y-70500000D01*
%TO.N,/MCU/AXEL_SDO*%
X113750000Y-77750000D02*
X112750000Y-78750000D01*
X113750000Y-75250000D02*
X113750000Y-77750000D01*
X100750000Y-68000000D02*
X106500000Y-68000000D01*
X99000000Y-66250000D02*
X100750000Y-68000000D01*
X106500000Y-68000000D02*
X113750000Y-75250000D01*
%TO.N,/MCU/AXEL_SDA*%
X102000000Y-70500000D02*
X98000000Y-66500000D01*
X113000000Y-75500000D02*
X108000000Y-70500000D01*
X113000000Y-75750000D02*
X113000000Y-75500000D01*
X108000000Y-70500000D02*
X102000000Y-70500000D01*
%TO.N,/MCU/AXEL_CS*%
X103000000Y-80250000D02*
X100750000Y-82500000D01*
X109250000Y-80250000D02*
X103000000Y-80250000D01*
X112250000Y-75500000D02*
X112250000Y-77250000D01*
X112250000Y-77250000D02*
X109250000Y-80250000D01*
X108750000Y-72000000D02*
X112250000Y-75500000D01*
X99250000Y-72000000D02*
X108750000Y-72000000D01*
X96500000Y-68750000D02*
X96500000Y-69250000D01*
X96500000Y-69250000D02*
X99250000Y-72000000D01*
%TO.N,/MCU/AXEL_INT*%
X117000000Y-74750000D02*
X117000000Y-75750000D01*
X113000000Y-67750000D02*
X113000000Y-70750000D01*
X111250000Y-66000000D02*
X113000000Y-67750000D01*
X105750000Y-66000000D02*
X111250000Y-66000000D01*
X102250000Y-66000000D02*
X105750000Y-66000000D01*
X100000000Y-63750000D02*
X102250000Y-66000000D01*
X113000000Y-70750000D02*
X117000000Y-74750000D01*
D21*
%TO.N,/MCU/NRST*%
X79000000Y-91801000D02*
X88900000Y-91801000D01*
D20*
%TO.N,/MCU/N_WP*%
X118753185Y-86631091D02*
X118753185Y-86687008D01*
X123506050Y-89970000D02*
X124121850Y-90585800D01*
%TO.N,/MCU/N_HOLD*%
X118600000Y-82900000D02*
X123236707Y-87536707D01*
%TO.N,/MCU/N_WP*%
X115155650Y-84244500D02*
X115355651Y-84044499D01*
X118753185Y-86687008D02*
X122036177Y-89970000D01*
D22*
%TO.N,/MCU/PV_CURRENT*%
X128490000Y-88704015D02*
X125551615Y-91642400D01*
D20*
%TO.N,/MCU/SCK*%
X123600000Y-88100000D02*
X124254001Y-87446000D01*
%TO.N,/MCU/F_CS*%
X115917650Y-84645499D02*
X115975499Y-84645499D01*
X121404050Y-90074050D02*
X121404050Y-90941400D01*
D22*
%TO.N,/MCU/PV_CURRENT*%
X115576475Y-91642400D02*
X113119149Y-89185074D01*
D20*
%TO.N,/MCU/SCK*%
X119349536Y-86450065D02*
X120601671Y-87702200D01*
X122639694Y-87736450D02*
X122991751Y-88088507D01*
D21*
%TO.N,/MCU/PIEZO*%
X131638751Y-87541249D02*
X131639999Y-87541249D01*
X126760000Y-92420000D02*
X131638751Y-87541249D01*
X112325171Y-89458828D02*
X115286343Y-92420000D01*
D20*
%TO.N,/MCU/BOOT0*%
X103213212Y-83349000D02*
X93123240Y-83349000D01*
X105732106Y-85867894D02*
X103213212Y-83349000D01*
%TO.N,/MCU/F_CS*%
X115975499Y-84645499D02*
X121404050Y-90074050D01*
%TO.N,/MCU/BOOT0*%
X93123240Y-83349000D02*
X92872240Y-83600000D01*
D21*
%TO.N,/MCU/PIEZO*%
X112325171Y-89283069D02*
X112325171Y-89458828D01*
D20*
%TO.N,/MCU/BOOT0*%
X92872240Y-83600000D02*
X90000000Y-83600000D01*
%TO.N,/MCU/N_HOLD*%
X115934414Y-82900000D02*
X118600000Y-82900000D01*
%TO.N,/MCU/USART1_RX_LORA*%
X106360000Y-73700000D02*
X95140000Y-73700000D01*
%TO.N,/MCU/M1_LORA*%
X108739236Y-78040764D02*
X107408472Y-76710000D01*
X88970000Y-74680000D02*
X86419999Y-74680000D01*
X88990000Y-74660000D02*
X88970000Y-74680000D01*
X91040000Y-76710000D02*
X88990000Y-74660000D01*
%TO.N,/MCU/AUX_LORA*%
X88880000Y-65620000D02*
X87780000Y-64520000D01*
%TO.N,/MCU/M1_LORA*%
X107408472Y-76710000D02*
X106790000Y-76710000D01*
D21*
%TO.N,/MCU/PIEZO*%
X115286343Y-92420000D02*
X126760000Y-92420000D01*
D20*
%TO.N,/MCU/USART1_TX_LORA*%
X110840000Y-77120000D02*
X108310000Y-74590000D01*
%TO.N,/MCU/AUX_LORA*%
X107960000Y-72740000D02*
X95990000Y-72740000D01*
%TO.N,/MCU/USART1_RX_LORA*%
X95140000Y-73700000D02*
X88460000Y-67020000D01*
%TO.N,/MCU/AUX_LORA*%
X87780000Y-64520000D02*
X86420000Y-64520000D01*
%TO.N,/MCU/I2C1_SCL*%
X89650000Y-92790000D02*
X89740000Y-92880000D01*
X91850000Y-94990000D02*
X91850000Y-96280000D01*
X91850000Y-96280000D02*
X92180000Y-96610000D01*
X89650000Y-92790000D02*
X91850000Y-94990000D01*
%TO.N,/MCU/USART1_TX_LORA*%
X108310000Y-74590000D02*
X94160000Y-74590000D01*
%TO.N,/MCU/NRST*%
X110396499Y-91801000D02*
X104016308Y-91801000D01*
X88911000Y-91790000D02*
X88900000Y-91801000D01*
%TO.N,/MCU/TEMT6000*%
X114554650Y-85554650D02*
X114554650Y-81475350D01*
X114554650Y-81475350D02*
X118530000Y-77500000D01*
%TO.N,/MCU/NRST*%
X110800000Y-91397499D02*
X110396499Y-91801000D01*
%TO.N,/MCU/TEMT6000*%
X118530000Y-77500000D02*
X118630000Y-77400000D01*
%TO.N,/MCU/USART1_TX_LORA*%
X89150000Y-69580000D02*
X86420000Y-69580000D01*
%TO.N,/MCU/SCK*%
X123004658Y-88100000D02*
X123600000Y-88100000D01*
%TO.N,/MCU/M0_LORA*%
X92330000Y-75240000D02*
X89210000Y-72120000D01*
D21*
%TO.N,/MCU/NRST*%
X104005308Y-91790000D02*
X88911000Y-91790000D01*
D20*
%TO.N,/MCU/N_WP*%
X116166593Y-84044499D02*
X118753185Y-86631091D01*
X122036177Y-89970000D02*
X123506050Y-89970000D01*
%TO.N,/MCU/AUX_LORA*%
X95990000Y-72740000D02*
X88880000Y-65630000D01*
%TO.N,/MCU/M0_LORA*%
X106910000Y-75240000D02*
X92330000Y-75240000D01*
D22*
%TO.N,/MCU/PV_CURRENT*%
X124040000Y-71660000D02*
X128490000Y-76110000D01*
D20*
%TO.N,/MCU/USART1_TX_LORA*%
X94160000Y-74590000D02*
X89150000Y-69580000D01*
%TO.N,/MCU/N_WP*%
X115355651Y-84044499D02*
X116166593Y-84044499D01*
%TO.N,/MCU/AUX_LORA*%
X88880000Y-65630000D02*
X88880000Y-65620000D01*
X111300000Y-76080000D02*
X107960000Y-72740000D01*
%TO.N,/MCU/USART1_RX_LORA*%
X106410000Y-73750000D02*
X106360000Y-73700000D01*
X88460000Y-67020000D02*
X86419999Y-67020000D01*
%TO.N,/MCU/NRST*%
X104016308Y-91801000D02*
X104005308Y-91790000D01*
%TO.N,/MCU/M0_LORA*%
X89210000Y-72120000D02*
X86420000Y-72120000D01*
%TO.N,/MCU/TEMT6000*%
X116100000Y-87100000D02*
X114554650Y-85554650D01*
D22*
%TO.N,/MCU/PV_CURRENT*%
X128490000Y-76110000D02*
X128490000Y-88704015D01*
D20*
%TO.N,/MCU/SCK*%
X120601671Y-87702200D02*
X122639694Y-87702200D01*
%TO.N,/MCU/M0_LORA*%
X108720000Y-77050000D02*
X106910000Y-75240000D01*
%TO.N,/MCU/M1_LORA*%
X106790000Y-76710000D02*
X91040000Y-76710000D01*
D23*
%TO.N,+3V3*%
X102980000Y-64330000D02*
X103380000Y-64730000D01*
X104980000Y-59130000D02*
X102980000Y-61130000D01*
X102980000Y-61130000D02*
X102980000Y-64330000D01*
D21*
X102580000Y-64730000D02*
X105180000Y-64730000D01*
D23*
X113580000Y-59130000D02*
X104980000Y-59130000D01*
D22*
%TO.N,/MCU/PV_CURRENT*%
X125551615Y-91642400D02*
X115576475Y-91642400D01*
%TD*%
%TA.AperFunction,Conductor*%
%TO.N,Net-(BT1--)*%
G36*
X139943039Y-26520185D02*
G01*
X139988794Y-26572989D01*
X140000000Y-26624500D01*
X140000000Y-30999965D01*
X140002380Y-31218196D01*
X140002380Y-31218202D01*
X140040415Y-31652944D01*
X140040415Y-31652948D01*
X140116193Y-32082704D01*
X140116197Y-32082721D01*
X140229141Y-32504238D01*
X140378399Y-32914324D01*
X140562828Y-33309834D01*
X140562836Y-33309849D01*
X140781029Y-33687769D01*
X140781038Y-33687784D01*
X141031348Y-34045263D01*
X141245307Y-34300249D01*
X141311857Y-34379560D01*
X141620440Y-34688143D01*
X141620482Y-34688178D01*
X141954736Y-34968651D01*
X141954742Y-34968655D01*
X141954743Y-34968656D01*
X142312222Y-35218966D01*
X142666422Y-35423463D01*
X142690150Y-35437163D01*
X142690165Y-35437171D01*
X143085675Y-35621600D01*
X143392207Y-35733168D01*
X143495755Y-35770856D01*
X143495756Y-35770856D01*
X143495761Y-35770858D01*
X143628187Y-35806341D01*
X143917286Y-35883805D01*
X144347058Y-35959585D01*
X144781799Y-35997620D01*
X145000000Y-36000000D01*
X149375500Y-36000000D01*
X149442539Y-36019685D01*
X149488294Y-36072489D01*
X149499500Y-36124000D01*
X149499500Y-68522500D01*
X149479815Y-68589539D01*
X149427011Y-68635294D01*
X149375341Y-68646500D01*
X139123841Y-68633327D01*
X139056827Y-68613556D01*
X139011140Y-68560693D01*
X139000000Y-68509327D01*
X139000000Y-53000000D01*
X50624500Y-53000000D01*
X50557461Y-52980315D01*
X50511706Y-52927511D01*
X50500500Y-52876000D01*
X50500500Y-40378711D01*
X69894500Y-40378711D01*
X69894500Y-40621288D01*
X69926161Y-40861785D01*
X69988947Y-41096104D01*
X70081773Y-41320205D01*
X70081776Y-41320212D01*
X70203064Y-41530289D01*
X70203066Y-41530292D01*
X70203067Y-41530293D01*
X70350733Y-41722736D01*
X70350739Y-41722743D01*
X70522256Y-41894260D01*
X70522262Y-41894265D01*
X70714711Y-42041936D01*
X70924788Y-42163224D01*
X71148900Y-42256054D01*
X71383211Y-42318838D01*
X71563586Y-42342584D01*
X71623711Y-42350500D01*
X71623712Y-42350500D01*
X71866289Y-42350500D01*
X71914388Y-42344167D01*
X72106789Y-42318838D01*
X72341100Y-42256054D01*
X72565212Y-42163224D01*
X72775289Y-42041936D01*
X72967738Y-41894265D01*
X73139265Y-41722738D01*
X73286936Y-41530289D01*
X73408224Y-41320212D01*
X73501054Y-41096100D01*
X73563838Y-40861789D01*
X73595500Y-40621288D01*
X73595500Y-40378712D01*
X73595500Y-40378711D01*
X125504500Y-40378711D01*
X125504500Y-40621288D01*
X125536161Y-40861785D01*
X125598947Y-41096104D01*
X125691773Y-41320205D01*
X125691776Y-41320212D01*
X125813064Y-41530289D01*
X125813066Y-41530292D01*
X125813067Y-41530293D01*
X125960733Y-41722736D01*
X125960739Y-41722743D01*
X126132256Y-41894260D01*
X126132262Y-41894265D01*
X126324711Y-42041936D01*
X126534788Y-42163224D01*
X126758900Y-42256054D01*
X126993211Y-42318838D01*
X127173586Y-42342584D01*
X127233711Y-42350500D01*
X127233712Y-42350500D01*
X127476289Y-42350500D01*
X127524388Y-42344167D01*
X127716789Y-42318838D01*
X127951100Y-42256054D01*
X128175212Y-42163224D01*
X128385289Y-42041936D01*
X128577738Y-41894265D01*
X128749265Y-41722738D01*
X128896936Y-41530289D01*
X129018224Y-41320212D01*
X129111054Y-41096100D01*
X129173838Y-40861789D01*
X129205500Y-40621288D01*
X129205500Y-40378712D01*
X129173838Y-40138211D01*
X129111054Y-39903900D01*
X129018224Y-39679788D01*
X128896936Y-39469711D01*
X128749265Y-39277262D01*
X128749260Y-39277256D01*
X128577743Y-39105739D01*
X128577736Y-39105733D01*
X128385293Y-38958067D01*
X128385292Y-38958066D01*
X128385289Y-38958064D01*
X128175212Y-38836776D01*
X128175205Y-38836773D01*
X128095541Y-38803775D01*
X127951104Y-38743947D01*
X127757109Y-38691966D01*
X133249500Y-38691966D01*
X133249500Y-42308028D01*
X133249501Y-42308034D01*
X133260113Y-42427415D01*
X133316089Y-42623045D01*
X133316090Y-42623048D01*
X133316091Y-42623049D01*
X133410302Y-42803407D01*
X133410304Y-42803409D01*
X133538890Y-42961109D01*
X133632803Y-43037684D01*
X133696593Y-43089698D01*
X133876951Y-43183909D01*
X134072582Y-43239886D01*
X134191963Y-43250500D01*
X137808036Y-43250499D01*
X137927418Y-43239886D01*
X138123049Y-43183909D01*
X138303407Y-43089698D01*
X138461109Y-42961109D01*
X138589698Y-42803407D01*
X138683909Y-42623049D01*
X138739886Y-42427418D01*
X138750500Y-42308037D01*
X138750499Y-38691964D01*
X138739886Y-38572582D01*
X138683909Y-38376951D01*
X138589698Y-38196593D01*
X138537684Y-38132803D01*
X138461109Y-38038890D01*
X138303409Y-37910304D01*
X138303410Y-37910304D01*
X138303407Y-37910302D01*
X138123049Y-37816091D01*
X138123048Y-37816090D01*
X138123045Y-37816089D01*
X138005829Y-37782550D01*
X137927418Y-37760114D01*
X137927415Y-37760113D01*
X137927413Y-37760113D01*
X137861102Y-37754217D01*
X137808037Y-37749500D01*
X137808032Y-37749500D01*
X134191971Y-37749500D01*
X134191965Y-37749500D01*
X134191964Y-37749501D01*
X134180316Y-37750536D01*
X134072584Y-37760113D01*
X133876954Y-37816089D01*
X133786772Y-37863196D01*
X133696593Y-37910302D01*
X133696591Y-37910303D01*
X133696590Y-37910304D01*
X133538890Y-38038890D01*
X133410304Y-38196590D01*
X133316089Y-38376954D01*
X133260114Y-38572583D01*
X133260113Y-38572586D01*
X133253275Y-38649500D01*
X133250461Y-38681161D01*
X133249500Y-38691966D01*
X127757109Y-38691966D01*
X127757102Y-38691964D01*
X127716789Y-38681162D01*
X127716788Y-38681161D01*
X127716785Y-38681161D01*
X127476289Y-38649500D01*
X127476288Y-38649500D01*
X127233712Y-38649500D01*
X127233711Y-38649500D01*
X126993214Y-38681161D01*
X126758895Y-38743947D01*
X126534794Y-38836773D01*
X126534785Y-38836777D01*
X126324706Y-38958067D01*
X126132263Y-39105733D01*
X126132256Y-39105739D01*
X125960739Y-39277256D01*
X125960733Y-39277263D01*
X125813067Y-39469706D01*
X125691777Y-39679785D01*
X125691773Y-39679794D01*
X125598947Y-39903895D01*
X125536161Y-40138214D01*
X125504500Y-40378711D01*
X73595500Y-40378711D01*
X73563838Y-40138211D01*
X73501054Y-39903900D01*
X73408224Y-39679788D01*
X73286936Y-39469711D01*
X73139265Y-39277262D01*
X73139260Y-39277256D01*
X72967743Y-39105739D01*
X72967736Y-39105733D01*
X72775293Y-38958067D01*
X72775292Y-38958066D01*
X72775289Y-38958064D01*
X72565212Y-38836776D01*
X72565205Y-38836773D01*
X72341104Y-38743947D01*
X72147102Y-38691964D01*
X72106789Y-38681162D01*
X72106788Y-38681161D01*
X72106785Y-38681161D01*
X71866289Y-38649500D01*
X71866288Y-38649500D01*
X71623712Y-38649500D01*
X71623711Y-38649500D01*
X71383214Y-38681161D01*
X71148895Y-38743947D01*
X70924794Y-38836773D01*
X70924785Y-38836777D01*
X70714706Y-38958067D01*
X70522263Y-39105733D01*
X70522256Y-39105739D01*
X70350739Y-39277256D01*
X70350733Y-39277263D01*
X70203067Y-39469706D01*
X70081777Y-39679785D01*
X70081773Y-39679794D01*
X69988947Y-39903895D01*
X69926161Y-40138214D01*
X69894500Y-40378711D01*
X50500500Y-40378711D01*
X50500500Y-36124000D01*
X50520185Y-36056961D01*
X50572989Y-36011206D01*
X50624500Y-36000000D01*
X54999993Y-36000000D01*
X55000000Y-36000000D01*
X55218203Y-35997668D01*
X55652948Y-35959633D01*
X55653221Y-35959585D01*
X55683285Y-35954283D01*
X56082724Y-35883852D01*
X56504260Y-35770902D01*
X56914347Y-35621642D01*
X57309865Y-35437209D01*
X57687803Y-35219006D01*
X58045286Y-34968694D01*
X58379592Y-34688178D01*
X58688178Y-34379592D01*
X58968694Y-34045286D01*
X59219006Y-33687803D01*
X59437209Y-33309865D01*
X59621642Y-32914347D01*
X59770902Y-32504260D01*
X59883852Y-32082724D01*
X59959633Y-31652948D01*
X59997668Y-31218203D01*
X60000000Y-31000000D01*
X60000000Y-26624500D01*
X60019685Y-26557461D01*
X60072489Y-26511706D01*
X60124000Y-26500500D01*
X139876000Y-26500500D01*
X139943039Y-26520185D01*
G37*
%TD.AperFunction*%
%TD*%
%TA.AperFunction,Conductor*%
%TO.N,GND*%
G36*
X106266942Y-68620185D02*
G01*
X106287584Y-68636819D01*
X107338584Y-69687819D01*
X107372069Y-69749142D01*
X107367085Y-69818834D01*
X107325213Y-69874767D01*
X107259749Y-69899184D01*
X107250903Y-69899500D01*
X102300097Y-69899500D01*
X102233058Y-69879815D01*
X102212416Y-69863181D01*
X101161416Y-68812181D01*
X101127931Y-68750858D01*
X101132915Y-68681166D01*
X101174787Y-68625233D01*
X101240251Y-68600816D01*
X101249097Y-68600500D01*
X106199903Y-68600500D01*
X106266942Y-68620185D01*
G37*
%TD.AperFunction*%
%TA.AperFunction,Conductor*%
G36*
X137937539Y-54025185D02*
G01*
X137983294Y-54077989D01*
X137994500Y-54129500D01*
X137994500Y-68509351D01*
X137994559Y-68520266D01*
X137994560Y-68520278D01*
X138017344Y-68722442D01*
X138028483Y-68773803D01*
X138028483Y-68773805D01*
X138052757Y-68864886D01*
X138133606Y-69051574D01*
X138133608Y-69051577D01*
X138133609Y-69051579D01*
X138250387Y-69218176D01*
X138296074Y-69271039D01*
X138415041Y-69387598D01*
X138583992Y-69500944D01*
X138772301Y-69577960D01*
X138817783Y-69591378D01*
X138839331Y-69597736D01*
X138893185Y-69611224D01*
X138920170Y-69617983D01*
X139122549Y-69638826D01*
X149374049Y-69651999D01*
X149374899Y-69651994D01*
X149442031Y-69671352D01*
X149488042Y-69723933D01*
X149499500Y-69775993D01*
X149499500Y-95876000D01*
X149479815Y-95943039D01*
X149427011Y-95988794D01*
X149375500Y-96000000D01*
X145000000Y-96000000D01*
X144781799Y-96002380D01*
X144781797Y-96002380D01*
X144347055Y-96040415D01*
X144347051Y-96040415D01*
X143917295Y-96116193D01*
X143917278Y-96116197D01*
X143495761Y-96229141D01*
X143085675Y-96378399D01*
X142690165Y-96562828D01*
X142690150Y-96562836D01*
X142312230Y-96781029D01*
X142312215Y-96781038D01*
X141954736Y-97031348D01*
X141620437Y-97311859D01*
X141311859Y-97620437D01*
X141031348Y-97954736D01*
X140781038Y-98312215D01*
X140781029Y-98312230D01*
X140562836Y-98690150D01*
X140562828Y-98690165D01*
X140378399Y-99085675D01*
X140229141Y-99495761D01*
X140116197Y-99917278D01*
X140116193Y-99917295D01*
X140040415Y-100347051D01*
X140040415Y-100347055D01*
X140002380Y-100781797D01*
X140002380Y-100781803D01*
X140000000Y-101000034D01*
X140000000Y-105375500D01*
X139980315Y-105442539D01*
X139927511Y-105488294D01*
X139876000Y-105499500D01*
X60124000Y-105499500D01*
X60056961Y-105479815D01*
X60011206Y-105427011D01*
X60000000Y-105375500D01*
X60000000Y-100999996D01*
X59997688Y-100781804D01*
X59997688Y-100781803D01*
X59997688Y-100781796D01*
X59959653Y-100347049D01*
X59883871Y-99917272D01*
X59770928Y-99495761D01*
X59770924Y-99495745D01*
X59770922Y-99495741D01*
X59770921Y-99495735D01*
X59624597Y-99093713D01*
X120749501Y-99093713D01*
X120749501Y-99306287D01*
X120782755Y-99516243D01*
X120830001Y-99661652D01*
X120848445Y-99718414D01*
X120944952Y-99907820D01*
X121069891Y-100079786D01*
X121220214Y-100230109D01*
X121392180Y-100355048D01*
X121392182Y-100355049D01*
X121392185Y-100355051D01*
X121581589Y-100451557D01*
X121783758Y-100517246D01*
X121993714Y-100550500D01*
X121993715Y-100550500D01*
X122206287Y-100550500D01*
X122206288Y-100550500D01*
X122416244Y-100517246D01*
X122618413Y-100451557D01*
X122807817Y-100355051D01*
X122829790Y-100339086D01*
X122979787Y-100230109D01*
X122979789Y-100230106D01*
X122979793Y-100230104D01*
X123130105Y-100079792D01*
X123130107Y-100079788D01*
X123130110Y-100079786D01*
X123248172Y-99917286D01*
X123255052Y-99907816D01*
X123259513Y-99899058D01*
X123307484Y-99848262D01*
X123375304Y-99831464D01*
X123441441Y-99853998D01*
X123480484Y-99899054D01*
X123484949Y-99907817D01*
X123609890Y-100079786D01*
X123760213Y-100230109D01*
X123932179Y-100355048D01*
X123932181Y-100355049D01*
X123932184Y-100355051D01*
X124121588Y-100451557D01*
X124323757Y-100517246D01*
X124533713Y-100550500D01*
X124533714Y-100550500D01*
X124746286Y-100550500D01*
X124746287Y-100550500D01*
X124956243Y-100517246D01*
X125158412Y-100451557D01*
X125347816Y-100355051D01*
X125369789Y-100339086D01*
X125519786Y-100230109D01*
X125519788Y-100230106D01*
X125519792Y-100230104D01*
X125670104Y-100079792D01*
X125670106Y-100079788D01*
X125670109Y-100079786D01*
X125788171Y-99917286D01*
X125795051Y-99907816D01*
X125891557Y-99718412D01*
X125957246Y-99516243D01*
X125990500Y-99306287D01*
X125990500Y-99093713D01*
X125957246Y-98883757D01*
X125891557Y-98681588D01*
X125795051Y-98492184D01*
X125795049Y-98492181D01*
X125795048Y-98492179D01*
X125670109Y-98320213D01*
X125519786Y-98169890D01*
X125347820Y-98044951D01*
X125158414Y-97948444D01*
X125158413Y-97948443D01*
X125158412Y-97948443D01*
X124956243Y-97882754D01*
X124956241Y-97882753D01*
X124956240Y-97882753D01*
X124794957Y-97857208D01*
X124746287Y-97849500D01*
X124533713Y-97849500D01*
X124485042Y-97857208D01*
X124323760Y-97882753D01*
X124121585Y-97948444D01*
X123932179Y-98044951D01*
X123760213Y-98169890D01*
X123609890Y-98320213D01*
X123484948Y-98492183D01*
X123480482Y-98500949D01*
X123432506Y-98551742D01*
X123364684Y-98568535D01*
X123298550Y-98545995D01*
X123259514Y-98500942D01*
X123255049Y-98492179D01*
X123130110Y-98320213D01*
X122979787Y-98169890D01*
X122807821Y-98044951D01*
X122618415Y-97948444D01*
X122618414Y-97948443D01*
X122618413Y-97948443D01*
X122416244Y-97882754D01*
X122416242Y-97882753D01*
X122416241Y-97882753D01*
X122254958Y-97857208D01*
X122206288Y-97849500D01*
X121993714Y-97849500D01*
X121945043Y-97857208D01*
X121783761Y-97882753D01*
X121581586Y-97948444D01*
X121392180Y-98044951D01*
X121220214Y-98169890D01*
X121069891Y-98320213D01*
X120944952Y-98492179D01*
X120848445Y-98681585D01*
X120782754Y-98883760D01*
X120750780Y-99085640D01*
X120749501Y-99093713D01*
X59624597Y-99093713D01*
X59621661Y-99085646D01*
X59437245Y-98690165D01*
X59437231Y-98690134D01*
X59437223Y-98690119D01*
X59223657Y-98320213D01*
X59219023Y-98312186D01*
X59219015Y-98312175D01*
X59219011Y-98312168D01*
X58968709Y-97954700D01*
X58804830Y-97759397D01*
X58688193Y-97620394D01*
X58688190Y-97620391D01*
X58379625Y-97311826D01*
X58379613Y-97311815D01*
X58379606Y-97311808D01*
X58279939Y-97228178D01*
X58045299Y-97031290D01*
X57687831Y-96780988D01*
X57687820Y-96780981D01*
X57687814Y-96780977D01*
X57528238Y-96688846D01*
X57309880Y-96562777D01*
X57309865Y-96562769D01*
X56914363Y-96378344D01*
X56914361Y-96378343D01*
X56914354Y-96378340D01*
X56504266Y-96229080D01*
X56504265Y-96229079D01*
X56504255Y-96229076D01*
X56127272Y-96128064D01*
X56082728Y-96116129D01*
X56082722Y-96116127D01*
X56082718Y-96116127D01*
X55652955Y-96040348D01*
X55305153Y-96009920D01*
X55218204Y-96002313D01*
X55218202Y-96002312D01*
X55218195Y-96002312D01*
X55000003Y-96000000D01*
X55000000Y-96000000D01*
X50624500Y-96000000D01*
X50557461Y-95980315D01*
X50511706Y-95927511D01*
X50500500Y-95876000D01*
X50500500Y-91722153D01*
X78199500Y-91722153D01*
X78199500Y-91879846D01*
X78230261Y-92034489D01*
X78230264Y-92034501D01*
X78290602Y-92180172D01*
X78290609Y-92180185D01*
X78378210Y-92311288D01*
X78378213Y-92311292D01*
X78489707Y-92422786D01*
X78489711Y-92422789D01*
X78620814Y-92510390D01*
X78620827Y-92510397D01*
X78752503Y-92564938D01*
X78766503Y-92570737D01*
X78921153Y-92601499D01*
X78921156Y-92601500D01*
X78921158Y-92601500D01*
X79078844Y-92601500D01*
X79078845Y-92601499D01*
X79211136Y-92575185D01*
X79233488Y-92570739D01*
X79233489Y-92570738D01*
X79233497Y-92570737D01*
X79247498Y-92564937D01*
X79294947Y-92555500D01*
X88729368Y-92555500D01*
X88796407Y-92575185D01*
X88842162Y-92627989D01*
X88852106Y-92697147D01*
X88850988Y-92703676D01*
X88849500Y-92711158D01*
X88849500Y-92711159D01*
X88849500Y-92868846D01*
X88880261Y-93023489D01*
X88880264Y-93023501D01*
X88940602Y-93169172D01*
X88940609Y-93169185D01*
X89028210Y-93300288D01*
X89028213Y-93300292D01*
X89139707Y-93411786D01*
X89139711Y-93411789D01*
X89270814Y-93499390D01*
X89270827Y-93499397D01*
X89416498Y-93559735D01*
X89416503Y-93559737D01*
X89481147Y-93572595D01*
X89571849Y-93590638D01*
X89633760Y-93623023D01*
X89635339Y-93624574D01*
X91213181Y-95202416D01*
X91246666Y-95263739D01*
X91249500Y-95290097D01*
X91249500Y-96193330D01*
X91249499Y-96193348D01*
X91249499Y-96359054D01*
X91249498Y-96359054D01*
X91290423Y-96511785D01*
X91301605Y-96531153D01*
X91319358Y-96561900D01*
X91319360Y-96561904D01*
X91355153Y-96623902D01*
X91363405Y-96638196D01*
X91377793Y-96682970D01*
X91378311Y-96682868D01*
X91379204Y-96687361D01*
X91379418Y-96688025D01*
X91379497Y-96688834D01*
X91410261Y-96843489D01*
X91410264Y-96843501D01*
X91470602Y-96989172D01*
X91470609Y-96989185D01*
X91558210Y-97120288D01*
X91558213Y-97120292D01*
X91669707Y-97231786D01*
X91669711Y-97231789D01*
X91800814Y-97319390D01*
X91800827Y-97319397D01*
X91946498Y-97379735D01*
X91946503Y-97379737D01*
X92101153Y-97410499D01*
X92101156Y-97410500D01*
X92101158Y-97410500D01*
X92258844Y-97410500D01*
X92258845Y-97410499D01*
X92413497Y-97379737D01*
X92559179Y-97319394D01*
X92690289Y-97231789D01*
X92801789Y-97120289D01*
X92889394Y-96989179D01*
X92949737Y-96843497D01*
X92980500Y-96688842D01*
X92980500Y-96531158D01*
X92980500Y-96531155D01*
X92980499Y-96531153D01*
X92976646Y-96511785D01*
X92949737Y-96376503D01*
X92942511Y-96359057D01*
X92889397Y-96230827D01*
X92889390Y-96230814D01*
X92801789Y-96099711D01*
X92801786Y-96099707D01*
X92690292Y-95988213D01*
X92690288Y-95988210D01*
X92559185Y-95900609D01*
X92559179Y-95900606D01*
X92527046Y-95887296D01*
X92472643Y-95843454D01*
X92450579Y-95777160D01*
X92450500Y-95772735D01*
X92450500Y-95079059D01*
X92450501Y-95079046D01*
X92450501Y-94910945D01*
X92450501Y-94910943D01*
X92409577Y-94758215D01*
X92380639Y-94708095D01*
X92330520Y-94621284D01*
X92218716Y-94509480D01*
X92218715Y-94509479D01*
X92214385Y-94505149D01*
X92214374Y-94505139D01*
X90484574Y-92775339D01*
X90475511Y-92758743D01*
X90462380Y-92745134D01*
X90451972Y-92715634D01*
X90451089Y-92714016D01*
X90450638Y-92711851D01*
X90446827Y-92692693D01*
X90453054Y-92623101D01*
X90495916Y-92567923D01*
X90561806Y-92544678D01*
X90568444Y-92544500D01*
X104079621Y-92544500D01*
X104079622Y-92544499D01*
X104225388Y-92515505D01*
X104362698Y-92458629D01*
X104416922Y-92422397D01*
X104483598Y-92401520D01*
X104485812Y-92401500D01*
X110309830Y-92401500D01*
X110309846Y-92401501D01*
X110317442Y-92401501D01*
X110475553Y-92401501D01*
X110475556Y-92401501D01*
X110628284Y-92360577D01*
X110678403Y-92331639D01*
X110765215Y-92281520D01*
X110821280Y-92225454D01*
X110828807Y-92219911D01*
X110853197Y-92211029D01*
X110875983Y-92198587D01*
X110878152Y-92198136D01*
X110878841Y-92197999D01*
X110878842Y-92197999D01*
X111033497Y-92167236D01*
X111179179Y-92106893D01*
X111310289Y-92019288D01*
X111421789Y-91907788D01*
X111509394Y-91776678D01*
X111569737Y-91630996D01*
X111600500Y-91476341D01*
X111600500Y-91318657D01*
X111600500Y-91318654D01*
X111600499Y-91318652D01*
X111572840Y-91179603D01*
X111569737Y-91164002D01*
X111552079Y-91121371D01*
X111509397Y-91018326D01*
X111509390Y-91018313D01*
X111421789Y-90887210D01*
X111421786Y-90887206D01*
X111310292Y-90775712D01*
X111310288Y-90775709D01*
X111179185Y-90688108D01*
X111179172Y-90688101D01*
X111033501Y-90627763D01*
X111033489Y-90627760D01*
X110878845Y-90596999D01*
X110878842Y-90596999D01*
X110721158Y-90596999D01*
X110721155Y-90596999D01*
X110566510Y-90627760D01*
X110566498Y-90627763D01*
X110420827Y-90688101D01*
X110420814Y-90688108D01*
X110289711Y-90775709D01*
X110289707Y-90775712D01*
X110178213Y-90887206D01*
X110178210Y-90887210D01*
X110090609Y-91018313D01*
X110090602Y-91018326D01*
X110046852Y-91123952D01*
X110003012Y-91178356D01*
X109936718Y-91200421D01*
X109932291Y-91200500D01*
X104518739Y-91200500D01*
X104451700Y-91180815D01*
X104449849Y-91179603D01*
X104426493Y-91163997D01*
X104362698Y-91121371D01*
X104290839Y-91091606D01*
X104225388Y-91064495D01*
X104225380Y-91064493D01*
X104079624Y-91035500D01*
X104079620Y-91035500D01*
X94848877Y-91035500D01*
X94781838Y-91015815D01*
X94736083Y-90963011D01*
X94726139Y-90893853D01*
X94755164Y-90830297D01*
X94774561Y-90812237D01*
X94807546Y-90787545D01*
X94893796Y-90672330D01*
X94944091Y-90537482D01*
X94950500Y-90477872D01*
X94950499Y-89204222D01*
X111524671Y-89204222D01*
X111524671Y-89361915D01*
X111555431Y-89516557D01*
X111555434Y-89516567D01*
X111573730Y-89560737D01*
X111580786Y-89583996D01*
X111590259Y-89631616D01*
X111590259Y-89631618D01*
X111599664Y-89678900D01*
X111599667Y-89678912D01*
X111606482Y-89695363D01*
X111656539Y-89816213D01*
X111656543Y-89816220D01*
X111739113Y-89939796D01*
X111739114Y-89939797D01*
X114695943Y-92896624D01*
X114695964Y-92896647D01*
X114805372Y-93006055D01*
X114805375Y-93006057D01*
X114805377Y-93006059D01*
X114887948Y-93061230D01*
X114928954Y-93088630D01*
X115009388Y-93121946D01*
X115066263Y-93145505D01*
X115066272Y-93145506D01*
X115066273Y-93145507D01*
X115090446Y-93150315D01*
X115090453Y-93150316D01*
X115212029Y-93174501D01*
X115212031Y-93174501D01*
X115366769Y-93174501D01*
X115366789Y-93174500D01*
X126679554Y-93174500D01*
X126679574Y-93174501D01*
X126685688Y-93174501D01*
X126834314Y-93174501D01*
X126871009Y-93167200D01*
X126955894Y-93150315D01*
X126980080Y-93145505D01*
X127036955Y-93121946D01*
X127117389Y-93088630D01*
X127240966Y-93006059D01*
X131870431Y-88376591D01*
X131910656Y-88349714D01*
X131936476Y-88339019D01*
X132042862Y-88294952D01*
X132182161Y-88201875D01*
X132300625Y-88083411D01*
X132393702Y-87944112D01*
X132457815Y-87789331D01*
X132490499Y-87625016D01*
X132490499Y-87457482D01*
X132457815Y-87293167D01*
X132396974Y-87146285D01*
X132393703Y-87138388D01*
X132300625Y-86999086D01*
X132182161Y-86880622D01*
X132042859Y-86787544D01*
X131888081Y-86723433D01*
X131888073Y-86723431D01*
X131723770Y-86690749D01*
X131723766Y-86690749D01*
X131556232Y-86690749D01*
X131556227Y-86690749D01*
X131391924Y-86723431D01*
X131391916Y-86723433D01*
X131237138Y-86787544D01*
X131097836Y-86880622D01*
X130979372Y-86999086D01*
X130886294Y-87138388D01*
X130886292Y-87138392D01*
X130833298Y-87266328D01*
X130806419Y-87306555D01*
X129402181Y-88710793D01*
X129340858Y-88744278D01*
X129271166Y-88739294D01*
X129215233Y-88697422D01*
X129190816Y-88631958D01*
X129190500Y-88623112D01*
X129190500Y-81671995D01*
X138689501Y-81671995D01*
X138689501Y-81908004D01*
X138689502Y-81908020D01*
X138718648Y-82129409D01*
X138720308Y-82142014D01*
X138740404Y-82217013D01*
X138781395Y-82369993D01*
X138871715Y-82588045D01*
X138871720Y-82588056D01*
X138918975Y-82669902D01*
X138989728Y-82792450D01*
X138989730Y-82792453D01*
X138989731Y-82792454D01*
X139133407Y-82979697D01*
X139133413Y-82979704D01*
X139300296Y-83146587D01*
X139300302Y-83146592D01*
X139487551Y-83290273D01*
X139618919Y-83366118D01*
X139691944Y-83408280D01*
X139691949Y-83408282D01*
X139691952Y-83408284D01*
X139910008Y-83498606D01*
X140137987Y-83559693D01*
X140371990Y-83590500D01*
X140371997Y-83590500D01*
X140608005Y-83590500D01*
X140608012Y-83590500D01*
X140842015Y-83559693D01*
X141069994Y-83498606D01*
X141288050Y-83408284D01*
X141492451Y-83290273D01*
X141679700Y-83146592D01*
X141846593Y-82979699D01*
X141990274Y-82792450D01*
X142108285Y-82588049D01*
X142198607Y-82369993D01*
X142259694Y-82142014D01*
X142290501Y-81908011D01*
X142290501Y-81671989D01*
X142259694Y-81437986D01*
X142198607Y-81210007D01*
X142108285Y-80991951D01*
X142108283Y-80991948D01*
X142108281Y-80991943D01*
X142028254Y-80853334D01*
X141990274Y-80787550D01*
X141846593Y-80600301D01*
X141846588Y-80600295D01*
X141679705Y-80433412D01*
X141679698Y-80433406D01*
X141492455Y-80289730D01*
X141492454Y-80289729D01*
X141492451Y-80289727D01*
X141410958Y-80242677D01*
X141288057Y-80171719D01*
X141288046Y-80171714D01*
X141069994Y-80081394D01*
X140842011Y-80020306D01*
X140608021Y-79989501D01*
X140608018Y-79989500D01*
X140608012Y-79989500D01*
X140371990Y-79989500D01*
X140371984Y-79989500D01*
X140371980Y-79989501D01*
X140137990Y-80020306D01*
X139910007Y-80081394D01*
X139691955Y-80171714D01*
X139691944Y-80171719D01*
X139487546Y-80289730D01*
X139300303Y-80433406D01*
X139300296Y-80433412D01*
X139133413Y-80600295D01*
X139133407Y-80600302D01*
X138989731Y-80787545D01*
X138871720Y-80991943D01*
X138871715Y-80991954D01*
X138781395Y-81210006D01*
X138720307Y-81437989D01*
X138689502Y-81671979D01*
X138689501Y-81671995D01*
X129190500Y-81671995D01*
X129190500Y-76041004D01*
X129163581Y-75905676D01*
X129163580Y-75905674D01*
X129163580Y-75905672D01*
X129157465Y-75890909D01*
X129154832Y-75884552D01*
X129154810Y-75884501D01*
X129154810Y-75884500D01*
X129136585Y-75840500D01*
X129131756Y-75828842D01*
X129110778Y-75778194D01*
X129110771Y-75778182D01*
X129034115Y-75663459D01*
X129004481Y-75633825D01*
X128936542Y-75565886D01*
X127920639Y-74549983D01*
X133959500Y-74549983D01*
X133959500Y-76750001D01*
X133959501Y-76750018D01*
X133970000Y-76852796D01*
X133970001Y-76852799D01*
X134009118Y-76970844D01*
X134025186Y-77019334D01*
X134117288Y-77168656D01*
X134241344Y-77292712D01*
X134390666Y-77384814D01*
X134557203Y-77439999D01*
X134659991Y-77450500D01*
X136860008Y-77450499D01*
X136962797Y-77439999D01*
X137129334Y-77384814D01*
X137278656Y-77292712D01*
X137402712Y-77168656D01*
X137494814Y-77019334D01*
X137549999Y-76852797D01*
X137560500Y-76750009D01*
X137560499Y-74549992D01*
X137549999Y-74447203D01*
X137494814Y-74280666D01*
X137402712Y-74131344D01*
X137278656Y-74007288D01*
X137129334Y-73915186D01*
X136962797Y-73860001D01*
X136962795Y-73860000D01*
X136860010Y-73849500D01*
X134659998Y-73849500D01*
X134659981Y-73849501D01*
X134557203Y-73860000D01*
X134557200Y-73860001D01*
X134390668Y-73915185D01*
X134390663Y-73915187D01*
X134241342Y-74007289D01*
X134117289Y-74131342D01*
X134025187Y-74280663D01*
X134025186Y-74280666D01*
X133970001Y-74447203D01*
X133970001Y-74447204D01*
X133970000Y-74447204D01*
X133959500Y-74549983D01*
X127920639Y-74549983D01*
X124903096Y-71532439D01*
X124869611Y-71471116D01*
X124869174Y-71469021D01*
X124857816Y-71411918D01*
X124793703Y-71257137D01*
X124746955Y-71187174D01*
X124700626Y-71117837D01*
X124582162Y-70999373D01*
X124442860Y-70906295D01*
X124288082Y-70842184D01*
X124288074Y-70842182D01*
X124123771Y-70809500D01*
X124123767Y-70809500D01*
X123956233Y-70809500D01*
X123956228Y-70809500D01*
X123791925Y-70842182D01*
X123791917Y-70842184D01*
X123637139Y-70906295D01*
X123497837Y-70999373D01*
X123379373Y-71117837D01*
X123286295Y-71257139D01*
X123222184Y-71411917D01*
X123222182Y-71411925D01*
X123189500Y-71576228D01*
X123189500Y-71743771D01*
X123222182Y-71908074D01*
X123222184Y-71908082D01*
X123286295Y-72062860D01*
X123379373Y-72202162D01*
X123497837Y-72320626D01*
X123590494Y-72382537D01*
X123637137Y-72413703D01*
X123791918Y-72477816D01*
X123848950Y-72489160D01*
X123910859Y-72521544D01*
X123912439Y-72523096D01*
X127062162Y-75672819D01*
X127095647Y-75734142D01*
X127090663Y-75803834D01*
X127048791Y-75859767D01*
X126983327Y-75884184D01*
X126974481Y-75884500D01*
X125512129Y-75884500D01*
X125512123Y-75884501D01*
X125452516Y-75890908D01*
X125317671Y-75941202D01*
X125317664Y-75941206D01*
X125202455Y-76027452D01*
X125202452Y-76027455D01*
X125116206Y-76142664D01*
X125116202Y-76142671D01*
X125065908Y-76277517D01*
X125059501Y-76337116D01*
X125059500Y-76337135D01*
X125059500Y-78132870D01*
X125059501Y-78132876D01*
X125065908Y-78192483D01*
X125116202Y-78327328D01*
X125116206Y-78327335D01*
X125202452Y-78442544D01*
X125202455Y-78442547D01*
X125317664Y-78528793D01*
X125317671Y-78528797D01*
X125449082Y-78577810D01*
X125505016Y-78619681D01*
X125529433Y-78685145D01*
X125514582Y-78753418D01*
X125493431Y-78781673D01*
X125379889Y-78895215D01*
X125254951Y-79067179D01*
X125158444Y-79256585D01*
X125158443Y-79256587D01*
X125158443Y-79256588D01*
X125154171Y-79269735D01*
X125092753Y-79458760D01*
X125059500Y-79668713D01*
X125059500Y-79881286D01*
X125081518Y-80020306D01*
X125092754Y-80091243D01*
X125118902Y-80171719D01*
X125158444Y-80293414D01*
X125254951Y-80482820D01*
X125379890Y-80654786D01*
X125530213Y-80805109D01*
X125702179Y-80930048D01*
X125702181Y-80930049D01*
X125702184Y-80930051D01*
X125891588Y-81026557D01*
X126093757Y-81092246D01*
X126303713Y-81125500D01*
X126303714Y-81125500D01*
X126516286Y-81125500D01*
X126516287Y-81125500D01*
X126726243Y-81092246D01*
X126928412Y-81026557D01*
X127117816Y-80930051D01*
X127227308Y-80850501D01*
X127289786Y-80805109D01*
X127289788Y-80805106D01*
X127289792Y-80805104D01*
X127440104Y-80654792D01*
X127565051Y-80482816D01*
X127565052Y-80482812D01*
X127565181Y-80482636D01*
X127620511Y-80439970D01*
X127690124Y-80433991D01*
X127751920Y-80466596D01*
X127786277Y-80527435D01*
X127789500Y-80555521D01*
X127789500Y-88362496D01*
X127769815Y-88429535D01*
X127753181Y-88450177D01*
X125297777Y-90905581D01*
X125270849Y-90920284D01*
X125245031Y-90936877D01*
X125238830Y-90937768D01*
X125236454Y-90939066D01*
X125210096Y-90941900D01*
X125018294Y-90941900D01*
X124951255Y-90922215D01*
X124905500Y-90869411D01*
X124895556Y-90800253D01*
X124896677Y-90793708D01*
X124922350Y-90664644D01*
X124922350Y-90506955D01*
X124922349Y-90506953D01*
X124891588Y-90352310D01*
X124891587Y-90352303D01*
X124862241Y-90281454D01*
X124831247Y-90206627D01*
X124831240Y-90206614D01*
X124743639Y-90075511D01*
X124743636Y-90075507D01*
X124632142Y-89964013D01*
X124632138Y-89964010D01*
X124501035Y-89876409D01*
X124501022Y-89876402D01*
X124355351Y-89816064D01*
X124355341Y-89816061D01*
X124199999Y-89785161D01*
X124183242Y-89776395D01*
X124164764Y-89772376D01*
X124139727Y-89753633D01*
X124138088Y-89752776D01*
X124136510Y-89751225D01*
X123993640Y-89608355D01*
X123993638Y-89608352D01*
X123874767Y-89489481D01*
X123874766Y-89489480D01*
X123787954Y-89439360D01*
X123787954Y-89439359D01*
X123787950Y-89439358D01*
X123737835Y-89410423D01*
X123585107Y-89369499D01*
X123426993Y-89369499D01*
X123419397Y-89369499D01*
X123419381Y-89369500D01*
X122336274Y-89369500D01*
X122269235Y-89349815D01*
X122248593Y-89333181D01*
X121429793Y-88514381D01*
X121396308Y-88453058D01*
X121401292Y-88383366D01*
X121443164Y-88327433D01*
X121508628Y-88303016D01*
X121517474Y-88302700D01*
X122305347Y-88302700D01*
X122372386Y-88322385D01*
X122393027Y-88339018D01*
X122529684Y-88475676D01*
X122623364Y-88569356D01*
X122634860Y-88579438D01*
X122635942Y-88580520D01*
X122635944Y-88580521D01*
X122635948Y-88580524D01*
X122709714Y-88623112D01*
X122772874Y-88659577D01*
X122925601Y-88700500D01*
X123520942Y-88700500D01*
X123679057Y-88700501D01*
X123831784Y-88659577D01*
X123968716Y-88580520D01*
X124282489Y-88266746D01*
X124343810Y-88233263D01*
X124345953Y-88232816D01*
X124492147Y-88203737D01*
X124637829Y-88143394D01*
X124768939Y-88055789D01*
X124880439Y-87944289D01*
X124968044Y-87813179D01*
X124969614Y-87809390D01*
X125028385Y-87667501D01*
X125028387Y-87667497D01*
X125059150Y-87512842D01*
X125059150Y-87355158D01*
X125059150Y-87355155D01*
X125059149Y-87355153D01*
X125049482Y-87306555D01*
X125028387Y-87200503D01*
X125028385Y-87200498D01*
X124968047Y-87054827D01*
X124968040Y-87054814D01*
X124880439Y-86923711D01*
X124880436Y-86923707D01*
X124768942Y-86812213D01*
X124768938Y-86812210D01*
X124637835Y-86724609D01*
X124637822Y-86724602D01*
X124492151Y-86664264D01*
X124492139Y-86664261D01*
X124337495Y-86633500D01*
X124337492Y-86633500D01*
X124179808Y-86633500D01*
X124179805Y-86633500D01*
X124025160Y-86664261D01*
X124025148Y-86664264D01*
X123879477Y-86724602D01*
X123879464Y-86724609D01*
X123789828Y-86784503D01*
X123723150Y-86805381D01*
X123655770Y-86786896D01*
X123652047Y-86784504D01*
X123624526Y-86766115D01*
X123624515Y-86766109D01*
X123478844Y-86705771D01*
X123478832Y-86705768D01*
X123324188Y-86675007D01*
X123324185Y-86675007D01*
X123275604Y-86675007D01*
X123208565Y-86655322D01*
X123187923Y-86638688D01*
X119087590Y-82538355D01*
X119087588Y-82538352D01*
X118968717Y-82419481D01*
X118968716Y-82419480D01*
X118881904Y-82369360D01*
X118881904Y-82369359D01*
X118881900Y-82369358D01*
X118831785Y-82340423D01*
X118679057Y-82299499D01*
X118520943Y-82299499D01*
X118513347Y-82299499D01*
X118513331Y-82299500D01*
X116587190Y-82299500D01*
X116520151Y-82279815D01*
X116499508Y-82263180D01*
X116453342Y-82217013D01*
X116453338Y-82217010D01*
X116322235Y-82129409D01*
X116322222Y-82129402D01*
X116176551Y-82069064D01*
X116176539Y-82069061D01*
X116021895Y-82038300D01*
X116021892Y-82038300D01*
X115864208Y-82038300D01*
X115864205Y-82038300D01*
X115709560Y-82069061D01*
X115709548Y-82069064D01*
X115563877Y-82129402D01*
X115563864Y-82129409D01*
X115432761Y-82217010D01*
X115432757Y-82217013D01*
X115366831Y-82282940D01*
X115305508Y-82316425D01*
X115235816Y-82311441D01*
X115179883Y-82269569D01*
X115155466Y-82204105D01*
X115155150Y-82195259D01*
X115155150Y-81775447D01*
X115174835Y-81708408D01*
X115191469Y-81687766D01*
X118492416Y-78386819D01*
X118553739Y-78353334D01*
X118580097Y-78350500D01*
X118613768Y-78350500D01*
X118613769Y-78350499D01*
X118778082Y-78317816D01*
X118932863Y-78253703D01*
X119072162Y-78160626D01*
X119190626Y-78042162D01*
X119283703Y-77902863D01*
X119347816Y-77748082D01*
X119380500Y-77583767D01*
X119380500Y-77416233D01*
X119347816Y-77251918D01*
X119283703Y-77097137D01*
X119231718Y-77019336D01*
X119190626Y-76957837D01*
X119072162Y-76839373D01*
X118932860Y-76746295D01*
X118778082Y-76682184D01*
X118778074Y-76682182D01*
X118613771Y-76649500D01*
X118613767Y-76649500D01*
X118446233Y-76649500D01*
X118446228Y-76649500D01*
X118281925Y-76682182D01*
X118281917Y-76682184D01*
X118127139Y-76746295D01*
X117987837Y-76839373D01*
X117869373Y-76957837D01*
X117776295Y-77097139D01*
X117712184Y-77251917D01*
X117712182Y-77251925D01*
X117679500Y-77416228D01*
X117679500Y-77449902D01*
X117659815Y-77516941D01*
X117643181Y-77537583D01*
X114074131Y-81106632D01*
X114074129Y-81106635D01*
X114024011Y-81193444D01*
X114024009Y-81193446D01*
X113995075Y-81243559D01*
X113995074Y-81243560D01*
X113995073Y-81243565D01*
X113954149Y-81396293D01*
X113954149Y-81396295D01*
X113954149Y-81564396D01*
X113954150Y-81564409D01*
X113954150Y-85467980D01*
X113954149Y-85467998D01*
X113954149Y-85633704D01*
X113954148Y-85633704D01*
X113995073Y-85786436D01*
X114010157Y-85812560D01*
X114010158Y-85812565D01*
X114010160Y-85812565D01*
X114074129Y-85923364D01*
X114074131Y-85923367D01*
X114192999Y-86042235D01*
X114193005Y-86042240D01*
X115265425Y-87114660D01*
X115298910Y-87175983D01*
X115299361Y-87178149D01*
X115330261Y-87333491D01*
X115330264Y-87333501D01*
X115390602Y-87479172D01*
X115390609Y-87479185D01*
X115478210Y-87610288D01*
X115478213Y-87610292D01*
X115589707Y-87721786D01*
X115589711Y-87721789D01*
X115720814Y-87809390D01*
X115720827Y-87809397D01*
X115866498Y-87869735D01*
X115866503Y-87869737D01*
X116021153Y-87900499D01*
X116021156Y-87900500D01*
X116021158Y-87900500D01*
X116178844Y-87900500D01*
X116178845Y-87900499D01*
X116333497Y-87869737D01*
X116479179Y-87809394D01*
X116610289Y-87721789D01*
X116721789Y-87610289D01*
X116809394Y-87479179D01*
X116869737Y-87333497D01*
X116900500Y-87178842D01*
X116900500Y-87021158D01*
X116900500Y-87021155D01*
X116900499Y-87021153D01*
X116896110Y-86999086D01*
X116869737Y-86866503D01*
X116869735Y-86866498D01*
X116809397Y-86720827D01*
X116809390Y-86720814D01*
X116725891Y-86595850D01*
X116725890Y-86595849D01*
X116721789Y-86589711D01*
X116610289Y-86478211D01*
X116604150Y-86474109D01*
X116604148Y-86474107D01*
X116479185Y-86390609D01*
X116479172Y-86390602D01*
X116333501Y-86330264D01*
X116333491Y-86330261D01*
X116178149Y-86299361D01*
X116116238Y-86266976D01*
X116114660Y-86265425D01*
X115408514Y-85559279D01*
X115375029Y-85497956D01*
X115380013Y-85428264D01*
X115421885Y-85372331D01*
X115487349Y-85347914D01*
X115543646Y-85357036D01*
X115684153Y-85415236D01*
X115838803Y-85445998D01*
X115838806Y-85445999D01*
X115838808Y-85445999D01*
X115875402Y-85445999D01*
X115942441Y-85465684D01*
X115963083Y-85482318D01*
X120762219Y-90281454D01*
X120795704Y-90342777D01*
X120790720Y-90412469D01*
X120777640Y-90438026D01*
X120694659Y-90562214D01*
X120694652Y-90562227D01*
X120634314Y-90707898D01*
X120634311Y-90707910D01*
X120607621Y-90842091D01*
X120575236Y-90904002D01*
X120514521Y-90938576D01*
X120486004Y-90941900D01*
X115917994Y-90941900D01*
X115850955Y-90922215D01*
X115830313Y-90905581D01*
X113915220Y-88990488D01*
X113888340Y-88950259D01*
X113828546Y-88805901D01*
X113828539Y-88805888D01*
X113740938Y-88674785D01*
X113740935Y-88674781D01*
X113629441Y-88563287D01*
X113629437Y-88563284D01*
X113498334Y-88475683D01*
X113498321Y-88475676D01*
X113352650Y-88415338D01*
X113352638Y-88415335D01*
X113197994Y-88384574D01*
X113197991Y-88384574D01*
X113040307Y-88384574D01*
X113040304Y-88384574D01*
X112885659Y-88415335D01*
X112885647Y-88415338D01*
X112739971Y-88475678D01*
X112739969Y-88475679D01*
X112690909Y-88508460D01*
X112624231Y-88529337D01*
X112574568Y-88519918D01*
X112558669Y-88513332D01*
X112558659Y-88513329D01*
X112404016Y-88482569D01*
X112404013Y-88482569D01*
X112246329Y-88482569D01*
X112246326Y-88482569D01*
X112091681Y-88513330D01*
X112091669Y-88513333D01*
X111945998Y-88573671D01*
X111945985Y-88573678D01*
X111814882Y-88661279D01*
X111814878Y-88661282D01*
X111703384Y-88772776D01*
X111703381Y-88772780D01*
X111615780Y-88903883D01*
X111615773Y-88903896D01*
X111555435Y-89049567D01*
X111555432Y-89049579D01*
X111524671Y-89204222D01*
X94950499Y-89204222D01*
X94950499Y-88682127D01*
X94944091Y-88622516D01*
X94921999Y-88563285D01*
X94893797Y-88487670D01*
X94893793Y-88487663D01*
X94807547Y-88372454D01*
X94807544Y-88372451D01*
X94692335Y-88286205D01*
X94692328Y-88286201D01*
X94560917Y-88237188D01*
X94504983Y-88195317D01*
X94480566Y-88129852D01*
X94495418Y-88061579D01*
X94516563Y-88033331D01*
X94630104Y-87919791D01*
X94644121Y-87900499D01*
X94755048Y-87747819D01*
X94755047Y-87747819D01*
X94755051Y-87747815D01*
X94851557Y-87558411D01*
X94917246Y-87356242D01*
X94950500Y-87146286D01*
X94950500Y-86933712D01*
X94917246Y-86723756D01*
X94851557Y-86521587D01*
X94755051Y-86332183D01*
X94755049Y-86332180D01*
X94755048Y-86332178D01*
X94630109Y-86160212D01*
X94479786Y-86009889D01*
X94307817Y-85884948D01*
X94299054Y-85880483D01*
X94248258Y-85832508D01*
X94231464Y-85764687D01*
X94254002Y-85698552D01*
X94299058Y-85659513D01*
X94307816Y-85655051D01*
X94439636Y-85559279D01*
X94479786Y-85530109D01*
X94479788Y-85530106D01*
X94479792Y-85530104D01*
X94630104Y-85379792D01*
X94630106Y-85379788D01*
X94630109Y-85379786D01*
X94755048Y-85207820D01*
X94755047Y-85207820D01*
X94755051Y-85207816D01*
X94851557Y-85018412D01*
X94917246Y-84816243D01*
X94950500Y-84606287D01*
X94950500Y-84393713D01*
X94917246Y-84183757D01*
X94893870Y-84111816D01*
X94891876Y-84041977D01*
X94927956Y-83982144D01*
X94990657Y-83951316D01*
X95011802Y-83949500D01*
X102913115Y-83949500D01*
X102980154Y-83969185D01*
X103000796Y-83985819D01*
X104897531Y-85882554D01*
X104931016Y-85943877D01*
X104931467Y-85946043D01*
X104962367Y-86101385D01*
X104962370Y-86101395D01*
X105022708Y-86247066D01*
X105022715Y-86247079D01*
X105110316Y-86378182D01*
X105110319Y-86378186D01*
X105221813Y-86489680D01*
X105221817Y-86489683D01*
X105352920Y-86577284D01*
X105352933Y-86577291D01*
X105488636Y-86633500D01*
X105498609Y-86637631D01*
X105653259Y-86668393D01*
X105653262Y-86668394D01*
X105653264Y-86668394D01*
X105810950Y-86668394D01*
X105810951Y-86668393D01*
X105965603Y-86637631D01*
X106111285Y-86577288D01*
X106242395Y-86489683D01*
X106353895Y-86378183D01*
X106441500Y-86247073D01*
X106501843Y-86101391D01*
X106532606Y-85946736D01*
X106532606Y-85789052D01*
X106532606Y-85789049D01*
X106532605Y-85789047D01*
X106528816Y-85769999D01*
X106501843Y-85634397D01*
X106501556Y-85633704D01*
X106441503Y-85488721D01*
X106441496Y-85488708D01*
X106353895Y-85357605D01*
X106353892Y-85357601D01*
X106242398Y-85246107D01*
X106242394Y-85246104D01*
X106111291Y-85158503D01*
X106111278Y-85158496D01*
X105965607Y-85098158D01*
X105965597Y-85098155D01*
X105810255Y-85067255D01*
X105748344Y-85034870D01*
X105746766Y-85033319D01*
X103700802Y-82987355D01*
X103700800Y-82987352D01*
X103581929Y-82868481D01*
X103581921Y-82868475D01*
X103477394Y-82808127D01*
X103477391Y-82808126D01*
X103444999Y-82789424D01*
X103444998Y-82789423D01*
X103444997Y-82789423D01*
X103292269Y-82748499D01*
X103134155Y-82748499D01*
X103126559Y-82748499D01*
X103126543Y-82748500D01*
X101667848Y-82748500D01*
X101647636Y-82742565D01*
X101626599Y-82741438D01*
X101614783Y-82732918D01*
X101600809Y-82728815D01*
X101587014Y-82712895D01*
X101569925Y-82700573D01*
X101564591Y-82687017D01*
X101555054Y-82676011D01*
X101552055Y-82655160D01*
X101544342Y-82635556D01*
X101545670Y-82610752D01*
X101545110Y-82606853D01*
X101546230Y-82600312D01*
X101550637Y-82578153D01*
X101583020Y-82516241D01*
X101584515Y-82514719D01*
X103212417Y-80886819D01*
X103273740Y-80853334D01*
X103300098Y-80850500D01*
X109163331Y-80850500D01*
X109163347Y-80850501D01*
X109170943Y-80850501D01*
X109329054Y-80850501D01*
X109329057Y-80850501D01*
X109481785Y-80809577D01*
X109531904Y-80780639D01*
X109618716Y-80730520D01*
X109730520Y-80618716D01*
X109730520Y-80618714D01*
X109740728Y-80608507D01*
X109740729Y-80608504D01*
X111737819Y-78611415D01*
X111799142Y-78577931D01*
X111868834Y-78582915D01*
X111924767Y-78624787D01*
X111949184Y-78690251D01*
X111949500Y-78699097D01*
X111949500Y-78828846D01*
X111980261Y-78983489D01*
X111980264Y-78983501D01*
X112040602Y-79129172D01*
X112040609Y-79129185D01*
X112128210Y-79260288D01*
X112128213Y-79260292D01*
X112239707Y-79371786D01*
X112239711Y-79371789D01*
X112370814Y-79459390D01*
X112370827Y-79459397D01*
X112516498Y-79519735D01*
X112516503Y-79519737D01*
X112671153Y-79550499D01*
X112671156Y-79550500D01*
X112671158Y-79550500D01*
X112828844Y-79550500D01*
X112828845Y-79550499D01*
X112983497Y-79519737D01*
X113129179Y-79459394D01*
X113260289Y-79371789D01*
X113371789Y-79260289D01*
X113403274Y-79213167D01*
X113456884Y-79168363D01*
X113526209Y-79159654D01*
X113575267Y-79178956D01*
X113620821Y-79209394D01*
X113620823Y-79209395D01*
X113620827Y-79209397D01*
X113766498Y-79269735D01*
X113766503Y-79269737D01*
X113921153Y-79300499D01*
X113921156Y-79300500D01*
X113921158Y-79300500D01*
X114078844Y-79300500D01*
X114078845Y-79300499D01*
X114233497Y-79269737D01*
X114379179Y-79209394D01*
X114510289Y-79121789D01*
X114621789Y-79010289D01*
X114709394Y-78879179D01*
X114769737Y-78733497D01*
X114800500Y-78578842D01*
X114800500Y-78528362D01*
X114804958Y-78495413D01*
X114807926Y-78484642D01*
X114809577Y-78481784D01*
X114839534Y-78369981D01*
X114850500Y-78329058D01*
X114850500Y-78170943D01*
X114850500Y-74339059D01*
X114850501Y-74339046D01*
X114850501Y-74170945D01*
X114850501Y-74170943D01*
X114809577Y-74018215D01*
X114779652Y-73966384D01*
X114730520Y-73881284D01*
X114618716Y-73769480D01*
X114618715Y-73769479D01*
X114614385Y-73765149D01*
X114614374Y-73765139D01*
X110987589Y-70138354D01*
X110980520Y-70131285D01*
X110980520Y-70131284D01*
X110946557Y-70097321D01*
X110931138Y-70078532D01*
X110871792Y-69989715D01*
X110871786Y-69989707D01*
X110760292Y-69878213D01*
X110760288Y-69878210D01*
X110629185Y-69790609D01*
X110629172Y-69790602D01*
X110483501Y-69730264D01*
X110483489Y-69730261D01*
X110328845Y-69699500D01*
X110328842Y-69699500D01*
X110171158Y-69699500D01*
X110171155Y-69699500D01*
X110016510Y-69730261D01*
X110016498Y-69730264D01*
X109870827Y-69790602D01*
X109870814Y-69790609D01*
X109739711Y-69878210D01*
X109739707Y-69878213D01*
X109628213Y-69989707D01*
X109628208Y-69989713D01*
X109596289Y-70037483D01*
X109542676Y-70082288D01*
X109473351Y-70090994D01*
X109410324Y-70060838D01*
X109405507Y-70056272D01*
X106987590Y-67638355D01*
X106987588Y-67638352D01*
X106868717Y-67519481D01*
X106868716Y-67519480D01*
X106781904Y-67469360D01*
X106781904Y-67469359D01*
X106781900Y-67469358D01*
X106731785Y-67440423D01*
X106579057Y-67399499D01*
X106420943Y-67399499D01*
X106413347Y-67399499D01*
X106413331Y-67399500D01*
X101050098Y-67399500D01*
X100983059Y-67379815D01*
X100962417Y-67363181D01*
X99834573Y-66235337D01*
X99801088Y-66174014D01*
X99800637Y-66171847D01*
X99790486Y-66120814D01*
X99769737Y-66016503D01*
X99762370Y-65998718D01*
X99709397Y-65870827D01*
X99709390Y-65870814D01*
X99621789Y-65739711D01*
X99621786Y-65739707D01*
X99510292Y-65628213D01*
X99510288Y-65628210D01*
X99379185Y-65540609D01*
X99379172Y-65540602D01*
X99233501Y-65480264D01*
X99233489Y-65480261D01*
X99078845Y-65449500D01*
X99078842Y-65449500D01*
X98921158Y-65449500D01*
X98921155Y-65449500D01*
X98766510Y-65480261D01*
X98766498Y-65480264D01*
X98620827Y-65540602D01*
X98620814Y-65540609D01*
X98489711Y-65628210D01*
X98489707Y-65628213D01*
X98401092Y-65716829D01*
X98339769Y-65750314D01*
X98270077Y-65745330D01*
X98265959Y-65743709D01*
X98233498Y-65730263D01*
X98233488Y-65730260D01*
X98078845Y-65699500D01*
X98078842Y-65699500D01*
X97921158Y-65699500D01*
X97921155Y-65699500D01*
X97766510Y-65730261D01*
X97766498Y-65730264D01*
X97620827Y-65790602D01*
X97620814Y-65790609D01*
X97489711Y-65878210D01*
X97489707Y-65878213D01*
X97378213Y-65989707D01*
X97378210Y-65989711D01*
X97290609Y-66120814D01*
X97290602Y-66120827D01*
X97230264Y-66266498D01*
X97230261Y-66266510D01*
X97199500Y-66421153D01*
X97199500Y-66578846D01*
X97230261Y-66733489D01*
X97230264Y-66733501D01*
X97275362Y-66842377D01*
X97282831Y-66911846D01*
X97251556Y-66974325D01*
X97208254Y-67004390D01*
X97120823Y-67040604D01*
X97120814Y-67040609D01*
X96989711Y-67128210D01*
X96989707Y-67128213D01*
X96878213Y-67239707D01*
X96878210Y-67239711D01*
X96790609Y-67370814D01*
X96790602Y-67370827D01*
X96730264Y-67516498D01*
X96730261Y-67516510D01*
X96699500Y-67671153D01*
X96699500Y-67825500D01*
X96679815Y-67892539D01*
X96627011Y-67938294D01*
X96575500Y-67949500D01*
X96421155Y-67949500D01*
X96266510Y-67980261D01*
X96266498Y-67980264D01*
X96120827Y-68040602D01*
X96120814Y-68040609D01*
X95989711Y-68128210D01*
X95989707Y-68128213D01*
X95878213Y-68239707D01*
X95878210Y-68239711D01*
X95790609Y-68370814D01*
X95790602Y-68370827D01*
X95730264Y-68516498D01*
X95730261Y-68516510D01*
X95699500Y-68671153D01*
X95699500Y-68828846D01*
X95730261Y-68983489D01*
X95730264Y-68983501D01*
X95790602Y-69129172D01*
X95790609Y-69129185D01*
X95878601Y-69260873D01*
X95894845Y-69296110D01*
X95899499Y-69312614D01*
X95899499Y-69329057D01*
X95940423Y-69481785D01*
X95945922Y-69491309D01*
X95953674Y-69504737D01*
X95953675Y-69504738D01*
X96019477Y-69618712D01*
X96019481Y-69618717D01*
X96138349Y-69737585D01*
X96138355Y-69737590D01*
X98328584Y-71927819D01*
X98362069Y-71989142D01*
X98357085Y-72058834D01*
X98315213Y-72114767D01*
X98249749Y-72139184D01*
X98240903Y-72139500D01*
X96290097Y-72139500D01*
X96223058Y-72119815D01*
X96202416Y-72103181D01*
X89385726Y-65286491D01*
X89382783Y-65283446D01*
X89373106Y-65273085D01*
X89360520Y-65251284D01*
X89248716Y-65139480D01*
X89248713Y-65139478D01*
X88267590Y-64158355D01*
X88267588Y-64158352D01*
X88148718Y-64039482D01*
X88148716Y-64039480D01*
X88134239Y-64031121D01*
X88109566Y-64016876D01*
X88061352Y-63966308D01*
X88061083Y-63965785D01*
X88009523Y-63864594D01*
X88000010Y-63851500D01*
X87893828Y-63705354D01*
X87859627Y-63671153D01*
X99199500Y-63671153D01*
X99199500Y-63828846D01*
X99230261Y-63983489D01*
X99230264Y-63983501D01*
X99290602Y-64129172D01*
X99290609Y-64129185D01*
X99378210Y-64260288D01*
X99378213Y-64260292D01*
X99489707Y-64371786D01*
X99489711Y-64371789D01*
X99620814Y-64459390D01*
X99620827Y-64459397D01*
X99722199Y-64501386D01*
X99766503Y-64519737D01*
X99831147Y-64532595D01*
X99921849Y-64550638D01*
X99983760Y-64583023D01*
X99985338Y-64584573D01*
X101881284Y-66480520D01*
X101881286Y-66480521D01*
X101881290Y-66480524D01*
X101984255Y-66539970D01*
X102018216Y-66559577D01*
X102170943Y-66600501D01*
X102170945Y-66600501D01*
X102336654Y-66600501D01*
X102336670Y-66600500D01*
X105670943Y-66600500D01*
X110949903Y-66600500D01*
X111016942Y-66620185D01*
X111037584Y-66636819D01*
X112363181Y-67962416D01*
X112396666Y-68023739D01*
X112399500Y-68050097D01*
X112399500Y-70663330D01*
X112399499Y-70663348D01*
X112399499Y-70829054D01*
X112399498Y-70829054D01*
X112440423Y-70981785D01*
X112456880Y-71010289D01*
X112456879Y-71010289D01*
X112456880Y-71010290D01*
X112519475Y-71118709D01*
X112519481Y-71118717D01*
X112638349Y-71237585D01*
X112638355Y-71237590D01*
X116363181Y-74962416D01*
X116377884Y-74989343D01*
X116394477Y-75015162D01*
X116395368Y-75021362D01*
X116396666Y-75023739D01*
X116399500Y-75050097D01*
X116399500Y-75170234D01*
X116379815Y-75237273D01*
X116378602Y-75239125D01*
X116290609Y-75370814D01*
X116290602Y-75370827D01*
X116230264Y-75516498D01*
X116230261Y-75516510D01*
X116199500Y-75671153D01*
X116199500Y-75828846D01*
X116230261Y-75983489D01*
X116230264Y-75983501D01*
X116290602Y-76129172D01*
X116290609Y-76129185D01*
X116378210Y-76260288D01*
X116378213Y-76260292D01*
X116489707Y-76371786D01*
X116489711Y-76371789D01*
X116620814Y-76459390D01*
X116620827Y-76459397D01*
X116766498Y-76519735D01*
X116766503Y-76519737D01*
X116921153Y-76550499D01*
X116921156Y-76550500D01*
X116921158Y-76550500D01*
X117078844Y-76550500D01*
X117078845Y-76550499D01*
X117233497Y-76519737D01*
X117379179Y-76459394D01*
X117510289Y-76371789D01*
X117621789Y-76260289D01*
X117709394Y-76129179D01*
X117769737Y-75983497D01*
X117800500Y-75828842D01*
X117800500Y-75671158D01*
X117800500Y-75671155D01*
X117800499Y-75671153D01*
X117798968Y-75663458D01*
X117769737Y-75516503D01*
X117769735Y-75516498D01*
X117709397Y-75370827D01*
X117709390Y-75370814D01*
X117621398Y-75239125D01*
X117600520Y-75172447D01*
X117600500Y-75170234D01*
X117600500Y-74670944D01*
X117600499Y-74670938D01*
X117597288Y-74658954D01*
X117594755Y-74649500D01*
X117559577Y-74518215D01*
X117517179Y-74444780D01*
X117480520Y-74381284D01*
X117368716Y-74269480D01*
X117368715Y-74269479D01*
X117364385Y-74265149D01*
X117364374Y-74265139D01*
X113636819Y-70537584D01*
X113603334Y-70476261D01*
X113600500Y-70449903D01*
X113600500Y-67839060D01*
X113600501Y-67839047D01*
X113600501Y-67670944D01*
X113600114Y-67669500D01*
X113559577Y-67518216D01*
X113491037Y-67399500D01*
X113480524Y-67381290D01*
X113480518Y-67381282D01*
X111737590Y-65638355D01*
X111737588Y-65638352D01*
X111618717Y-65519481D01*
X111618716Y-65519480D01*
X111531904Y-65469360D01*
X111531904Y-65469359D01*
X111531900Y-65469358D01*
X111481785Y-65440423D01*
X111329057Y-65399499D01*
X111170943Y-65399499D01*
X111163347Y-65399499D01*
X111163331Y-65399500D01*
X105977487Y-65399500D01*
X105910448Y-65379815D01*
X105864693Y-65327011D01*
X105854749Y-65257853D01*
X105874384Y-65206610D01*
X105899391Y-65169183D01*
X105899394Y-65169179D01*
X105959737Y-65023497D01*
X105990500Y-64868842D01*
X105990500Y-64711158D01*
X105990500Y-64711155D01*
X105990499Y-64711153D01*
X105987033Y-64693730D01*
X105959737Y-64556503D01*
X105957308Y-64550638D01*
X105899397Y-64410827D01*
X105899390Y-64410814D01*
X105811789Y-64279711D01*
X105811786Y-64279707D01*
X105700292Y-64168213D01*
X105700288Y-64168210D01*
X105569182Y-64080607D01*
X105563813Y-64077738D01*
X105563982Y-64077421D01*
X105551130Y-64070551D01*
X105537390Y-64061371D01*
X105537389Y-64061370D01*
X105537387Y-64061369D01*
X105400080Y-64004495D01*
X105400072Y-64004493D01*
X105254316Y-63975500D01*
X105254312Y-63975500D01*
X103731500Y-63975500D01*
X103664461Y-63955815D01*
X103618706Y-63903011D01*
X103607500Y-63851500D01*
X103607500Y-61441281D01*
X103627185Y-61374242D01*
X103643819Y-61353600D01*
X105203600Y-59793819D01*
X105264923Y-59760334D01*
X105291281Y-59757500D01*
X112974059Y-59757500D01*
X113041098Y-59777185D01*
X113061740Y-59793819D01*
X113079707Y-59811786D01*
X113079711Y-59811789D01*
X113210814Y-59899390D01*
X113210827Y-59899397D01*
X113356498Y-59959735D01*
X113356503Y-59959737D01*
X113511153Y-59990499D01*
X113511156Y-59990500D01*
X113511158Y-59990500D01*
X113668844Y-59990500D01*
X113668845Y-59990499D01*
X113823497Y-59959737D01*
X113969179Y-59899394D01*
X114100289Y-59811789D01*
X114211789Y-59700289D01*
X114299394Y-59569179D01*
X114359737Y-59423497D01*
X114390500Y-59268842D01*
X114390500Y-59111158D01*
X114390500Y-59111155D01*
X114390499Y-59111153D01*
X114359738Y-58956510D01*
X114359737Y-58956503D01*
X114359735Y-58956498D01*
X114299397Y-58810827D01*
X114299390Y-58810814D01*
X114211789Y-58679711D01*
X114211786Y-58679707D01*
X114100292Y-58568213D01*
X114100288Y-58568210D01*
X113969185Y-58480609D01*
X113969172Y-58480602D01*
X113823501Y-58420264D01*
X113823489Y-58420261D01*
X113668845Y-58389500D01*
X113668842Y-58389500D01*
X113511158Y-58389500D01*
X113511155Y-58389500D01*
X113356510Y-58420261D01*
X113356498Y-58420264D01*
X113210828Y-58480602D01*
X113210814Y-58480610D01*
X113209327Y-58481604D01*
X113208429Y-58481885D01*
X113205447Y-58483479D01*
X113205144Y-58482913D01*
X113142649Y-58502480D01*
X113140439Y-58502500D01*
X104918195Y-58502500D01*
X104796970Y-58526613D01*
X104796960Y-58526616D01*
X104682773Y-58573913D01*
X104682760Y-58573920D01*
X104579992Y-58642588D01*
X104579988Y-58642591D01*
X102579992Y-60642589D01*
X102513081Y-60709500D01*
X102492589Y-60729992D01*
X102423916Y-60832769D01*
X102410061Y-60866214D01*
X102410062Y-60866215D01*
X102376614Y-60946965D01*
X102354230Y-61059500D01*
X102354229Y-61059502D01*
X102354229Y-61059504D01*
X102352500Y-61068194D01*
X102352500Y-63924714D01*
X102332815Y-63991753D01*
X102280011Y-64037508D01*
X102275953Y-64039275D01*
X102222608Y-64061371D01*
X102099035Y-64143939D01*
X102099028Y-64143945D01*
X101993944Y-64249029D01*
X101993938Y-64249036D01*
X101990758Y-64253796D01*
X101975346Y-64272574D01*
X101968218Y-64279702D01*
X101968211Y-64279710D01*
X101880609Y-64410815D01*
X101880604Y-64410824D01*
X101843092Y-64501386D01*
X101799251Y-64555790D01*
X101732956Y-64577854D01*
X101665257Y-64560574D01*
X101640850Y-64541614D01*
X100834573Y-63735337D01*
X100801088Y-63674014D01*
X100800637Y-63671847D01*
X100769738Y-63516510D01*
X100769737Y-63516503D01*
X100742388Y-63450476D01*
X100709397Y-63370827D01*
X100709390Y-63370814D01*
X100621789Y-63239711D01*
X100621786Y-63239707D01*
X100510292Y-63128213D01*
X100510288Y-63128210D01*
X100379185Y-63040609D01*
X100379172Y-63040602D01*
X100233501Y-62980264D01*
X100233489Y-62980261D01*
X100078845Y-62949500D01*
X100078842Y-62949500D01*
X99921158Y-62949500D01*
X99921155Y-62949500D01*
X99766510Y-62980261D01*
X99766498Y-62980264D01*
X99620827Y-63040602D01*
X99620814Y-63040609D01*
X99489711Y-63128210D01*
X99489707Y-63128213D01*
X99378213Y-63239707D01*
X99378210Y-63239711D01*
X99290609Y-63370814D01*
X99290602Y-63370827D01*
X99230264Y-63516498D01*
X99230261Y-63516510D01*
X99199500Y-63671153D01*
X87859627Y-63671153D01*
X87754646Y-63566172D01*
X87595405Y-63450476D01*
X87420026Y-63361116D01*
X87414031Y-63359168D01*
X87410221Y-63357930D01*
X87352546Y-63318495D01*
X87325347Y-63254136D01*
X87337261Y-63185290D01*
X87384504Y-63133813D01*
X87410220Y-63122069D01*
X87420025Y-63118884D01*
X87595405Y-63029524D01*
X87754646Y-62913828D01*
X87893828Y-62774646D01*
X88009524Y-62615405D01*
X88098884Y-62440025D01*
X88159709Y-62252826D01*
X88190500Y-62058422D01*
X88190500Y-61861577D01*
X88159709Y-61667173D01*
X88098882Y-61479970D01*
X88009523Y-61304594D01*
X87893828Y-61145354D01*
X87754646Y-61006172D01*
X87595405Y-60890476D01*
X87547788Y-60866214D01*
X87420029Y-60801117D01*
X87232826Y-60740290D01*
X87038422Y-60709500D01*
X87038417Y-60709500D01*
X85801583Y-60709500D01*
X85801578Y-60709500D01*
X85607173Y-60740290D01*
X85419970Y-60801117D01*
X85244594Y-60890476D01*
X85166849Y-60946962D01*
X85085354Y-61006172D01*
X85085352Y-61006174D01*
X85085351Y-61006174D01*
X84946174Y-61145351D01*
X84946174Y-61145352D01*
X84946172Y-61145354D01*
X84896485Y-61213741D01*
X84830476Y-61304594D01*
X84741117Y-61479970D01*
X84680290Y-61667173D01*
X84649500Y-61861577D01*
X84649500Y-62058422D01*
X84680290Y-62252826D01*
X84741117Y-62440029D01*
X84830476Y-62615405D01*
X84946172Y-62774646D01*
X85085354Y-62913828D01*
X85244595Y-63029524D01*
X85266345Y-63040606D01*
X85419970Y-63118882D01*
X85419972Y-63118882D01*
X85419975Y-63118884D01*
X85429780Y-63122070D01*
X85487454Y-63161507D01*
X85514652Y-63225866D01*
X85502737Y-63294712D01*
X85455492Y-63346188D01*
X85429783Y-63357929D01*
X85425269Y-63359395D01*
X85419970Y-63361117D01*
X85244594Y-63450476D01*
X85153741Y-63516485D01*
X85085354Y-63566172D01*
X85085352Y-63566174D01*
X85085351Y-63566174D01*
X84946174Y-63705351D01*
X84946174Y-63705352D01*
X84946172Y-63705354D01*
X84922488Y-63737952D01*
X84830476Y-63864594D01*
X84741117Y-64039970D01*
X84680290Y-64227173D01*
X84649500Y-64421577D01*
X84649500Y-64618422D01*
X84680290Y-64812826D01*
X84741117Y-65000029D01*
X84809194Y-65133637D01*
X84830476Y-65175405D01*
X84946172Y-65334646D01*
X85085354Y-65473828D01*
X85148190Y-65519481D01*
X85244596Y-65589525D01*
X85381959Y-65659514D01*
X85432756Y-65707488D01*
X85449551Y-65775309D01*
X85427014Y-65841444D01*
X85381960Y-65880484D01*
X85244593Y-65950476D01*
X85178195Y-65998718D01*
X85085353Y-66066172D01*
X85085351Y-66066174D01*
X85085350Y-66066174D01*
X84946173Y-66205351D01*
X84946173Y-66205352D01*
X84946171Y-66205354D01*
X84944381Y-66207818D01*
X84830475Y-66364594D01*
X84741116Y-66539970D01*
X84680289Y-66727173D01*
X84649499Y-66921577D01*
X84649499Y-67118422D01*
X84680289Y-67312826D01*
X84741116Y-67500029D01*
X84828311Y-67671158D01*
X84830475Y-67675405D01*
X84946171Y-67834646D01*
X85085353Y-67973828D01*
X85244594Y-68089524D01*
X85320520Y-68128210D01*
X85419969Y-68178882D01*
X85419971Y-68178882D01*
X85419974Y-68178884D01*
X85429779Y-68182070D01*
X85487453Y-68221507D01*
X85514651Y-68285866D01*
X85502736Y-68354712D01*
X85455491Y-68406188D01*
X85429782Y-68417929D01*
X85426083Y-68419131D01*
X85419971Y-68421117D01*
X85244594Y-68510476D01*
X85153915Y-68576359D01*
X85085354Y-68626172D01*
X85085352Y-68626174D01*
X85085351Y-68626174D01*
X84946174Y-68765351D01*
X84946174Y-68765352D01*
X84946172Y-68765354D01*
X84912150Y-68812181D01*
X84830476Y-68924594D01*
X84741117Y-69099970D01*
X84680290Y-69287173D01*
X84649500Y-69481577D01*
X84649500Y-69678422D01*
X84680290Y-69872826D01*
X84741117Y-70060029D01*
X84819639Y-70214136D01*
X84830476Y-70235405D01*
X84946172Y-70394646D01*
X85085354Y-70533828D01*
X85244595Y-70649524D01*
X85367992Y-70712397D01*
X85421213Y-70739515D01*
X85472009Y-70787489D01*
X85488804Y-70855310D01*
X85466267Y-70921445D01*
X85421213Y-70960485D01*
X85244594Y-71050476D01*
X85153741Y-71116485D01*
X85085354Y-71166172D01*
X85085352Y-71166174D01*
X85085351Y-71166174D01*
X84946174Y-71305351D01*
X84946174Y-71305352D01*
X84946172Y-71305354D01*
X84904158Y-71363181D01*
X84830476Y-71464594D01*
X84741117Y-71639970D01*
X84680290Y-71827173D01*
X84649500Y-72021577D01*
X84649500Y-72218422D01*
X84680290Y-72412826D01*
X84741117Y-72600029D01*
X84821006Y-72756819D01*
X84830476Y-72775405D01*
X84946172Y-72934646D01*
X85085354Y-73073828D01*
X85244595Y-73189524D01*
X85419975Y-73278884D01*
X85429774Y-73282068D01*
X85487450Y-73321502D01*
X85514650Y-73385860D01*
X85502738Y-73454707D01*
X85455496Y-73506184D01*
X85429785Y-73517927D01*
X85419975Y-73521115D01*
X85244593Y-73610476D01*
X85161080Y-73671153D01*
X85085353Y-73726172D01*
X85085351Y-73726174D01*
X85085350Y-73726174D01*
X84946173Y-73865351D01*
X84946173Y-73865352D01*
X84946171Y-73865354D01*
X84909966Y-73915186D01*
X84830475Y-74024594D01*
X84741116Y-74199970D01*
X84680289Y-74387173D01*
X84649499Y-74581577D01*
X84649499Y-74778422D01*
X84680289Y-74972826D01*
X84741116Y-75160029D01*
X84817784Y-75310498D01*
X84830475Y-75335405D01*
X84946171Y-75494646D01*
X85085353Y-75633828D01*
X85244594Y-75749524D01*
X85327454Y-75791743D01*
X85419969Y-75838882D01*
X85419971Y-75838882D01*
X85419974Y-75838884D01*
X85520316Y-75871487D01*
X85607172Y-75899709D01*
X85801577Y-75930500D01*
X85801582Y-75930500D01*
X87038421Y-75930500D01*
X87232825Y-75899709D01*
X87259908Y-75890909D01*
X87420024Y-75838884D01*
X87595404Y-75749524D01*
X87754645Y-75633828D01*
X87893827Y-75494646D01*
X88009523Y-75335405D01*
X88009523Y-75335403D01*
X88012277Y-75331614D01*
X88067607Y-75288949D01*
X88112595Y-75280500D01*
X88709903Y-75280500D01*
X88776942Y-75300185D01*
X88797583Y-75316818D01*
X90671284Y-77190520D01*
X90808215Y-77269577D01*
X90960943Y-77310501D01*
X90960946Y-77310501D01*
X91126654Y-77310501D01*
X91126670Y-77310500D01*
X106710943Y-77310500D01*
X107108375Y-77310500D01*
X107175414Y-77330185D01*
X107196056Y-77346819D01*
X107904661Y-78055424D01*
X107938146Y-78116747D01*
X107938597Y-78118913D01*
X107969497Y-78274255D01*
X107969500Y-78274265D01*
X108029838Y-78419936D01*
X108029845Y-78419949D01*
X108117446Y-78551052D01*
X108117449Y-78551056D01*
X108228943Y-78662550D01*
X108228947Y-78662553D01*
X108360050Y-78750154D01*
X108360063Y-78750161D01*
X108505734Y-78810499D01*
X108505739Y-78810501D01*
X108660389Y-78841263D01*
X108660392Y-78841264D01*
X108660394Y-78841264D01*
X108818080Y-78841264D01*
X108818081Y-78841263D01*
X108972733Y-78810501D01*
X109118415Y-78750158D01*
X109249525Y-78662553D01*
X109361025Y-78551053D01*
X109448630Y-78419943D01*
X109508973Y-78274261D01*
X109539736Y-78119606D01*
X109539736Y-77961922D01*
X109539736Y-77961919D01*
X109539735Y-77961917D01*
X109530477Y-77915374D01*
X109508973Y-77807267D01*
X109484455Y-77748074D01*
X109448633Y-77661591D01*
X109448625Y-77661577D01*
X109407399Y-77599879D01*
X109386520Y-77533202D01*
X109405004Y-77465822D01*
X109407360Y-77462154D01*
X109429394Y-77429179D01*
X109489737Y-77283497D01*
X109520500Y-77128842D01*
X109520500Y-76971158D01*
X109520500Y-76971155D01*
X109520438Y-76970844D01*
X109520452Y-76970677D01*
X109519903Y-76965093D01*
X109520961Y-76964988D01*
X109526665Y-76901252D01*
X109569528Y-76846075D01*
X109635417Y-76822830D01*
X109703414Y-76838897D01*
X109729736Y-76858971D01*
X110005425Y-77134660D01*
X110038910Y-77195983D01*
X110039361Y-77198149D01*
X110070261Y-77353491D01*
X110070264Y-77353501D01*
X110130602Y-77499172D01*
X110130609Y-77499185D01*
X110218210Y-77630288D01*
X110218213Y-77630292D01*
X110329707Y-77741786D01*
X110329711Y-77741789D01*
X110460814Y-77829390D01*
X110460821Y-77829394D01*
X110544316Y-77863978D01*
X110598717Y-77907816D01*
X110620783Y-77974110D01*
X110603505Y-78041810D01*
X110584543Y-78066219D01*
X109037584Y-79613181D01*
X108976261Y-79646666D01*
X108949903Y-79649500D01*
X103086670Y-79649500D01*
X103086654Y-79649499D01*
X103079058Y-79649499D01*
X102920943Y-79649499D01*
X102849237Y-79668713D01*
X102768214Y-79690423D01*
X102768209Y-79690426D01*
X102631290Y-79769475D01*
X102631282Y-79769481D01*
X100735339Y-81665425D01*
X100674016Y-81698910D01*
X100671850Y-81699361D01*
X100516508Y-81730261D01*
X100516498Y-81730264D01*
X100370827Y-81790602D01*
X100370814Y-81790609D01*
X100239711Y-81878210D01*
X100239707Y-81878213D01*
X100128213Y-81989707D01*
X100128210Y-81989711D01*
X100040609Y-82120814D01*
X100040602Y-82120827D01*
X99980264Y-82266498D01*
X99980261Y-82266510D01*
X99949500Y-82421153D01*
X99949500Y-82578841D01*
X99953770Y-82600310D01*
X99947541Y-82669902D01*
X99904678Y-82725079D01*
X99838787Y-82748322D01*
X99832152Y-82748500D01*
X93209910Y-82748500D01*
X93209894Y-82748499D01*
X93202298Y-82748499D01*
X93044183Y-82748499D01*
X92967819Y-82768961D01*
X92891454Y-82789423D01*
X92891449Y-82789426D01*
X92754530Y-82868475D01*
X92754522Y-82868481D01*
X92659823Y-82963181D01*
X92598500Y-82996666D01*
X92572142Y-82999500D01*
X90579766Y-82999500D01*
X90512727Y-82979815D01*
X90510875Y-82978602D01*
X90379185Y-82890609D01*
X90379172Y-82890602D01*
X90233501Y-82830264D01*
X90233489Y-82830261D01*
X90078845Y-82799500D01*
X90078842Y-82799500D01*
X89921158Y-82799500D01*
X89921155Y-82799500D01*
X89766510Y-82830261D01*
X89766498Y-82830264D01*
X89620827Y-82890602D01*
X89620814Y-82890609D01*
X89489711Y-82978210D01*
X89489707Y-82978213D01*
X89378213Y-83089707D01*
X89378210Y-83089711D01*
X89290609Y-83220814D01*
X89290602Y-83220827D01*
X89230264Y-83366498D01*
X89230261Y-83366510D01*
X89199500Y-83521153D01*
X89199500Y-83678846D01*
X89230261Y-83833489D01*
X89230264Y-83833501D01*
X89290602Y-83979172D01*
X89290609Y-83979185D01*
X89378210Y-84110288D01*
X89378213Y-84110292D01*
X89489707Y-84221786D01*
X89489711Y-84221789D01*
X89620814Y-84309390D01*
X89620827Y-84309397D01*
X89766498Y-84369735D01*
X89766503Y-84369737D01*
X89887038Y-84393713D01*
X89921153Y-84400499D01*
X89921156Y-84400500D01*
X89921158Y-84400500D01*
X90078844Y-84400500D01*
X90078845Y-84400499D01*
X90233497Y-84369737D01*
X90379179Y-84309394D01*
X90433663Y-84272989D01*
X90510875Y-84221398D01*
X90577553Y-84200520D01*
X90579766Y-84200500D01*
X92134917Y-84200500D01*
X92201956Y-84220185D01*
X92247711Y-84272989D01*
X92257655Y-84342147D01*
X92257390Y-84343898D01*
X92249500Y-84393713D01*
X92249500Y-84606286D01*
X92282753Y-84816239D01*
X92348444Y-85018414D01*
X92444951Y-85207820D01*
X92569890Y-85379786D01*
X92720213Y-85530109D01*
X92892179Y-85655048D01*
X92892181Y-85655049D01*
X92892184Y-85655051D01*
X92900942Y-85659513D01*
X92951739Y-85707487D01*
X92968535Y-85775307D01*
X92945999Y-85841443D01*
X92900949Y-85880481D01*
X92892183Y-85884947D01*
X92720213Y-86009889D01*
X92569890Y-86160212D01*
X92444951Y-86332178D01*
X92348444Y-86521584D01*
X92282753Y-86723759D01*
X92249500Y-86933712D01*
X92249500Y-87146285D01*
X92282581Y-87355155D01*
X92282754Y-87356242D01*
X92333637Y-87512844D01*
X92348444Y-87558413D01*
X92444951Y-87747819D01*
X92569890Y-87919785D01*
X92683430Y-88033325D01*
X92716915Y-88094648D01*
X92711931Y-88164340D01*
X92670059Y-88220273D01*
X92639083Y-88237188D01*
X92507669Y-88286202D01*
X92507664Y-88286205D01*
X92392455Y-88372451D01*
X92392452Y-88372454D01*
X92306206Y-88487663D01*
X92306202Y-88487670D01*
X92255908Y-88622516D01*
X92250289Y-88674785D01*
X92249501Y-88682122D01*
X92249500Y-88682134D01*
X92249500Y-90477869D01*
X92249501Y-90477875D01*
X92255908Y-90537482D01*
X92306202Y-90672327D01*
X92306206Y-90672334D01*
X92392451Y-90787542D01*
X92392452Y-90787543D01*
X92392454Y-90787545D01*
X92425435Y-90812234D01*
X92467305Y-90868167D01*
X92472289Y-90937859D01*
X92438804Y-90999182D01*
X92377481Y-91032666D01*
X92351123Y-91035500D01*
X88836687Y-91035500D01*
X88828835Y-91037062D01*
X88793366Y-91044117D01*
X88769176Y-91046500D01*
X79294947Y-91046500D01*
X79247498Y-91037062D01*
X79233497Y-91031263D01*
X79233493Y-91031262D01*
X79233488Y-91031260D01*
X79078845Y-91000500D01*
X79078842Y-91000500D01*
X78921158Y-91000500D01*
X78921155Y-91000500D01*
X78766510Y-91031261D01*
X78766498Y-91031264D01*
X78620827Y-91091602D01*
X78620814Y-91091609D01*
X78489711Y-91179210D01*
X78489707Y-91179213D01*
X78378213Y-91290707D01*
X78378210Y-91290711D01*
X78290609Y-91421814D01*
X78290602Y-91421827D01*
X78230264Y-91567498D01*
X78230261Y-91567510D01*
X78199500Y-91722153D01*
X50500500Y-91722153D01*
X50500500Y-79313712D01*
X92249500Y-79313712D01*
X92249500Y-79526286D01*
X92282754Y-79736242D01*
X92329882Y-79881287D01*
X92348444Y-79938413D01*
X92444951Y-80127819D01*
X92569890Y-80299785D01*
X92720213Y-80450108D01*
X92892179Y-80575047D01*
X92892181Y-80575048D01*
X92892184Y-80575050D01*
X93081588Y-80671556D01*
X93283757Y-80737245D01*
X93493713Y-80770499D01*
X93493714Y-80770499D01*
X93706286Y-80770499D01*
X93706287Y-80770499D01*
X93916243Y-80737245D01*
X94118412Y-80671556D01*
X94307816Y-80575050D01*
X94434761Y-80482820D01*
X94479786Y-80450108D01*
X94479788Y-80450105D01*
X94479792Y-80450103D01*
X94630104Y-80299791D01*
X94630106Y-80299787D01*
X94630109Y-80299785D01*
X94755048Y-80127819D01*
X94755047Y-80127819D01*
X94755051Y-80127815D01*
X94851557Y-79938411D01*
X94917246Y-79736242D01*
X94950500Y-79526286D01*
X94950500Y-79313712D01*
X94917246Y-79103756D01*
X94851557Y-78901587D01*
X94755051Y-78712183D01*
X94755049Y-78712180D01*
X94755048Y-78712178D01*
X94630109Y-78540212D01*
X94479786Y-78389889D01*
X94307820Y-78264950D01*
X94118414Y-78168443D01*
X94118413Y-78168442D01*
X94118412Y-78168442D01*
X93916243Y-78102753D01*
X93916241Y-78102752D01*
X93916240Y-78102752D01*
X93754957Y-78077207D01*
X93706287Y-78069499D01*
X93493713Y-78069499D01*
X93445042Y-78077207D01*
X93283760Y-78102752D01*
X93081585Y-78168443D01*
X92892179Y-78264950D01*
X92720213Y-78389889D01*
X92569890Y-78540212D01*
X92444951Y-78712178D01*
X92348444Y-78901584D01*
X92282753Y-79103759D01*
X92257961Y-79260289D01*
X92249500Y-79313712D01*
X50500500Y-79313712D01*
X50500500Y-68821577D01*
X53149500Y-68821577D01*
X53149500Y-69018422D01*
X53180290Y-69212826D01*
X53241117Y-69400029D01*
X53330476Y-69575405D01*
X53446172Y-69734646D01*
X53585354Y-69873828D01*
X53744595Y-69989524D01*
X53827455Y-70031743D01*
X53919970Y-70078882D01*
X53919972Y-70078882D01*
X53919975Y-70078884D01*
X53929780Y-70082070D01*
X53987454Y-70121507D01*
X54014652Y-70185866D01*
X54002737Y-70254712D01*
X53955492Y-70306188D01*
X53929783Y-70317929D01*
X53925269Y-70319395D01*
X53919970Y-70321117D01*
X53744594Y-70410476D01*
X53654050Y-70476261D01*
X53585354Y-70526172D01*
X53585352Y-70526174D01*
X53585351Y-70526174D01*
X53446174Y-70665351D01*
X53446174Y-70665352D01*
X53446172Y-70665354D01*
X53396485Y-70733741D01*
X53330476Y-70824594D01*
X53241117Y-70999970D01*
X53180290Y-71187173D01*
X53149500Y-71381577D01*
X53149500Y-71578422D01*
X53180290Y-71772826D01*
X53241117Y-71960029D01*
X53330476Y-72135405D01*
X53446172Y-72294646D01*
X53585354Y-72433828D01*
X53704784Y-72520600D01*
X53744596Y-72549525D01*
X53812217Y-72583979D01*
X53863013Y-72631953D01*
X53879809Y-72699774D01*
X53857272Y-72765909D01*
X53802557Y-72809361D01*
X53768529Y-72817822D01*
X53747200Y-72820001D01*
X53580668Y-72875185D01*
X53580663Y-72875187D01*
X53431342Y-72967289D01*
X53307289Y-73091342D01*
X53215187Y-73240663D01*
X53215186Y-73240666D01*
X53160001Y-73407203D01*
X53160001Y-73407204D01*
X53160000Y-73407204D01*
X53149500Y-73509983D01*
X53149500Y-74610001D01*
X53149501Y-74610019D01*
X53160000Y-74712796D01*
X53160001Y-74712799D01*
X53181745Y-74778417D01*
X53215186Y-74879334D01*
X53307288Y-75028656D01*
X53431344Y-75152712D01*
X53580666Y-75244814D01*
X53747203Y-75299999D01*
X53849991Y-75310500D01*
X55990008Y-75310499D01*
X56092797Y-75299999D01*
X56259334Y-75244814D01*
X56408656Y-75152712D01*
X56532712Y-75028656D01*
X56624814Y-74879334D01*
X56679999Y-74712797D01*
X56690500Y-74610009D01*
X56690499Y-73509992D01*
X56687281Y-73478493D01*
X56679999Y-73407203D01*
X56679998Y-73407200D01*
X56657896Y-73340500D01*
X56624814Y-73240666D01*
X56532712Y-73091344D01*
X56408656Y-72967288D01*
X56259334Y-72875186D01*
X56092797Y-72820001D01*
X56092795Y-72820000D01*
X56071471Y-72817822D01*
X56006780Y-72791424D01*
X55966630Y-72734243D01*
X55963768Y-72664432D01*
X55999103Y-72604156D01*
X56027779Y-72583980D01*
X56095405Y-72549524D01*
X56254646Y-72433828D01*
X56393828Y-72294646D01*
X56509524Y-72135405D01*
X56598884Y-71960025D01*
X56659709Y-71772826D01*
X56664311Y-71743771D01*
X56690500Y-71578422D01*
X56690500Y-71381577D01*
X56659709Y-71187173D01*
X56615292Y-71050474D01*
X56598884Y-70999975D01*
X56598882Y-70999972D01*
X56598882Y-70999970D01*
X56525174Y-70855310D01*
X56509524Y-70824595D01*
X56393828Y-70665354D01*
X56254646Y-70526172D01*
X56095405Y-70410476D01*
X56064337Y-70394646D01*
X55920026Y-70321116D01*
X55914031Y-70319168D01*
X55910221Y-70317930D01*
X55852546Y-70278495D01*
X55825347Y-70214136D01*
X55837261Y-70145290D01*
X55884504Y-70093813D01*
X55910220Y-70082069D01*
X55920025Y-70078884D01*
X56095405Y-69989524D01*
X56254646Y-69873828D01*
X56393828Y-69734646D01*
X56509524Y-69575405D01*
X56598884Y-69400025D01*
X56659709Y-69212826D01*
X56665808Y-69174316D01*
X56690500Y-69018422D01*
X56690500Y-68821577D01*
X56659709Y-68627173D01*
X56598882Y-68439970D01*
X56551743Y-68347455D01*
X56509524Y-68264595D01*
X56393828Y-68105354D01*
X56254646Y-67966172D01*
X56095405Y-67850476D01*
X56064337Y-67834646D01*
X55920029Y-67761117D01*
X55732826Y-67700290D01*
X55538422Y-67669500D01*
X55538417Y-67669500D01*
X54301583Y-67669500D01*
X54301578Y-67669500D01*
X54107173Y-67700290D01*
X53919970Y-67761117D01*
X53744594Y-67850476D01*
X53653741Y-67916485D01*
X53585354Y-67966172D01*
X53585352Y-67966174D01*
X53585351Y-67966174D01*
X53446174Y-68105351D01*
X53446174Y-68105352D01*
X53446172Y-68105354D01*
X53429564Y-68128213D01*
X53330476Y-68264594D01*
X53241117Y-68439970D01*
X53180290Y-68627173D01*
X53149500Y-68821577D01*
X50500500Y-68821577D01*
X50500500Y-54129500D01*
X50520185Y-54062461D01*
X50572989Y-54016706D01*
X50624500Y-54005500D01*
X137870500Y-54005500D01*
X137937539Y-54025185D01*
G37*
%TD.AperFunction*%
%TD*%
D24*
X50000000Y-26000000D02*
X150000000Y-26000000D01*
X150000000Y-106000000D01*
X50000000Y-106000000D01*
X50000000Y-26000000D01*
M02*
