M48
; DRILL file {KiCad 9.0.2} date 2025-09-24T23:35:38+0500
; FORMAT={-:-/ absolute / metric / decimal}
; #@! TF.CreationDate,2025-09-24T23:35:38+05:00
; #@! TF.GenerationSoftware,Kicad,Pcbnew,9.0.2
; #@! TF.FileFunction,Plated,1,2,PTH
FMAT,2
METRIC
; #@! TA.AperFunction,Plated,PTH,ViaDrill
T1C0.300
; #@! TA.AperFunction,Plated,PTH,ComponentDrill
T2C0.800
; #@! TA.AperFunction,Plated,PTH,ComponentDrill
T3C0.900
; #@! TA.AperFunction,Plated,PTH,ComponentDrill
T4C1.000
; #@! TA.AperFunction,Plated,PTH,ComponentDrill
T5C1.600
; #@! TA.AperFunction,Plated,PTH,ComponentDrill
T6C2.000
%
G90
G05
T1
X70.93Y-82.39
X72.87Y-82.42
X76.513Y-97.826
X78.612Y-101.426
X79.0Y-91.801
X84.1Y-80.0
X89.416Y-101.496
X89.65Y-92.79
X90.0Y-83.6
X90.924Y-58.48
X92.18Y-96.61
X94.5Y-65.5
X95.116Y-100.396
X96.31Y-93.91
X96.5Y-68.75
X97.5Y-67.75
X98.0Y-66.5
X99.0Y-66.25
X100.0Y-63.75
X100.25Y-59.75
X100.75Y-82.5
X102.134Y-69.68
X102.59Y-64.79
X103.0Y-86.1
X103.39Y-64.79
X103.6Y-79.0
X103.734Y-69.629
X103.78Y-101.06
X104.265Y-90.435
X104.265Y-91.2
X104.29Y-64.79
X104.42Y-99.07
X105.19Y-64.79
X105.334Y-69.629
X105.732Y-85.868
X106.41Y-73.75
X106.8Y-97.3
X107.09Y-60.29
X107.09Y-61.09
X107.5Y-71.25
X107.99Y-60.29
X107.99Y-61.09
X108.0Y-79.0
X108.23Y-82.51
X108.28Y-84.26
X108.37Y-86.27
X108.72Y-77.05
X108.739Y-78.041
X109.043Y-69.451
X109.068Y-67.14
X109.068Y-68.207
X109.7Y-97.2
X110.2Y-84.3
X110.2Y-86.28
X110.22Y-82.53
X110.25Y-70.5
X110.3Y-103.2
X110.8Y-91.397
X110.84Y-77.12
X111.3Y-76.08
X111.76Y-91.287
X111.79Y-61.39
X112.091Y-68.003
X112.091Y-69.731
X112.22Y-86.35
X112.27Y-84.24
X112.28Y-82.56
X112.325Y-89.283
X112.75Y-78.75
X113.0Y-75.75
X113.119Y-89.185
X113.59Y-59.19
X114.0Y-78.5
X114.046Y-69.629
X114.07Y-96.9
X115.09Y-96.8
X115.156Y-84.245
X115.2Y-68.52
X115.724Y-81.277
X115.918Y-84.645
X115.943Y-82.839
X116.1Y-87.1
X116.139Y-68.545
X116.3Y-96.76
X116.952Y-68.545
X117.0Y-75.75
X118.506Y-64.411
X118.53Y-77.5
X118.606Y-63.711
X118.7Y-79.8
X118.706Y-65.111
X119.306Y-64.411
X119.354Y-86.438
X119.506Y-65.111
X120.1Y-81.4
X121.4Y-83.2
X121.404Y-90.941
X123.245Y-87.476
X123.464Y-56.719
X123.58Y-74.48
X124.04Y-71.66
X124.122Y-90.586
X124.259Y-87.434
X124.434Y-57.239
X124.484Y-56.079
X125.106Y-63.211
X125.439Y-90.764
X126.089Y-90.114
X131.64Y-87.541
X136.647Y-67.637
X137.28Y-65.09
X137.33Y-59.17
X137.33Y-59.85
X137.33Y-60.6
X137.585Y-58.555
X140.08Y-61.59
X140.67Y-66.05
T2
X54.92Y-68.92
X54.92Y-71.48
X86.42Y-67.02
X86.42Y-74.68
X86.42Y-59.38
X86.42Y-61.96
X86.42Y-64.52
X86.42Y-69.58
X86.42Y-72.12
T3
X54.92Y-74.06
T4
X93.6Y-79.42
X93.6Y-81.96
X93.6Y-84.5
X93.6Y-87.04
X93.6Y-89.58
X119.56Y-99.2
X122.1Y-99.2
X124.64Y-99.2
X126.41Y-77.235
X126.41Y-79.775
T5
X135.69Y-81.79
X135.76Y-75.65
X140.49Y-81.79
X140.56Y-75.65
T6
X64.0Y-40.5
X136.0Y-40.5
M30
